SplineFontDB: 3.0
FontName: Nobile
FullName: Nobile
FamilyName: Nobile
Weight: Light
Copyright: Copyright (c) 2007-2010 by vernon adams. All rights reserved.
Version: 1.000;PS 001.000;hotconv 1.0.38
ItalicAngle: 0
UnderlinePosition: -292
UnderlineWidth: 40
Ascent: 1638
Descent: 410
sfntRevision: 0x00010000
LayerCount: 2
Layer: 0 1 "Back"  1
Layer: 1 1 "Fore"  0
NeedsXUIDChange: 1
XUID: [1021 759 1887733602 15100532]
FSType: 0
OS2Version: 2
OS2_WeightWidthSlopeOnly: 0
OS2_UseTypoMetrics: 1
CreationTime: 1275168252
ModificationTime: 1308928327
PfmFamily: 17
TTFWeight: 250
TTFWidth: 5
LineGap: 0
VLineGap: 0
Panose: 2 0 3 3 0 0 0 0 0 0
OS2TypoAscent: 0
OS2TypoAOffset: 1
OS2TypoDescent: 0
OS2TypoDOffset: 1
OS2TypoLinegap: 0
OS2WinAscent: -189
OS2WinAOffset: 1
OS2WinDescent: 95
OS2WinDOffset: 1
HheadAscent: -189
HheadAOffset: 1
HheadDescent: -95
HheadDOffset: 1
OS2SubXSize: 1331
OS2SubYSize: 1433
OS2SubXOff: 0
OS2SubYOff: 286
OS2SupXSize: 1331
OS2SupYSize: 1433
OS2SupXOff: 0
OS2SupYOff: 983
OS2StrikeYSize: 102
OS2StrikeYPos: 530
OS2Vendor: 'pyrs'
OS2CodePages: 00000001.00000000
OS2UnicodeRanges: 80000087.0000000a.00000000.00000000
DEI: 91125
ShortTable: maxp 16
  1
  0
  224
  117
  5
  104
  4
  1
  0
  0
  0
  0
  0
  0
  2
  1
EndShort
LangName: 1033 "" "" "Regular" "Newtypography : Nobile : 22-5-2010" "" "Version 1.000;PS 001.000;hotconv 1.0.38" "" "Nobile is a trademark of vernon adams." "vernon adams" "" "Copyright (c) 2007-2010 by vernon adams. All rights reserved." 
GaspTable: 3 4 2 8 1 65535 3
Encoding: UnicodeBmp
Compacted: 1
UnicodeInterp: none
NameList: Adobe Glyph List
DisplaySize: -48
AntiAlias: 1
FitToEm: 1
WidthSeparation: 288
WinInfo: 0 19 13
BeginChars: 65540 224

StartChar: .notdef
Encoding: 65536 -1 0
Width: 832
Flags: HW
LayerCount: 2
Fore
SplineSet
144 0 m 1,0,-1
 144 1365 l 1,1,-1
 688 1365 l 1,2,-1
 688 0 l 1,3,-1
 144 0 l 1,0,-1
212 68 m 1,4,-1
 620 68 l 1,5,-1
 620 1297 l 1,6,-1
 212 1297 l 1,7,-1
 212 68 l 1,4,-1
EndSplineSet
Validated: 1
EndChar

StartChar: exclam
Encoding: 33 33 4
Width: 512
Flags: HW
LayerCount: 2
Fore
SplineSet
353 186 m 1,0,-1
 353 -16 l 1,1,-1
 144 -16 l 1,2,-1
 144 186 l 1,3,-1
 353 186 l 1,0,-1
368 399 m 1,4,-1
 194 399 l 1,5,-1
 194 1579 l 1,6,-1
 368 1579 l 1,7,-1
 368 399 l 1,4,-1
EndSplineSet
Validated: 1
EndChar

StartChar: quotedbl
Encoding: 34 34 5
Width: 854
Flags: HW
LayerCount: 2
Fore
SplineSet
482 1508 m 1,0,-1
 482 1579 l 1,1,-1
 710 1579 l 1,2,-1
 710 1508 l 1,3,-1
 650 1058 l 1,4,-1
 542 1058 l 1,5,-1
 482 1508 l 1,0,-1
144 1508 m 1,6,-1
 144 1579 l 1,7,-1
 372 1579 l 1,8,-1
 372 1508 l 1,9,-1
 312 1058 l 1,10,-1
 204 1058 l 1,11,-1
 144 1508 l 1,6,-1
EndSplineSet
Validated: 1
EndChar

StartChar: numbersign
Encoding: 35 35 6
Width: 1132
Flags: HW
LayerCount: 2
Fore
SplineSet
637 561 m 1,0,-1
 451 561 l 1,1,-1
 418 295 l 1,2,-1
 277 295 l 1,3,-1
 310 561 l 1,4,-1
 144 561 l 1,5,-1
 144 684 l 1,6,-1
 320 684 l 1,7,-1
 347 905 l 1,8,-1
 172 905 l 1,9,-1
 172 1030 l 1,10,-1
 361 1030 l 1,11,-1
 392 1309 l 1,12,-1
 531 1309 l 1,13,-1
 500 1030 l 1,14,-1
 689 1030 l 1,15,-1
 717 1307 l 1,16,-1
 859 1307 l 1,17,-1
 828 1030 l 1,18,-1
 988 1030 l 1,19,-1
 988 905 l 1,20,-1
 816 905 l 1,21,-1
 789 684 l 1,22,-1
 965 684 l 1,23,-1
 965 561 l 1,24,-1
 777 561 l 1,25,-1
 746 295 l 1,26,-1
 605 295 l 1,27,-1
 637 561 l 1,0,-1
463 684 m 1,28,-1
 646 684 l 1,29,-1
 672 905 l 1,30,-1
 490 905 l 1,31,-1
 463 684 l 1,28,-1
EndSplineSet
Validated: 1
EndChar

StartChar: dollar
Encoding: 36 36 7
Width: 1190
Flags: HW
LayerCount: 2
Fore
SplineSet
208 63 m 1,0,-1
 257 207 l 1,1,2
 268 203 268 203 283 197 c 0,3,4
 296 192 296 192 315 184.5 c 128,-1,5
 334 177 334 177 360 167 c 1,6,7
 415 153 415 153 464 143.5 c 128,-1,8
 513 134 513 134 557 129 c 1,9,-1
 557 572 l 1,10,-1
 451 595 l 2,11,12
 380 610 380 610 323.5 637 c 128,-1,13
 267 664 267 664 227 704.5 c 128,-1,14
 187 745 187 745 165.5 800.5 c 128,-1,15
 144 856 144 856 144 929 c 0,16,17
 144 971 144 971 155.5 1006 c 128,-1,18
 167 1041 167 1041 184.5 1070 c 128,-1,19
 202 1099 202 1099 223.5 1121 c 128,-1,20
 245 1143 245 1143 265 1159 c 0,21,22
 312 1195 312 1195 384 1216 c 128,-1,23
 456 1237 456 1237 557 1240 c 1,24,-1
 557 1390 l 1,25,-1
 660 1390 l 1,26,-1
 660 1236 l 1,27,28
 711 1235 711 1235 769 1227.5 c 128,-1,29
 827 1220 827 1220 876.5 1210.5 c 128,-1,30
 926 1201 926 1201 958.5 1190.5 c 128,-1,31
 991 1180 991 1180 991 1172 c 2,32,-1
 991 1171 l 1,33,-1
 939 1040 l 1,34,35
 934 1042 934 1042 929 1044 c 256,36,37
 924 1046 924 1046 917 1048 c 128,-1,38
 910 1050 910 1050 901 1054 c 1,39,-1
 860 1066 l 2,40,41
 810 1081 810 1081 810 1081 c 1,42,-1
 660 1098 l 1,43,-1
 660 709 l 1,44,-1
 692 698 l 1,45,46
 796 661 796 661 864 623 c 128,-1,47
 932 585 932 585 972.5 542 c 128,-1,48
 1013 499 1013 499 1029.5 449.5 c 128,-1,49
 1046 400 1046 400 1046 340 c 0,50,51
 1046 244 1046 244 1013.5 178 c 128,-1,52
 981 112 981 112 927 71 c 128,-1,53
 873 30 873 30 803.5 9 c 128,-1,54
 734 -12 734 -12 660 -18 c 1,55,-1
 660 -178 l 1,56,-1
 557 -178 l 1,57,-1
 557 -20 l 1,58,59
 432 -11 432 -11 354 15 c 2,60,-1
 208 63 l 1,0,-1
660 539 m 1,61,-1
 660 134 l 1,62,63
 710 135 710 135 751 149.5 c 128,-1,64
 792 164 792 164 821 190 c 128,-1,65
 850 216 850 216 865.5 251.5 c 128,-1,66
 881 287 881 287 881 329 c 0,67,68
 881 372 881 372 864.5 404.5 c 128,-1,69
 848 437 848 437 819.5 461 c 128,-1,70
 791 485 791 485 752 503 c 128,-1,71
 713 521 713 521 668 536 c 1,72,-1
 660 539 l 1,61,-1
557 745 m 1,73,-1
 557 1100 l 1,74,75
 508 1100 508 1100 473.5 1096 c 128,-1,76
 439 1092 439 1092 415 1084.5 c 128,-1,77
 391 1077 391 1077 375.5 1066 c 128,-1,78
 360 1055 360 1055 349 1042 c 0,79,80
 307 990 307 990 307 924 c 0,81,82
 307 898 307 898 315.5 876 c 128,-1,83
 324 854 324 854 344.5 834 c 128,-1,84
 365 814 365 814 398 795.5 c 128,-1,85
 431 777 431 777 481 759 c 1,86,-1
 557 745 l 1,73,-1
EndSplineSet
Validated: 1
EndChar

StartChar: percent
Encoding: 37 37 8
Width: 1841
Flags: HW
LayerCount: 2
Fore
SplineSet
1188 393 m 0,0,1
 1188 692 1188 692 1376 692 c 256,2,3
 1564 692 1564 692 1564 393 c 0,4,5
 1564 312 1564 312 1551.5 254 c 128,-1,6
 1539 196 1539 196 1515 159.5 c 128,-1,7
 1491 123 1491 123 1456 106 c 128,-1,8
 1421 89 1421 89 1376 89 c 256,9,10
 1331 89 1331 89 1296 106 c 128,-1,11
 1261 123 1261 123 1237 159.5 c 128,-1,12
 1213 196 1213 196 1200.5 254 c 128,-1,13
 1188 312 1188 312 1188 393 c 0,0,1
1055 372 m 0,14,15
 1055 333 1055 333 1061 288.5 c 128,-1,16
 1067 244 1067 244 1081 201 c 128,-1,17
 1095 158 1095 158 1118.5 118 c 128,-1,18
 1142 78 1142 78 1177.5 47.5 c 128,-1,19
 1213 17 1213 17 1262 -1.5 c 128,-1,20
 1311 -20 1311 -20 1376 -21 c 1,21,22
 1442 -21 1442 -21 1491.5 -2 c 128,-1,23
 1541 17 1541 17 1576.5 49 c 128,-1,24
 1612 81 1612 81 1635.5 121.5 c 128,-1,25
 1659 162 1659 162 1672.5 206 c 128,-1,26
 1686 250 1686 250 1691.5 293 c 128,-1,27
 1697 336 1697 336 1697 372 c 0,28,29
 1697 481 1697 481 1675 561 c 128,-1,30
 1653 641 1653 641 1611.5 693.5 c 128,-1,31
 1570 746 1570 746 1510.5 771 c 128,-1,32
 1451 796 1451 796 1376 796 c 256,33,34
 1301 796 1301 796 1241.5 771 c 128,-1,35
 1182 746 1182 746 1140.5 693.5 c 128,-1,36
 1099 641 1099 641 1077 561 c 128,-1,37
 1055 481 1055 481 1055 372 c 0,14,15
277 1092 m 0,38,39
 277 1391 277 1391 465 1391 c 256,40,41
 653 1391 653 1391 653 1092 c 0,42,43
 653 1011 653 1011 640.5 953 c 128,-1,44
 628 895 628 895 604 858.5 c 128,-1,45
 580 822 580 822 545 805 c 128,-1,46
 510 788 510 788 465 788 c 256,47,48
 420 788 420 788 385 805 c 128,-1,49
 350 822 350 822 326 858.5 c 128,-1,50
 302 895 302 895 289.5 953 c 128,-1,51
 277 1011 277 1011 277 1092 c 0,38,39
144 1071 m 0,52,53
 144 1032 144 1032 150 987.5 c 128,-1,54
 156 943 156 943 170 900 c 128,-1,55
 184 857 184 857 207.5 817 c 128,-1,56
 231 777 231 777 266.5 746.5 c 128,-1,57
 302 716 302 716 351 697.5 c 128,-1,58
 400 679 400 679 465 678 c 1,59,60
 531 678 531 678 580.5 697 c 128,-1,61
 630 716 630 716 665.5 748 c 128,-1,62
 701 780 701 780 724.5 820.5 c 128,-1,63
 748 861 748 861 761.5 905 c 128,-1,64
 775 949 775 949 780.5 992 c 128,-1,65
 786 1035 786 1035 786 1071 c 0,66,67
 786 1180 786 1180 764 1260 c 128,-1,68
 742 1340 742 1340 700.5 1392.5 c 128,-1,69
 659 1445 659 1445 599.5 1470 c 128,-1,70
 540 1495 540 1495 465 1495 c 256,71,72
 390 1495 390 1495 330.5 1470 c 128,-1,73
 271 1445 271 1445 229.5 1392.5 c 128,-1,74
 188 1340 188 1340 166 1260 c 128,-1,75
 144 1180 144 1180 144 1071 c 0,52,53
510 37 m 1,76,-1
 1192 1497 l 1,77,-1
 1321 1430 l 1,78,-1
 640 -22 l 1,79,-1
 510 37 l 1,76,-1
EndSplineSet
Validated: 9
EndChar

StartChar: ampersand
Encoding: 38 38 9
Width: 1713
Flags: HW
LayerCount: 2
Fore
SplineSet
916 1119 m 0,0,1
 916 1165 916 1165 899 1200.5 c 128,-1,2
 882 1236 882 1236 850.5 1260.5 c 128,-1,3
 819 1285 819 1285 774.5 1297.5 c 128,-1,4
 730 1310 730 1310 675 1310 c 0,5,6
 619 1310 619 1310 577.5 1300.5 c 128,-1,7
 536 1291 536 1291 507.5 1270 c 128,-1,8
 479 1249 479 1249 462.5 1215 c 128,-1,9
 446 1181 446 1181 442 1131 c 1,10,-1
 442 1121 l 2,11,12
 442 1087 442 1087 455.5 1056.5 c 128,-1,13
 469 1026 469 1026 490 1000 c 128,-1,14
 511 974 511 974 534.5 952.5 c 128,-1,15
 558 931 558 931 579 915.5 c 128,-1,16
 600 900 600 900 613.5 891.5 c 128,-1,17
 627 883 627 883 627 883 c 1,18,19
 711 908 711 908 766.5 930 c 128,-1,20
 822 952 822 952 855 977.5 c 128,-1,21
 888 1003 888 1003 902 1036.5 c 128,-1,22
 916 1070 916 1070 916 1119 c 0,0,1
711 -39 m 0,23,24
 577 -39 577 -39 471.5 -8.5 c 128,-1,25
 366 22 366 22 293.5 79 c 128,-1,26
 221 136 221 136 182.5 216.5 c 128,-1,27
 144 297 144 297 144 396 c 0,28,29
 144 558 144 558 226 665.5 c 128,-1,30
 308 773 308 773 478 822 c 1,31,32
 478 822 478 822 463 832.5 c 128,-1,33
 448 843 448 843 425.5 862 c 128,-1,34
 403 881 403 881 377 907.5 c 128,-1,35
 351 934 351 934 328.5 966.5 c 128,-1,36
 306 999 306 999 291 1036 c 128,-1,37
 276 1073 276 1073 276 1113 c 0,38,39
 276 1187 276 1187 302.5 1248 c 128,-1,40
 329 1309 329 1309 380 1353 c 128,-1,41
 431 1397 431 1397 505.5 1421 c 128,-1,42
 580 1445 580 1445 675 1445 c 0,43,44
 774 1445 774 1445 849 1419.5 c 128,-1,45
 924 1394 924 1394 974.5 1350 c 128,-1,46
 1025 1306 1025 1306 1050.5 1245.5 c 128,-1,47
 1076 1185 1076 1185 1076 1115 c 0,48,49
 1076 1043 1076 1043 1052 992 c 128,-1,50
 1028 941 1028 941 982 903 c 128,-1,51
 936 865 936 865 869 836.5 c 128,-1,52
 802 808 802 808 717 781 c 1,53,-1
 1212 391 l 1,54,55
 1219 494 1219 494 1222.5 594.5 c 128,-1,56
 1226 695 1226 695 1226 796 c 1,57,-1
 1390 796 l 1,58,59
 1390 734 1390 734 1386.5 666 c 128,-1,60
 1383 598 1383 598 1377.5 536 c 128,-1,61
 1372 474 1372 474 1366 422.5 c 128,-1,62
 1360 371 1360 371 1355 341 c 2,63,-1
 1343 277 l 1,64,-1
 1569 95 l 1,65,-1
 1483 -7 l 1,66,-1
 1272 170 l 1,67,68
 1243 115 1243 115 1181.5 75.5 c 128,-1,69
 1120 36 1120 36 1041.5 10.5 c 128,-1,70
 963 -15 963 -15 876.5 -27 c 128,-1,71
 790 -39 790 -39 711 -39 c 0,23,24
326 418 m 0,72,73
 326 334 326 334 347 274 c 128,-1,74
 368 214 368 214 414 175 c 128,-1,75
 460 136 460 136 533.5 118 c 128,-1,76
 607 100 607 100 711 100 c 0,77,78
 1061 100 1061 100 1160 256 c 1,79,-1
 572 726 l 1,80,81
 326 673 326 673 326 418 c 0,72,73
EndSplineSet
Validated: 1
EndChar

StartChar: quotesingle
Encoding: 39 39 10
Width: 516
Flags: HW
LayerCount: 2
Fore
SplineSet
144 1508 m 1,0,-1
 144 1579 l 1,1,-1
 372 1579 l 1,2,-1
 372 1508 l 1,3,-1
 312 1058 l 1,4,-1
 204 1058 l 1,5,-1
 144 1508 l 1,0,-1
EndSplineSet
Validated: 1
EndChar

StartChar: parenleft
Encoding: 40 40 11
Width: 776
Flags: HW
LayerCount: 2
Fore
SplineSet
632 1493 m 1,0,1
 591 1457 591 1457 539 1389 c 128,-1,2
 487 1321 487 1321 440.5 1221 c 128,-1,3
 394 1121 394 1121 362 989 c 128,-1,4
 330 857 330 857 330 694 c 256,5,6
 330 531 330 531 359.5 398.5 c 128,-1,7
 389 266 389 266 432.5 166.5 c 128,-1,8
 476 67 476 67 526 0.5 c 128,-1,9
 576 -66 576 -66 616 -97 c 1,10,-1
 533 -205 l 1,11,12
 508 -189 508 -189 469.5 -154.5 c 128,-1,13
 431 -120 431 -120 387.5 -66.5 c 128,-1,14
 344 -13 344 -13 301 60 c 128,-1,15
 258 133 258 133 223 227.5 c 128,-1,16
 188 322 188 322 166 439 c 128,-1,17
 144 556 144 556 144 696 c 0,18,19
 144 824 144 824 163 934.5 c 128,-1,20
 182 1045 182 1045 213.5 1137 c 128,-1,21
 245 1229 245 1229 285 1303.5 c 128,-1,22
 325 1378 325 1378 367 1435 c 128,-1,23
 409 1492 409 1492 449 1532 c 128,-1,24
 489 1572 489 1572 521 1595 c 1,25,-1
 632 1493 l 1,0,1
EndSplineSet
Validated: 1
EndChar

StartChar: parenright
Encoding: 41 41 12
Width: 777
Flags: HW
LayerCount: 2
Fore
SplineSet
446 694 m 0,0,1
 446 854 446 854 417.5 985.5 c 128,-1,2
 389 1117 389 1117 346 1217.5 c 128,-1,3
 303 1318 303 1318 253 1387 c 128,-1,4
 203 1456 203 1456 161 1491 c 1,5,-1
 244 1599 l 1,6,7
 257 1590 257 1590 291.5 1561.5 c 128,-1,8
 326 1533 326 1533 369 1483.5 c 128,-1,9
 412 1434 412 1434 458.5 1362 c 128,-1,10
 505 1290 505 1290 544 1194.5 c 128,-1,11
 583 1099 583 1099 608 978 c 128,-1,12
 633 857 633 857 633 710 c 0,13,14
 633 572 633 572 613.5 457 c 128,-1,15
 594 342 594 342 562 248 c 128,-1,16
 530 154 530 154 488.5 80 c 128,-1,17
 447 6 447 6 404 -49.5 c 128,-1,18
 361 -105 361 -105 319 -143.5 c 128,-1,19
 277 -182 277 -182 244 -205 c 1,20,-1
 144 -99 l 1,21,22
 186 -63 186 -63 238 6 c 128,-1,23
 290 75 290 75 336.5 175.5 c 128,-1,24
 383 276 383 276 414.5 406 c 128,-1,25
 446 536 446 536 446 694 c 0,0,1
EndSplineSet
Validated: 1
EndChar

StartChar: asterisk
Encoding: 42 42 13
Width: 1078
Flags: HW
LayerCount: 2
Fore
SplineSet
539 1292 m 1,0,-1
 678 1567 l 1,1,-1
 781 1509 l 1,2,-1
 623 1237 l 1,3,-1
 934 1237 l 1,4,-1
 934 1145 l 1,5,-1
 625 1145 l 1,6,-1
 795 872 l 1,7,-1
 693 815 l 1,8,-1
 539 1090 l 1,9,-1
 385 815 l 1,10,-1
 283 872 l 1,11,-1
 453 1145 l 1,12,-1
 144 1145 l 1,13,-1
 144 1237 l 1,14,-1
 455 1237 l 1,15,-1
 297 1509 l 1,16,-1
 400 1567 l 1,17,-1
 539 1292 l 1,0,-1
EndSplineSet
Validated: 1
EndChar

StartChar: plus
Encoding: 43 43 14
Width: 1056
Flags: HW
LayerCount: 2
Fore
SplineSet
912 518 m 1,0,-1
 598 518 l 1,1,-1
 598 174 l 1,2,-1
 457 174 l 1,3,-1
 457 518 l 1,4,-1
 144 518 l 1,5,-1
 144 651 l 1,6,-1
 457 651 l 1,7,-1
 457 995 l 1,8,-1
 598 995 l 1,9,-1
 598 651 l 1,10,-1
 912 651 l 1,11,-1
 912 518 l 1,0,-1
EndSplineSet
Validated: 1
EndChar

StartChar: comma
Encoding: 44 44 15
Width: 569
Flags: HW
LayerCount: 2
Fore
SplineSet
144 0 m 1,0,-1
 144 293 l 1,1,-1
 425 293 l 1,2,-1
 425 44 l 2,3,4
 425 -71 425 -71 366.5 -146 c 128,-1,5
 308 -221 308 -221 196 -253 c 1,6,-1
 145 -159 l 1,7,8
 183 -146 183 -146 208 -132 c 128,-1,9
 233 -118 233 -118 248 -99 c 128,-1,10
 263 -80 263 -80 269 -56 c 128,-1,11
 275 -32 275 -32 275 0 c 1,12,-1
 144 0 l 1,0,-1
EndSplineSet
Validated: 1
EndChar

StartChar: hyphen
Encoding: 45 45 16
Width: 964
Flags: HW
LayerCount: 2
Fore
SplineSet
820 508 m 1,0,-1
 144 508 l 1,1,-1
 144 665 l 1,2,-1
 820 665 l 1,3,-1
 820 508 l 1,0,-1
EndSplineSet
Validated: 1
EndChar

StartChar: period
Encoding: 46 46 17
Width: 508
Flags: HW
LayerCount: 2
Fore
SplineSet
256 213 m 0,0,1
 304 213 304 213 334 179.5 c 128,-1,2
 364 146 364 146 364 98 c 256,3,4
 364 50 364 50 334 16.5 c 128,-1,5
 304 -17 304 -17 256 -17 c 0,6,7
 231 -17 231 -17 210.5 -8 c 128,-1,8
 190 1 190 1 175 17 c 128,-1,9
 160 33 160 33 152 54 c 128,-1,10
 144 75 144 75 144 98 c 256,11,12
 144 121 144 121 152 142 c 128,-1,13
 160 163 160 163 175 178.5 c 128,-1,14
 190 194 190 194 210.5 203.5 c 128,-1,15
 231 213 231 213 256 213 c 0,0,1
EndSplineSet
Validated: 1
EndChar

StartChar: slash
Encoding: 47 47 18
Width: 1082
Flags: HW
LayerCount: 2
Fore
SplineSet
144 -117 m 1,0,-1
 769 1731 l 1,1,-1
 938 1669 l 1,2,-1
 314 -179 l 1,3,-1
 144 -117 l 1,0,-1
EndSplineSet
Validated: 1
EndChar

StartChar: zero
Encoding: 48 48 19
Width: 1426
Flags: HW
LayerCount: 2
Fore
SplineSet
711 1069 m 0,0,1
 598 1069 598 1069 524.5 1028 c 128,-1,2
 451 987 451 987 407.5 920 c 128,-1,3
 364 853 364 853 347 767.5 c 128,-1,4
 330 682 330 682 330 592 c 0,5,6
 330 491 330 491 347 416 c 128,-1,7
 364 341 364 341 393 287.5 c 128,-1,8
 422 234 422 234 460.5 199.5 c 128,-1,9
 499 165 499 165 541 145.5 c 128,-1,10
 583 126 583 126 627 118.5 c 128,-1,11
 671 111 671 111 711 111 c 0,12,13
 789 111 789 111 847.5 131 c 128,-1,14
 906 151 906 151 949 185.5 c 128,-1,15
 992 220 992 220 1020 267.5 c 128,-1,16
 1048 315 1048 315 1065 370 c 128,-1,17
 1082 425 1082 425 1089 485 c 128,-1,18
 1096 545 1096 545 1096 606 c 0,19,20
 1096 657 1096 657 1089 711.5 c 128,-1,21
 1082 766 1082 766 1065.5 817.5 c 128,-1,22
 1049 869 1049 869 1021 914.5 c 128,-1,23
 993 960 993 960 950 994.5 c 128,-1,24
 907 1029 907 1029 848 1049 c 128,-1,25
 789 1069 789 1069 711 1069 c 0,0,1
1282 590 m 0,26,27
 1282 462 1282 462 1246.5 349 c 128,-1,28
 1211 236 1211 236 1139.5 151.5 c 128,-1,29
 1068 67 1068 67 961 18 c 128,-1,30
 854 -31 854 -31 711 -31 c 0,31,32
 598 -31 598 -31 512 -1.5 c 128,-1,33
 426 28 426 28 363 77.5 c 128,-1,34
 300 127 300 127 258 191.5 c 128,-1,35
 216 256 216 256 190.5 325 c 128,-1,36
 165 394 165 394 154.5 462.5 c 128,-1,37
 144 531 144 531 144 590 c 0,38,39
 144 723 144 723 180 836.5 c 128,-1,40
 216 950 216 950 287 1033 c 128,-1,41
 358 1116 358 1116 464 1163 c 128,-1,42
 570 1210 570 1210 711 1210 c 0,43,44
 824 1210 824 1210 910.5 1181.5 c 128,-1,45
 997 1153 997 1153 1060.5 1104.5 c 128,-1,46
 1124 1056 1124 1056 1166.5 993 c 128,-1,47
 1209 930 1209 930 1234.5 861 c 128,-1,48
 1260 792 1260 792 1271 722 c 128,-1,49
 1282 652 1282 652 1282 590 c 0,26,27
EndSplineSet
Validated: 1
EndChar

StartChar: one
Encoding: 49 49 20
Width: 735
Flags: HW
LayerCount: 2
Fore
SplineSet
404 0 m 1,0,-1
 404 1057 l 1,1,-1
 197 957 l 1,2,-1
 144 1083 l 1,3,-1
 401 1202 l 1,4,-1
 591 1202 l 1,5,-1
 591 0 l 1,6,-1
 404 0 l 1,0,-1
EndSplineSet
Validated: 1
EndChar

StartChar: two
Encoding: 50 50 21
Width: 1103
Flags: HW
LayerCount: 2
Fore
SplineSet
363 152 m 1,0,-1
 959 152 l 1,1,-1
 959 0 l 1,2,-1
 144 0 l 1,3,-1
 144 146 l 1,4,-1
 552 480 l 2,5,6
 628 543 628 543 675.5 591.5 c 128,-1,7
 723 640 723 640 750 681.5 c 128,-1,8
 777 723 777 723 787 762 c 128,-1,9
 797 801 797 801 797 846 c 0,10,11
 797 949 797 949 725.5 1004 c 128,-1,12
 654 1059 654 1059 521 1059 c 0,13,14
 494 1059 494 1059 461.5 1054 c 128,-1,15
 429 1049 429 1049 397.5 1041.5 c 128,-1,16
 366 1034 366 1034 338.5 1025.5 c 128,-1,17
 311 1017 311 1017 293 1009 c 2,18,-1
 256 992 l 1,19,-1
 203 1108 l 1,20,21
 203 1108 203 1108 223 1122.5 c 128,-1,22
 243 1137 243 1137 284.5 1153.5 c 128,-1,23
 326 1170 326 1170 390 1184 c 128,-1,24
 454 1198 454 1198 543 1198 c 0,25,26
 626 1198 626 1198 689.5 1183.5 c 128,-1,27
 753 1169 753 1169 799 1143.5 c 128,-1,28
 845 1118 845 1118 876 1083.5 c 128,-1,29
 907 1049 907 1049 925.5 1010 c 128,-1,30
 944 971 944 971 951.5 928.5 c 128,-1,31
 959 886 959 886 959 845 c 0,32,33
 959 790 959 790 945 737.5 c 128,-1,34
 931 685 931 685 895 629 c 128,-1,35
 859 573 859 573 797.5 511 c 128,-1,36
 736 449 736 449 642 376 c 1,37,-1
 363 152 l 1,0,-1
EndSplineSet
Validated: 1
EndChar

StartChar: three
Encoding: 51 51 22
Width: 1161
Flags: HW
LayerCount: 2
Fore
SplineSet
813 843 m 0,0,1
 813 958 813 958 742 1010.5 c 128,-1,2
 671 1063 671 1063 524 1063 c 0,3,4
 489 1063 489 1063 450.5 1058 c 128,-1,5
 412 1053 412 1053 377 1045 c 128,-1,6
 342 1037 342 1037 312.5 1028 c 128,-1,7
 283 1019 283 1019 265 1010 c 2,8,-1
 227 992 l 1,9,-1
 177 1125 l 1,10,-1
 228 1147 l 2,11,12
 242 1153 242 1153 276.5 1163 c 128,-1,13
 311 1173 311 1173 354.5 1182.5 c 128,-1,14
 398 1192 398 1192 444.5 1199 c 128,-1,15
 491 1206 491 1206 530 1206 c 0,16,17
 574 1206 574 1206 624 1200.5 c 128,-1,18
 674 1195 674 1195 724 1180.5 c 128,-1,19
 774 1166 774 1166 820 1141.5 c 128,-1,20
 866 1117 866 1117 901 1079 c 128,-1,21
 936 1041 936 1041 957 988.5 c 128,-1,22
 978 936 978 936 978 866 c 0,23,24
 978 806 978 806 963 759 c 128,-1,25
 948 712 948 712 923.5 676 c 128,-1,26
 899 640 899 640 868 615.5 c 128,-1,27
 837 591 837 591 805 575 c 128,-1,28
 773 559 773 559 742.5 552 c 128,-1,29
 712 545 712 545 689 545 c 1,30,31
 732 536 732 536 788.5 514.5 c 128,-1,32
 845 493 845 493 896 450 c 128,-1,33
 947 407 947 407 982 338 c 128,-1,34
 1017 269 1017 269 1017 166 c 0,35,36
 1017 71 1017 71 975.5 2.5 c 128,-1,37
 934 -66 934 -66 867.5 -110.5 c 128,-1,38
 801 -155 801 -155 717 -176.5 c 128,-1,39
 633 -198 633 -198 549 -198 c 0,40,41
 499 -198 499 -198 446 -191 c 128,-1,42
 393 -184 393 -184 344.5 -173.5 c 128,-1,43
 296 -163 296 -163 256.5 -150 c 128,-1,44
 217 -137 217 -137 194 -126 c 2,45,-1
 144 -102 l 1,46,-1
 198 31 l 1,47,48
 200 30 200 30 230 15.5 c 128,-1,49
 260 1 260 1 308.5 -15.5 c 128,-1,50
 357 -32 357 -32 420.5 -45.5 c 128,-1,51
 484 -59 484 -59 553 -59 c 0,52,53
 693 -59 693 -59 765 3.5 c 128,-1,54
 837 66 837 66 837 186 c 0,55,56
 837 433 837 433 501 471 c 1,57,-1
 501 614 l 1,58,59
 559 614 559 614 615 625 c 128,-1,60
 671 636 671 636 715 662 c 128,-1,61
 759 688 759 688 786 732.5 c 128,-1,62
 813 777 813 777 813 843 c 0,0,1
EndSplineSet
Validated: 1
EndChar

StartChar: four
Encoding: 52 52 23
Width: 1320
Flags: HW
LayerCount: 2
Fore
SplineSet
828 1208 m 1,0,-1
 990 1169 l 1,1,-1
 990 207 l 1,2,-1
 1176 207 l 1,3,-1
 1176 68 l 1,4,-1
 990 68 l 1,5,-1
 990 -260 l 1,6,-1
 819 -260 l 1,7,-1
 819 68 l 1,8,-1
 172 68 l 1,9,-1
 144 205 l 1,10,-1
 828 1208 l 1,0,-1
819 930 m 1,11,-1
 329 205 l 1,12,-1
 819 205 l 1,13,-1
 819 930 l 1,11,-1
EndSplineSet
Validated: 1
EndChar

StartChar: five
Encoding: 53 53 24
Width: 1160
Flags: HW
LayerCount: 2
Fore
SplineSet
527 -56 m 0,0,1
 844 -56 844 -56 844 244 c 0,2,3
 844 395 844 395 767.5 478.5 c 128,-1,4
 691 562 691 562 547 562 c 0,5,6
 440 562 440 562 248 468 c 1,7,-1
 180 537 l 1,8,-1
 180 1169 l 1,9,-1
 928 1169 l 1,10,-1
 928 1018 l 1,11,-1
 325 1018 l 1,12,-1
 325 622 l 2,13,14
 325 621 325 621 338.5 633 c 128,-1,15
 352 645 352 645 381 659.5 c 128,-1,16
 410 674 410 674 455.5 686 c 128,-1,17
 501 698 501 698 565 698 c 0,18,19
 665 698 665 698 748 666 c 128,-1,20
 831 634 831 634 890.5 575.5 c 128,-1,21
 950 517 950 517 983 434 c 128,-1,22
 1016 351 1016 351 1016 248 c 0,23,24
 1016 143 1016 143 982 59 c 128,-1,25
 948 -25 948 -25 884.5 -84.5 c 128,-1,26
 821 -144 821 -144 730 -175.5 c 128,-1,27
 639 -207 639 -207 525 -207 c 0,28,29
 444 -207 444 -207 374.5 -192 c 128,-1,30
 305 -177 305 -177 253.5 -159 c 128,-1,31
 202 -141 202 -141 173 -127 c 128,-1,32
 144 -113 144 -113 144 -115 c 2,33,-1
 195 31 l 1,34,-1
 201 28 l 2,35,36
 213 22 213 22 245 8 c 128,-1,37
 277 -6 277 -6 322 -20 c 128,-1,38
 367 -34 367 -34 420 -45 c 128,-1,39
 473 -56 473 -56 527 -56 c 0,0,1
EndSplineSet
Validated: 5
EndChar

StartChar: six
Encoding: 54 54 25
Width: 1293
Flags: HW
LayerCount: 2
Fore
SplineSet
973 335 m 0,0,1
 973 417 973 417 950 477.5 c 128,-1,2
 927 538 927 538 887.5 578 c 128,-1,3
 848 618 848 618 795.5 637.5 c 128,-1,4
 743 657 743 657 683 657 c 0,5,6
 625 657 625 657 567.5 642 c 128,-1,7
 510 627 510 627 461.5 606 c 128,-1,8
 413 585 413 585 377.5 562 c 128,-1,9
 342 539 342 539 328 523 c 1,10,11
 322 485 322 485 322 401 c 0,12,13
 322 356 322 356 327 307.5 c 128,-1,14
 332 259 332 259 345.5 212.5 c 128,-1,15
 359 166 359 166 382.5 125 c 128,-1,16
 406 84 406 84 442.5 53 c 128,-1,17
 479 22 479 22 529.5 4 c 128,-1,18
 580 -14 580 -14 649 -14 c 0,19,20
 738 -14 738 -14 800 18 c 128,-1,21
 862 50 862 50 900.5 100.5 c 128,-1,22
 939 151 939 151 956 213 c 128,-1,23
 973 275 973 275 973 335 c 0,0,1
144 425 m 0,24,25
 144 554 144 554 171.5 664.5 c 128,-1,26
 199 775 199 775 247.5 867.5 c 128,-1,27
 296 960 296 960 363 1034 c 128,-1,28
 430 1108 430 1108 509.5 1164 c 128,-1,29
 589 1220 589 1220 677.5 1258.5 c 128,-1,30
 766 1297 766 1297 859 1319 c 1,31,-1
 902 1174 l 1,32,33
 850 1163 850 1163 792 1142.5 c 128,-1,34
 734 1122 734 1122 677 1091 c 128,-1,35
 620 1060 620 1060 566 1018 c 128,-1,36
 512 976 512 976 467 921.5 c 128,-1,37
 422 867 422 867 389.5 799 c 128,-1,38
 357 731 357 731 342 649 c 1,39,40
 463 793 463 793 683 793 c 0,41,42
 791 793 791 793 877 759 c 128,-1,43
 963 725 963 725 1023.5 664.5 c 128,-1,44
 1084 604 1084 604 1116.5 519.5 c 128,-1,45
 1149 435 1149 435 1149 335 c 256,46,47
 1149 235 1149 235 1116.5 145.5 c 128,-1,48
 1084 56 1084 56 1021 -11 c 128,-1,49
 958 -78 958 -78 864.5 -117 c 128,-1,50
 771 -156 771 -156 649 -156 c 0,51,52
 525 -156 525 -156 430.5 -115 c 128,-1,53
 336 -74 336 -74 272.5 1.5 c 128,-1,54
 209 77 209 77 176.5 184.5 c 128,-1,55
 144 292 144 292 144 425 c 0,24,25
EndSplineSet
Validated: 1
EndChar

StartChar: seven
Encoding: 55 55 26
Width: 1181
Flags: HW
LayerCount: 2
Fore
SplineSet
980 1229 m 1,0,-1
 1037 1107 l 1,1,-1
 465 -176 l 1,2,-1
 297 -100 l 1,3,-1
 822 1074 l 1,4,-1
 144 1074 l 1,5,-1
 144 1229 l 1,6,-1
 980 1229 l 1,0,-1
EndSplineSet
Validated: 1
EndChar

StartChar: eight
Encoding: 56 56 27
Width: 1234
Flags: HW
LayerCount: 2
Fore
SplineSet
623 1334 m 0,0,1
 723 1334 723 1334 809 1309.5 c 128,-1,2
 895 1285 895 1285 957 1238 c 128,-1,3
 1019 1191 1019 1191 1054.5 1122.5 c 128,-1,4
 1090 1054 1090 1054 1090 966 c 0,5,6
 1090 894 1090 894 1067.5 839.5 c 128,-1,7
 1045 785 1045 785 1008 745 c 128,-1,8
 971 705 971 705 924 678 c 128,-1,9
 877 651 877 651 828 634 c 1,10,11
 953 595 953 595 1021.5 492.5 c 128,-1,12
 1090 390 1090 390 1090 231 c 0,13,14
 1090 137 1090 137 1055.5 66 c 128,-1,15
 1021 -5 1021 -5 959 -52.5 c 128,-1,16
 897 -100 897 -100 811.5 -124 c 128,-1,17
 726 -148 726 -148 623 -148 c 0,18,19
 524 -148 524 -148 437 -125 c 128,-1,20
 350 -102 350 -102 284.5 -55 c 128,-1,21
 219 -8 219 -8 181.5 63.5 c 128,-1,22
 144 135 144 135 144 233 c 0,23,24
 144 392 144 392 212.5 494.5 c 128,-1,25
 281 597 281 597 406 636 c 1,26,27
 358 652 358 652 311.5 678.5 c 128,-1,28
 265 705 265 705 227.5 745 c 128,-1,29
 190 785 190 785 167 840 c 128,-1,30
 144 895 144 895 144 968 c 0,31,32
 144 1056 144 1056 180.5 1124 c 128,-1,33
 217 1192 217 1192 281.5 1238.5 c 128,-1,34
 346 1285 346 1285 433.5 1309.5 c 128,-1,35
 521 1334 521 1334 623 1334 c 0,0,1
623 -9 m 0,36,37
 710 -9 710 -9 766 9 c 128,-1,38
 822 27 822 27 854.5 61 c 128,-1,39
 887 95 887 95 899.5 143.5 c 128,-1,40
 912 192 912 192 912 253 c 0,41,42
 912 322 912 322 890.5 380.5 c 128,-1,43
 869 439 869 439 830.5 482.5 c 128,-1,44
 792 526 792 526 739 550.5 c 128,-1,45
 686 575 686 575 623 575 c 0,46,47
 558 575 558 575 503 551 c 128,-1,48
 448 527 448 527 408 484.5 c 128,-1,49
 368 442 368 442 345 383 c 128,-1,50
 322 324 322 324 322 255 c 0,51,52
 322 191 322 191 337 142 c 128,-1,53
 352 93 352 93 387.5 59.5 c 128,-1,54
 423 26 423 26 480.5 8.5 c 128,-1,55
 538 -9 538 -9 623 -9 c 0,36,37
623 691 m 0,56,57
 681 691 681 691 733.5 711.5 c 128,-1,58
 786 732 786 732 826 769 c 128,-1,59
 866 806 866 806 889 855.5 c 128,-1,60
 912 905 912 905 912 964 c 0,61,62
 912 1032 912 1032 888 1077.5 c 128,-1,63
 864 1123 864 1123 823.5 1150 c 128,-1,64
 783 1177 783 1177 731 1188 c 128,-1,65
 679 1199 679 1199 623 1199 c 0,66,67
 570 1199 570 1199 516.5 1189 c 128,-1,68
 463 1179 463 1179 419.5 1153 c 128,-1,69
 376 1127 376 1127 349 1081.5 c 128,-1,70
 322 1036 322 1036 322 966 c 0,71,72
 322 907 322 907 346.5 856.5 c 128,-1,73
 371 806 371 806 412.5 769.5 c 128,-1,74
 454 733 454 733 508.5 712 c 128,-1,75
 563 691 563 691 623 691 c 0,56,57
EndSplineSet
Validated: 1
EndChar

StartChar: nine
Encoding: 57 57 28
Width: 1293
Flags: HW
LayerCount: 2
Fore
SplineSet
320 823 m 0,0,1
 320 741 320 741 343 680.5 c 128,-1,2
 366 620 366 620 405.5 580 c 128,-1,3
 445 540 445 540 497.5 520.5 c 128,-1,4
 550 501 550 501 610 501 c 0,5,6
 668 501 668 501 725.5 515.5 c 128,-1,7
 783 530 783 530 831.5 551 c 128,-1,8
 880 572 880 572 915.5 595 c 128,-1,9
 951 618 951 618 965 635 c 1,10,11
 971 672 971 672 971 757 c 0,12,13
 971 802 971 802 966 850.5 c 128,-1,14
 961 899 961 899 947.5 945 c 128,-1,15
 934 991 934 991 910.5 1032.5 c 128,-1,16
 887 1074 887 1074 850.5 1105 c 128,-1,17
 814 1136 814 1136 763 1154 c 128,-1,18
 712 1172 712 1172 644 1172 c 0,19,20
 555 1172 555 1172 493.5 1140 c 128,-1,21
 432 1108 432 1108 393.5 1058 c 128,-1,22
 355 1008 355 1008 337.5 946 c 128,-1,23
 320 884 320 884 320 823 c 0,0,1
1149 733 m 0,24,25
 1149 605 1149 605 1122 495 c 128,-1,26
 1095 385 1095 385 1047 293 c 128,-1,27
 999 201 999 201 932.5 126.5 c 128,-1,28
 866 52 866 52 786.5 -4.5 c 128,-1,29
 707 -61 707 -61 617.5 -100 c 128,-1,30
 528 -139 528 -139 434 -161 c 1,31,-1
 391 -16 l 1,32,33
 445 -5 445 -5 503.5 16 c 128,-1,34
 562 37 562 37 619 68.5 c 128,-1,35
 676 100 676 100 729.5 142.5 c 128,-1,36
 783 185 783 185 827.5 239.5 c 128,-1,37
 872 294 872 294 904 361 c 128,-1,38
 936 428 936 428 951 509 c 1,39,40
 829 365 829 365 610 365 c 0,41,42
 502 365 502 365 415.5 398.5 c 128,-1,43
 329 432 329 432 268.5 493 c 128,-1,44
 208 554 208 554 176 638 c 128,-1,45
 144 722 144 722 144 823 c 0,46,47
 144 923 144 923 176.5 1012.5 c 128,-1,48
 209 1102 209 1102 272 1169 c 128,-1,49
 335 1236 335 1236 428.5 1275 c 128,-1,50
 522 1314 522 1314 644 1314 c 0,51,52
 768 1314 768 1314 862.5 1273 c 128,-1,53
 957 1232 957 1232 1020.5 1156.5 c 128,-1,54
 1084 1081 1084 1081 1116.5 973.5 c 128,-1,55
 1149 866 1149 866 1149 733 c 0,24,25
EndSplineSet
Validated: 1
EndChar

StartChar: colon
Encoding: 58 58 29
Width: 558
Flags: HW
LayerCount: 2
Fore
SplineSet
144 281 m 1,0,-1
 414 281 l 1,1,-1
 414 0 l 1,2,-1
 144 0 l 1,3,-1
 144 281 l 1,0,-1
144 864 m 1,4,-1
 414 864 l 1,5,-1
 414 583 l 1,6,-1
 144 583 l 1,7,-1
 144 864 l 1,4,-1
EndSplineSet
Validated: 1
EndChar

StartChar: semicolon
Encoding: 59 59 30
Width: 569
Flags: HW
LayerCount: 2
Fore
SplineSet
145 864 m 1,0,-1
 425 864 l 1,1,-1
 425 583 l 1,2,-1
 145 583 l 1,3,-1
 145 864 l 1,0,-1
144 0 m 1,4,-1
 144 293 l 1,5,-1
 425 293 l 1,6,-1
 425 44 l 2,7,8
 425 -71 425 -71 366.5 -146 c 128,-1,9
 308 -221 308 -221 196 -253 c 1,10,-1
 145 -159 l 1,11,12
 183 -146 183 -146 208 -132 c 128,-1,13
 233 -118 233 -118 248 -99 c 128,-1,14
 263 -80 263 -80 269 -56 c 128,-1,15
 275 -32 275 -32 275 0 c 1,16,-1
 144 0 l 1,4,-1
EndSplineSet
Validated: 1
EndChar

StartChar: less
Encoding: 60 60 31
Width: 1045
Flags: HW
LayerCount: 2
Fore
SplineSet
144 663 m 1,0,-1
 799 1266 l 1,1,-1
 901 1156 l 1,2,-1
 350 663 l 1,3,-1
 901 170 l 1,4,-1
 799 60 l 1,5,-1
 144 663 l 1,0,-1
EndSplineSet
Validated: 1
EndChar

StartChar: equal
Encoding: 61 61 32
Width: 876
Flags: HW
LayerCount: 2
Fore
SplineSet
732 508 m 1,0,-1
 144 508 l 1,1,-1
 144 639 l 1,2,-1
 732 639 l 1,3,-1
 732 508 l 1,0,-1
732 280 m 1,4,-1
 144 280 l 1,5,-1
 144 411 l 1,6,-1
 732 411 l 1,7,-1
 732 280 l 1,4,-1
EndSplineSet
Validated: 1
EndChar

StartChar: greater
Encoding: 62 62 33
Width: 1045
Flags: HW
LayerCount: 2
Fore
SplineSet
246 60 m 1,0,-1
 144 170 l 1,1,-1
 695 663 l 1,2,-1
 144 1156 l 1,3,-1
 246 1266 l 1,4,-1
 901 663 l 1,5,-1
 246 60 l 1,0,-1
EndSplineSet
Validated: 1
EndChar

StartChar: question
Encoding: 63 63 34
Width: 1177
Flags: HW
LayerCount: 2
Fore
SplineSet
499.03125 675 m 1,0,-1
 499.03125 292 l 1,1,-1
 319.03125 292 l 1,2,-1
 319.03125 777 l 1,3,4
 452.03125 822 452.03125 822 549.53125 865.5 c 128,-1,5
 647.03125 909 647.03125 909 711.03125 957.5 c 128,-1,6
 775.03125 1006 775.03125 1006 807.03125 1064 c 128,-1,7
 839.03125 1122 839.03125 1122 842.03125 1197 c 1,8,9
 842.03125 1258 842.03125 1258 824.03125 1300 c 128,-1,10
 806.03125 1342 806.03125 1342 768.03125 1368 c 128,-1,11
 730.03125 1394 730.03125 1394 671.53125 1406 c 128,-1,12
 613.03125 1418 613.03125 1418 531.03125 1418 c 0,13,14
 459.03125 1418 459.03125 1418 399.03125 1405 c 128,-1,15
 339.03125 1392 339.03125 1392 295.53125 1376.5 c 128,-1,16
 252.03125 1361 252.03125 1361 227.53125 1347 c 128,-1,17
 203.03125 1333 203.03125 1333 203.03125 1332 c 2,18,-1
 144.03125 1475 l 2,19,20
 143.03125 1475 143.03125 1475 174.53125 1491.5 c 128,-1,21
 206.03125 1508 206.03125 1508 261.53125 1527.5 c 128,-1,22
 317.03125 1547 317.03125 1547 391.53125 1563 c 128,-1,23
 466.03125 1579 466.03125 1579 550.03125 1579 c 0,24,25
 653.03125 1579 653.03125 1579 741.03125 1559.5 c 128,-1,26
 829.03125 1540 829.03125 1540 894.03125 1496.5 c 128,-1,27
 959.03125 1453 959.03125 1453 996.03125 1384 c 128,-1,28
 1033.03125 1315 1033.03125 1315 1033.03125 1216 c 0,29,30
 1033.03125 1116 1033.03125 1116 1000.53125 1040.5 c 128,-1,31
 968.03125 965 968.03125 965 915.03125 908 c 128,-1,32
 862.03125 851 862.03125 851 795.03125 809.5 c 128,-1,33
 728.03125 768 728.03125 768 658.03125 737 c 1,34,-1
 578.03125 704 l 2,35,36
 561.03125 697 561.03125 697 541.53125 690 c 128,-1,37
 522.03125 683 522.03125 683 499.03125 675 c 1,0,-1
400.03125 -40 m 0,38,39
 378.03125 -40 378.03125 -40 359.03125 -31.5 c 128,-1,40
 340.03125 -23 340.03125 -23 326.03125 -8 c 128,-1,41
 312.03125 7 312.03125 7 304.03125 27 c 128,-1,42
 296.03125 47 296.03125 47 296.03125 70 c 0,43,44
 296.03125 92 296.03125 92 305.53125 110 c 128,-1,45
 315.03125 128 315.03125 128 330.03125 141 c 128,-1,46
 345.03125 154 345.03125 154 364.53125 161.5 c 128,-1,47
 384.03125 169 384.03125 169 404.03125 169 c 0,48,49
 423.03125 169 423.03125 169 441.53125 160.5 c 128,-1,50
 460.03125 152 460.03125 152 474.03125 138 c 128,-1,51
 488.03125 124 488.03125 124 496.53125 104.5 c 128,-1,52
 505.03125 85 505.03125 85 505.03125 64 c 0,53,54
 505.03125 42 505.03125 42 496.53125 23 c 128,-1,55
 488.03125 4 488.03125 4 474.03125 -10 c 128,-1,56
 460.03125 -24 460.03125 -24 440.53125 -32 c 128,-1,57
 421.03125 -40 421.03125 -40 400.03125 -40 c 0,38,39
EndSplineSet
Validated: 524289
EndChar

StartChar: at
Encoding: 64 64 35
Width: 1949
Flags: HW
LayerCount: 2
Fore
SplineSet
1243 987 m 1,0,1
 1244 986 1244 986 1218 991.5 c 128,-1,2
 1192 997 1192 997 1149 1002 c 0,3,4
 1127 1004 1127 1004 1106.5 1006 c 128,-1,5
 1086 1008 1086 1008 1067 1008 c 0,6,7
 983 1008 983 1008 905.5 976.5 c 128,-1,8
 828 945 828 945 768.5 888 c 128,-1,9
 709 831 709 831 674 751 c 128,-1,10
 639 671 639 671 639 573 c 0,11,12
 639 330 639 330 864 330 c 0,13,14
 941 330 941 330 1009 363 c 128,-1,15
 1077 396 1077 396 1128 466 c 128,-1,16
 1179 536 1179 536 1209.5 645 c 128,-1,17
 1240 754 1240 754 1242 906 c 2,18,-1
 1243 987 l 1,0,1
1476 134 m 1,19,-1
 1567 42 l 1,20,21
 1527 -3 1527 -3 1467 -39 c 128,-1,22
 1407 -75 1407 -75 1331.5 -101 c 128,-1,23
 1256 -127 1256 -127 1167 -141 c 128,-1,24
 1078 -155 1078 -155 979 -155 c 0,25,26
 759 -155 759 -155 601 -96 c 128,-1,27
 443 -37 443 -37 341.5 63.5 c 128,-1,28
 240 164 240 164 192 297 c 128,-1,29
 144 430 144 430 144 578 c 0,30,31
 144 719 144 719 177.5 839.5 c 128,-1,32
 211 960 211 960 270 1057.5 c 128,-1,33
 329 1155 329 1155 410 1229.5 c 128,-1,34
 491 1304 491 1304 585.5 1354.5 c 128,-1,35
 680 1405 680 1405 784.5 1430.5 c 128,-1,36
 889 1456 889 1456 996 1456 c 0,37,38
 1104 1456 1104 1456 1206.5 1437.5 c 128,-1,39
 1309 1419 1309 1419 1399 1380.5 c 128,-1,40
 1489 1342 1489 1342 1563.5 1284.5 c 128,-1,41
 1638 1227 1638 1227 1691.5 1149.5 c 128,-1,42
 1745 1072 1745 1072 1775 973.5 c 128,-1,43
 1805 875 1805 875 1805 756 c 0,44,45
 1805 649 1805 649 1784 566 c 128,-1,46
 1763 483 1763 483 1727.5 421 c 128,-1,47
 1692 359 1692 359 1646.5 317 c 128,-1,48
 1601 275 1601 275 1552 248.5 c 128,-1,49
 1503 222 1503 222 1454 210.5 c 128,-1,50
 1405 199 1405 199 1364 199 c 0,51,52
 1329 199 1329 199 1309.5 208.5 c 128,-1,53
 1290 218 1290 218 1279.5 234 c 128,-1,54
 1269 250 1269 250 1266.5 271 c 128,-1,55
 1264 292 1264 292 1264 316 c 2,56,-1
 1264 548 l 1,57,58
 1252 489 1252 489 1221.5 427.5 c 128,-1,59
 1191 366 1191 366 1140 315 c 128,-1,60
 1089 264 1089 264 1016.5 231.5 c 128,-1,61
 944 199 944 199 848 199 c 0,62,63
 762 199 762 199 694 226.5 c 128,-1,64
 626 254 626 254 579.5 304.5 c 128,-1,65
 533 355 533 355 508.5 427.5 c 128,-1,66
 484 500 484 500 484 590 c 0,67,68
 484 655 484 655 503.5 720 c 128,-1,69
 523 785 523 785 559 845 c 128,-1,70
 595 905 595 905 646 956.5 c 128,-1,71
 697 1008 697 1008 760 1046 c 128,-1,72
 823 1084 823 1084 896.5 1106 c 128,-1,73
 970 1128 970 1128 1051 1128 c 0,74,75
 1067 1128 1067 1128 1096 1125.5 c 128,-1,76
 1125 1123 1125 1123 1158 1119.5 c 128,-1,77
 1191 1116 1191 1116 1224.5 1111.5 c 128,-1,78
 1258 1107 1258 1107 1282 1104 c 2,79,-1
 1336 1096 l 1,80,-1
 1391 987 l 1,81,-1
 1391 317 l 1,82,83
 1452 317 1452 317 1499.5 341.5 c 128,-1,84
 1547 366 1547 366 1579 419.5 c 128,-1,85
 1611 473 1611 473 1628 556.5 c 128,-1,86
 1645 640 1645 640 1645 758 c 0,87,88
 1645 869 1645 869 1618.5 953.5 c 128,-1,89
 1592 1038 1592 1038 1546.5 1100 c 128,-1,90
 1501 1162 1501 1162 1439 1203.5 c 128,-1,91
 1377 1245 1377 1245 1305.5 1270.5 c 128,-1,92
 1234 1296 1234 1296 1156.5 1306.5 c 128,-1,93
 1079 1317 1079 1317 1002 1317 c 0,94,95
 851 1317 851 1317 723 1267 c 128,-1,96
 595 1217 595 1217 501.5 1122 c 128,-1,97
 408 1027 408 1027 355.5 889.5 c 128,-1,98
 303 752 303 752 303 578 c 0,99,100
 303 440 303 440 347 329.5 c 128,-1,101
 391 219 391 219 477.5 142.5 c 128,-1,102
 564 66 564 66 692 25 c 128,-1,103
 820 -16 820 -16 989 -16 c 0,104,105
 1105 -16 1105 -16 1191 3 c 128,-1,106
 1277 22 1277 22 1335.5 46.5 c 128,-1,107
 1394 71 1394 71 1427 95 c 128,-1,108
 1460 119 1460 119 1470 129 c 1,109,-1
 1476 134 l 1,19,-1
EndSplineSet
Validated: 5
EndChar

StartChar: A
Encoding: 65 65 36
Width: 1620
Flags: HW
LayerCount: 2
Fore
SplineSet
1127 485 m 1,0,-1
 810 1460 l 1,1,-1
 493 485 l 1,2,-1
 1127 485 l 1,0,-1
1160 383 m 1,3,-1
 460 383 l 1,4,-1
 337 0 l 1,5,-1
 144 0 l 1,6,-1
 660 1579 l 1,7,-1
 960 1579 l 1,8,-1
 1476 0 l 1,9,-1
 1283 0 l 1,10,-1
 1160 383 l 1,3,-1
EndSplineSet
Validated: 1
EndChar

StartChar: B
Encoding: 66 66 37
Width: 1408
Flags: HW
LayerCount: 2
Fore
SplineSet
1017 1188 m 0,0,1
 1017 1251 1017 1251 996.5 1298 c 128,-1,2
 976 1345 976 1345 920 1375.5 c 128,-1,3
 864 1406 864 1406 765 1421 c 128,-1,4
 666 1436 666 1436 509 1436 c 2,5,-1
 338 1436 l 1,6,-1
 338 915 l 1,7,-1
 597 915 l 2,8,9
 726 915 726 915 807.5 933.5 c 128,-1,10
 889 952 889 952 935.5 987 c 128,-1,11
 982 1022 982 1022 999.5 1072.5 c 128,-1,12
 1017 1123 1017 1123 1017 1188 c 0,0,1
564 143 m 2,13,14
 703 143 703 143 801 158 c 128,-1,15
 899 173 899 173 961.5 209.5 c 128,-1,16
 1024 246 1024 246 1053 308.5 c 128,-1,17
 1082 371 1082 371 1082 466 c 0,18,19
 1082 554 1082 554 1054.5 615 c 128,-1,20
 1027 676 1027 676 969 714 c 128,-1,21
 911 752 911 752 819.5 769 c 128,-1,22
 728 786 728 786 601 786 c 2,23,-1
 338 786 l 1,24,-1
 338 143 l 1,25,-1
 564 143 l 2,13,14
857 862 m 1,26,27
 1264 815 1264 815 1264 434 c 0,28,29
 1264 304 1264 304 1209 220 c 128,-1,30
 1154 136 1154 136 1059 87 c 128,-1,31
 964 38 964 38 836.5 19 c 128,-1,32
 709 0 709 0 564 0 c 2,33,-1
 144 0 l 1,34,-1
 144 1579 l 1,35,-1
 505 1579 l 2,36,37
 653 1579 653 1579 760.5 1565.5 c 128,-1,38
 868 1552 868 1552 943.5 1527.5 c 128,-1,39
 1019 1503 1019 1503 1065.5 1468 c 128,-1,40
 1112 1433 1112 1433 1138 1389.5 c 128,-1,41
 1164 1346 1164 1346 1173 1295 c 128,-1,42
 1182 1244 1182 1244 1182 1188 c 0,43,44
 1182 1157 1182 1157 1178.5 1123.5 c 128,-1,45
 1175 1090 1175 1090 1163 1057.5 c 128,-1,46
 1151 1025 1151 1025 1129.5 994.5 c 128,-1,47
 1108 964 1108 964 1071.5 938 c 128,-1,48
 1035 912 1035 912 982.5 892.5 c 128,-1,49
 930 873 930 873 857 862 c 1,26,27
EndSplineSet
Validated: 1
EndChar

StartChar: C
Encoding: 67 67 38
Width: 1398
Flags: HW
LayerCount: 2
Fore
SplineSet
1104 1412 m 1,0,-1
 1041 1431 l 1,1,-1
 1002 1440 l 1,2,3
 967 1450 967 1450 925.5 1454 c 128,-1,4
 884 1458 884 1458 824 1458 c 0,5,6
 690 1458 690 1458 598 1411 c 128,-1,7
 506 1364 506 1364 450 1276.5 c 128,-1,8
 394 1189 394 1189 369.5 1064 c 128,-1,9
 345 939 345 939 345 784 c 0,10,11
 345 590 345 590 380.5 460.5 c 128,-1,12
 416 331 416 331 479.5 253.5 c 128,-1,13
 543 176 543 176 631 143.5 c 128,-1,14
 719 111 719 111 824 111 c 0,15,16
 869 111 869 111 914.5 120.5 c 128,-1,17
 960 130 960 130 1003 143 c 1,18,-1
 1063 164 l 1,19,20
 1079 171 1079 171 1098.5 176.5 c 128,-1,21
 1118 182 1118 182 1125 189 c 1,22,-1
 1198 218 l 1,23,-1
 1254 79 l 1,24,-1
 1185 51 l 1,25,26
 1185 51 1185 51 1175.5 46.5 c 128,-1,27
 1166 42 1166 42 1151.5 35.5 c 128,-1,28
 1137 29 1137 29 1121 22 c 128,-1,29
 1105 15 1105 15 1092 11 c 0,30,31
 1070 3 1070 3 1039 -6 c 128,-1,32
 1008 -15 1008 -15 970.5 -23 c 128,-1,33
 933 -31 933 -31 890.5 -36 c 128,-1,34
 848 -41 848 -41 804 -41 c 0,35,36
 670 -41 670 -41 569.5 -7 c 128,-1,37
 469 27 469 27 395.5 86 c 128,-1,38
 322 145 322 145 273.5 225 c 128,-1,39
 225 305 225 305 196.5 397 c 128,-1,40
 168 489 168 489 156 589 c 128,-1,41
 144 689 144 689 144 788 c 0,42,43
 144 926 144 926 163 1034 c 128,-1,44
 182 1142 182 1142 215 1226 c 128,-1,45
 248 1310 248 1310 293 1371 c 128,-1,46
 338 1432 338 1432 390 1474.5 c 128,-1,47
 442 1517 442 1517 499 1543.5 c 128,-1,48
 556 1570 556 1570 612.5 1585 c 128,-1,49
 669 1600 669 1600 723 1605 c 128,-1,50
 777 1610 777 1610 824 1610 c 0,51,52
 877 1610 877 1610 916 1607 c 128,-1,53
 955 1604 955 1604 985.5 1598.5 c 128,-1,54
 1016 1593 1016 1593 1040.5 1586 c 128,-1,55
 1065 1579 1065 1579 1089 1571 c 2,56,-1
 1226 1530 l 1,57,-1
 1181 1385 l 1,58,-1
 1104 1412 l 1,0,-1
EndSplineSet
Validated: 1
EndChar

StartChar: D
Encoding: 68 68 39
Width: 1522
Flags: HW
LayerCount: 2
Fore
SplineSet
719 1436 m 2,0,-1
 338 1436 l 1,1,-1
 338 143 l 1,2,-1
 719 143 l 2,3,4
 857 143 857 143 946 192 c 128,-1,5
 1035 241 1035 241 1086 327.5 c 128,-1,6
 1137 414 1137 414 1157 532.5 c 128,-1,7
 1177 651 1177 651 1177 789 c 0,8,9
 1177 932 1177 932 1155.5 1051 c 128,-1,10
 1134 1170 1134 1170 1081.5 1255.5 c 128,-1,11
 1029 1341 1029 1341 941 1388.5 c 128,-1,12
 853 1436 853 1436 719 1436 c 2,0,-1
719 1579 m 2,13,14
 1378 1579 1378 1579 1378 788 c 0,15,16
 1378 0 1378 0 719 0 c 2,17,-1
 144 0 l 1,18,-1
 144 1579 l 1,19,-1
 719 1579 l 2,13,14
EndSplineSet
Validated: 1
EndChar

StartChar: E
Encoding: 69 69 40
Width: 1271
Flags: HW
LayerCount: 2
Fore
SplineSet
1127 0 m 1,0,-1
 144 0 l 1,1,-1
 144 1579 l 1,2,-1
 1114 1579 l 1,3,-1
 1114 1436 l 1,4,-1
 338 1436 l 1,5,-1
 338 891 l 1,6,-1
 1016 891 l 1,7,-1
 1016 776 l 1,8,-1
 338 776 l 1,9,-1
 338 143 l 1,10,-1
 1127 143 l 1,11,-1
 1127 0 l 1,0,-1
EndSplineSet
Validated: 1
EndChar

StartChar: F
Encoding: 70 70 41
Width: 1209
Flags: HW
LayerCount: 2
Fore
SplineSet
338 762 m 1,0,-1
 338 0 l 1,1,-1
 144 0 l 1,2,-1
 144 1579 l 1,3,-1
 1065 1579 l 1,4,-1
 1065 1436 l 1,5,-1
 338 1436 l 1,6,-1
 338 879 l 1,7,-1
 1004 879 l 1,8,-1
 1004 762 l 1,9,-1
 338 762 l 1,0,-1
EndSplineSet
Validated: 1
EndChar

StartChar: G
Encoding: 71 71 42
Width: 1527
Flags: HW
LayerCount: 2
Fore
SplineSet
775 -41 m 0,0,1
 627 -41 627 -41 510 18.5 c 128,-1,2
 393 78 393 78 311.5 187 c 128,-1,3
 230 296 230 296 187 448 c 128,-1,4
 144 600 144 600 144 786 c 0,5,6
 144 967 144 967 176 1098.5 c 128,-1,7
 208 1230 208 1230 261.5 1321.5 c 128,-1,8
 315 1413 315 1413 385 1469.5 c 128,-1,9
 455 1526 455 1526 529.5 1557.5 c 128,-1,10
 604 1589 604 1589 679 1599.5 c 128,-1,11
 754 1610 754 1610 818 1610 c 0,12,13
 905 1610 905 1610 980 1593.5 c 128,-1,14
 1055 1577 1055 1577 1112 1555 c 128,-1,15
 1169 1533 1169 1533 1205.5 1511.5 c 128,-1,16
 1242 1490 1242 1490 1254 1480 c 1,17,-1
 1260 1476 l 1,18,-1
 1194 1341 l 2,19,20
 1193 1341 1193 1341 1167.5 1359.5 c 128,-1,21
 1142 1378 1142 1378 1093.5 1400 c 128,-1,22
 1045 1422 1045 1422 975 1440 c 128,-1,23
 905 1458 905 1458 816 1458 c 0,24,25
 679 1458 679 1458 588.5 1408.5 c 128,-1,26
 498 1359 498 1359 444 1270 c 128,-1,27
 390 1181 390 1181 367.5 1056.5 c 128,-1,28
 345 932 345 932 345 782 c 0,29,30
 345 638 345 638 366 516 c 128,-1,31
 387 394 387 394 441 304.5 c 128,-1,32
 495 215 495 215 587 164 c 128,-1,33
 679 113 679 113 822 111 c 1,34,35
 907 111 907 111 976.5 129.5 c 128,-1,36
 1046 148 1046 148 1095.5 184 c 128,-1,37
 1145 220 1145 220 1171.5 274 c 128,-1,38
 1198 328 1198 328 1198 399 c 2,39,-1
 1198 684 l 1,40,-1
 796 684 l 1,41,-1
 796 811 l 1,42,-1
 1383 811 l 1,43,-1
 1383 0 l 1,44,-1
 1295 0 l 1,45,-1
 1242 213 l 1,46,47
 1225 144 1225 144 1180.5 95.5 c 128,-1,48
 1136 47 1136 47 1073 16.5 c 128,-1,49
 1010 -14 1010 -14 933 -27.5 c 128,-1,50
 856 -41 856 -41 775 -41 c 0,0,1
EndSplineSet
Validated: 1
EndChar

StartChar: H
Encoding: 72 72 43
Width: 1508
Flags: HW
LayerCount: 2
Fore
SplineSet
1170 0 m 1,0,-1
 1170 764 l 1,1,-1
 338 764 l 1,2,-1
 338 0 l 1,3,-1
 144 0 l 1,4,-1
 144 1579 l 1,5,-1
 338 1579 l 1,6,-1
 338 879 l 1,7,-1
 1170 879 l 1,8,-1
 1170 1579 l 1,9,-1
 1364 1579 l 1,10,-1
 1364 0 l 1,11,-1
 1170 0 l 1,0,-1
EndSplineSet
Validated: 1
EndChar

StartChar: I
Encoding: 73 73 44
Width: 881
Flags: HW
LayerCount: 2
Fore
SplineSet
144 112 m 1,0,-1
 348 112 l 1,1,-1
 348 1461 l 1,2,-1
 144 1461 l 1,3,-1
 144 1579 l 1,4,-1
 737 1579 l 1,5,-1
 737 1461 l 1,6,-1
 542 1461 l 1,7,-1
 542 112 l 1,8,-1
 737 112 l 1,9,-1
 737 0 l 1,10,-1
 144 0 l 1,11,-1
 144 112 l 1,0,-1
EndSplineSet
Validated: 1
EndChar

StartChar: J
Encoding: 74 74 45
Width: 808
Flags: HW
LayerCount: 2
Fore
SplineSet
195 -90 m 1,0,-1
 144 35 l 1,1,2
 223 47 223 47 277 66 c 128,-1,3
 331 85 331 85 366 110.5 c 128,-1,4
 401 136 401 136 420.5 167 c 128,-1,5
 440 198 440 198 450 233 c 0,6,7
 470 302 470 302 470 479 c 2,8,-1
 470 1579 l 1,9,-1
 664 1579 l 1,10,-1
 664 514 l 2,11,12
 664 413 664 413 658 337.5 c 128,-1,13
 652 262 652 262 635.5 203.5 c 128,-1,14
 619 145 619 145 591 98.5 c 128,-1,15
 563 52 563 52 519 10 c 0,16,17
 415 -90 415 -90 195 -90 c 1,0,-1
EndSplineSet
Validated: 1
EndChar

StartChar: K
Encoding: 75 75 46
Width: 1455
Flags: HW
LayerCount: 2
Fore
SplineSet
338 733 m 1,0,-1
 338 0 l 1,1,-1
 144 0 l 1,2,-1
 144 1579 l 1,3,-1
 338 1579 l 1,4,-1
 338 854 l 1,5,-1
 571 854 l 1,6,-1
 1041 1579 l 1,7,-1
 1244 1579 l 1,8,-1
 715 798 l 1,9,-1
 1311 0 l 1,10,-1
 1098 0 l 1,11,-1
 563 733 l 1,12,-1
 338 733 l 1,0,-1
EndSplineSet
Validated: 1
EndChar

StartChar: L
Encoding: 76 76 47
Width: 1228
Flags: HW
LayerCount: 2
Fore
SplineSet
1084 0 m 1,0,-1
 144 0 l 1,1,-1
 144 1579 l 1,2,-1
 338 1579 l 1,3,-1
 338 143 l 1,4,-1
 1084 143 l 1,5,-1
 1084 0 l 1,0,-1
EndSplineSet
Validated: 1
EndChar

StartChar: M
Encoding: 77 77 48
Width: 1820
Flags: HW
LayerCount: 2
Fore
SplineSet
812 0 m 1,0,-1
 299 1509 l 1,1,-1
 299 0 l 1,2,-1
 144 0 l 1,3,-1
 144 1579 l 1,4,-1
 435 1579 l 1,5,-1
 910 168 l 1,6,-1
 1385 1579 l 1,7,-1
 1676 1579 l 1,8,-1
 1676 0 l 1,9,-1
 1521 0 l 1,10,-1
 1521 1509 l 1,11,-1
 1008 0 l 1,12,-1
 812 0 l 1,0,-1
EndSplineSet
Validated: 1
EndChar

StartChar: N
Encoding: 78 78 49
Width: 1541
Flags: HW
LayerCount: 2
Fore
SplineSet
1235 145 m 1,0,-1
 1235 1579 l 1,1,-1
 1397 1579 l 1,2,-1
 1397 0 l 1,3,-1
 1135 0 l 1,4,-1
 306 1434 l 1,5,-1
 306 0 l 1,6,-1
 144 0 l 1,7,-1
 144 1579 l 1,8,-1
 406 1579 l 1,9,-1
 1235 145 l 1,0,-1
EndSplineSet
Validated: 1
EndChar

StartChar: O
Encoding: 79 79 50
Width: 1608
Flags: HW
LayerCount: 2
Fore
SplineSet
804 1458 m 256,0,1
 709 1458 709 1458 638 1434.5 c 128,-1,2
 567 1411 567 1411 516 1367.5 c 128,-1,3
 465 1324 465 1324 431.5 1263.5 c 128,-1,4
 398 1203 398 1203 378.5 1128.5 c 128,-1,5
 359 1054 359 1054 351.5 968.5 c 128,-1,6
 344 883 344 883 344 790 c 256,7,8
 344 697 344 697 351.5 611.5 c 128,-1,9
 359 526 359 526 378.5 451.5 c 128,-1,10
 398 377 398 377 431.5 316.5 c 128,-1,11
 465 256 465 256 516 212.5 c 128,-1,12
 567 169 567 169 638 145.5 c 128,-1,13
 709 122 709 122 804 122 c 0,14,15
 946 122 946 122 1036 174 c 128,-1,16
 1126 226 1126 226 1176.5 316.5 c 128,-1,17
 1227 407 1227 407 1245.5 528.5 c 128,-1,18
 1264 650 1264 650 1264 790 c 0,19,20
 1264 883 1264 883 1256.5 968.5 c 128,-1,21
 1249 1054 1249 1054 1229.5 1128.5 c 128,-1,22
 1210 1203 1210 1203 1176.5 1263.5 c 128,-1,23
 1143 1324 1143 1324 1092 1367.5 c 128,-1,24
 1041 1411 1041 1411 970 1434.5 c 128,-1,25
 899 1458 899 1458 804 1458 c 256,0,1
804 -30 m 256,26,27
 741 -30 741 -30 668 -19 c 128,-1,28
 595 -8 595 -8 521.5 23.5 c 128,-1,29
 448 55 448 55 380 111.5 c 128,-1,30
 312 168 312 168 259.5 259 c 128,-1,31
 207 350 207 350 175.5 480.5 c 128,-1,32
 144 611 144 611 144 790 c 256,33,34
 144 969 144 969 175.5 1099.5 c 128,-1,35
 207 1230 207 1230 259.5 1321 c 128,-1,36
 312 1412 312 1412 380 1468.5 c 128,-1,37
 448 1525 448 1525 521.5 1556.5 c 128,-1,38
 595 1588 595 1588 668 1599 c 128,-1,39
 741 1610 741 1610 804 1610 c 256,40,41
 867 1610 867 1610 940 1599 c 128,-1,42
 1013 1588 1013 1588 1086.5 1556.5 c 128,-1,43
 1160 1525 1160 1525 1228 1468.5 c 128,-1,44
 1296 1412 1296 1412 1348.5 1321 c 128,-1,45
 1401 1230 1401 1230 1432.5 1099.5 c 128,-1,46
 1464 969 1464 969 1464 790 c 256,47,48
 1464 611 1464 611 1432.5 480.5 c 128,-1,49
 1401 350 1401 350 1348.5 259 c 128,-1,50
 1296 168 1296 168 1228 111.5 c 128,-1,51
 1160 55 1160 55 1086.5 23.5 c 128,-1,52
 1013 -8 1013 -8 940 -19 c 128,-1,53
 867 -30 867 -30 804 -30 c 256,26,27
EndSplineSet
Validated: 1
EndChar

StartChar: P
Encoding: 80 80 51
Width: 1385
Flags: HW
LayerCount: 2
Fore
SplineSet
508 784 m 2,0,1
 679 784 679 784 786.5 805.5 c 128,-1,2
 894 827 894 827 954.5 866 c 128,-1,3
 1015 905 1015 905 1037 960.5 c 128,-1,4
 1059 1016 1059 1016 1059 1084 c 0,5,6
 1059 1137 1059 1137 1054.5 1184 c 128,-1,7
 1050 1231 1050 1231 1034 1270 c 128,-1,8
 1018 1309 1018 1309 985.5 1340 c 128,-1,9
 953 1371 953 1371 896.5 1392.5 c 128,-1,10
 840 1414 840 1414 756.5 1425 c 128,-1,11
 673 1436 673 1436 553 1436 c 2,12,-1
 338 1436 l 1,13,-1
 338 784 l 1,14,-1
 508 784 l 2,0,1
1241 1108 m 0,15,16
 1241 998 1241 998 1205 911.5 c 128,-1,17
 1169 825 1169 825 1084.5 764 c 128,-1,18
 1000 703 1000 703 859 671 c 128,-1,19
 718 639 718 639 508 639 c 2,20,-1
 338 639 l 1,21,-1
 338 0 l 1,22,-1
 144 0 l 1,23,-1
 144 1579 l 1,24,-1
 541 1579 l 2,25,26
 744 1579 744 1579 879 1549.5 c 128,-1,27
 1014 1520 1014 1520 1094.5 1461 c 128,-1,28
 1175 1402 1175 1402 1208 1314 c 128,-1,29
 1241 1226 1241 1226 1241 1108 c 0,15,16
EndSplineSet
Validated: 1
EndChar

StartChar: Q
Encoding: 81 81 52
Width: 1615
Flags: HW
LayerCount: 2
Fore
SplineSet
998 1422 m 0,0,1
 915 1458 915 1458 808 1458 c 0,2,3
 669 1458 669 1458 579 1403.5 c 128,-1,4
 489 1349 489 1349 437 1256 c 128,-1,5
 385 1163 385 1163 365 1041 c 128,-1,6
 345 919 345 919 345 784 c 0,7,8
 345 693 345 693 354 608 c 128,-1,9
 363 523 363 523 383.5 448.5 c 128,-1,10
 404 374 404 374 438.5 312 c 128,-1,11
 473 250 473 250 524.5 205 c 128,-1,12
 576 160 576 160 646 135.5 c 128,-1,13
 716 111 716 111 808 111 c 0,14,15
 902 111 902 111 973 136.5 c 128,-1,16
 1044 162 1044 162 1095.5 207.5 c 128,-1,17
 1147 253 1147 253 1180.5 315.5 c 128,-1,18
 1214 378 1214 378 1234.5 453 c 128,-1,19
 1255 528 1255 528 1263 612 c 128,-1,20
 1271 696 1271 696 1271 784 c 0,21,22
 1271 894 1271 894 1258 994.5 c 128,-1,23
 1245 1095 1245 1095 1213.5 1178 c 128,-1,24
 1182 1261 1182 1261 1129.5 1324 c 128,-1,25
 1077 1387 1077 1387 998 1422 c 0,0,1
1471 784 m 0,26,27
 1471 616 1471 616 1440.5 476.5 c 128,-1,28
 1410 337 1410 337 1345.5 232 c 128,-1,29
 1281 127 1281 127 1181 60 c 128,-1,30
 1081 -7 1081 -7 943 -29 c 1,31,-1
 1322 -293 l 1,32,-1
 1203 -424 l 1,33,-1
 710 -35 l 1,34,35
 428 -3 428 -3 286 207.5 c 128,-1,36
 144 418 144 418 144 792 c 0,37,38
 144 970 144 970 182.5 1120 c 128,-1,39
 221 1270 221 1270 302 1379 c 128,-1,40
 383 1488 383 1488 508.5 1549 c 128,-1,41
 634 1610 634 1610 808 1610 c 0,42,43
 873 1610 873 1610 947.5 1598.5 c 128,-1,44
 1022 1587 1022 1587 1095.5 1554.5 c 128,-1,45
 1169 1522 1169 1522 1237 1464 c 128,-1,46
 1305 1406 1305 1406 1357 1314.5 c 128,-1,47
 1409 1223 1409 1223 1440 1092.5 c 128,-1,48
 1471 962 1471 962 1471 784 c 0,26,27
EndSplineSet
Validated: 1
EndChar

StartChar: R
Encoding: 82 82 53
Width: 1381
Flags: HW
LayerCount: 2
Fore
SplineSet
824 797 m 1,0,1
 921 786 921 786 997.5 759.5 c 128,-1,2
 1074 733 1074 733 1127 685.5 c 128,-1,3
 1180 638 1180 638 1207.5 567.5 c 128,-1,4
 1235 497 1235 497 1235 397 c 2,5,-1
 1235 0 l 1,6,-1
 1053 0 l 1,7,-1
 1053 412 l 2,8,9
 1053 494 1053 494 1030 554 c 128,-1,10
 1007 614 1007 614 947 654 c 128,-1,11
 887 694 887 694 783.5 713.5 c 128,-1,12
 680 733 680 733 518 733 c 2,13,-1
 338 733 l 1,14,-1
 338 0 l 1,15,-1
 144 0 l 1,16,-1
 144 1579 l 1,17,-1
 520 1579 l 2,18,19
 787 1579 787 1579 912 1551 c 0,20,21
 1079 1514 1079 1514 1158 1417.5 c 128,-1,22
 1237 1321 1237 1321 1237 1160 c 0,23,24
 1237 1081 1237 1081 1207.5 1014.5 c 128,-1,25
 1178 948 1178 948 1123.5 899.5 c 128,-1,26
 1069 851 1069 851 993 824 c 128,-1,27
 917 797 917 797 824 797 c 1,0,1
492 862 m 1,28,-1
 579 862 l 1,29,-1
 666 865 l 2,30,31
 694 866 694 866 714.5 868 c 128,-1,32
 735 870 735 870 753.5 872.5 c 128,-1,33
 772 875 772 875 791 879 c 128,-1,34
 810 883 810 883 835 888 c 0,35,36
 942 910 942 910 1002 973 c 128,-1,37
 1062 1036 1062 1036 1067 1150 c 1,38,39
 1064 1243 1064 1243 1036.5 1299 c 128,-1,40
 1009 1355 1009 1355 946.5 1385.5 c 128,-1,41
 884 1416 884 1416 780 1426 c 128,-1,42
 676 1436 676 1436 520 1436 c 2,43,-1
 338 1436 l 1,44,-1
 338 862 l 1,45,-1
 492 862 l 1,28,-1
EndSplineSet
Validated: 1
EndChar

StartChar: S
Encoding: 83 83 54
Width: 1382
Flags: HW
LayerCount: 2
Fore
SplineSet
213 72 m 1,0,-1
 233 222 l 1,1,2
 273 201 273 201 314 181 c 128,-1,3
 355 161 355 161 403 145.5 c 128,-1,4
 451 130 451 130 509.5 120.5 c 128,-1,5
 568 111 568 111 643 111 c 0,6,7
 737 111 737 111 813 127 c 128,-1,8
 889 143 889 143 942.5 179 c 128,-1,9
 996 215 996 215 1025 273 c 128,-1,10
 1054 331 1054 331 1054 416 c 0,11,12
 1054 477 1054 477 1036 522 c 128,-1,13
 1018 567 1018 567 984 600.5 c 128,-1,14
 950 634 950 634 901.5 659 c 128,-1,15
 853 684 853 684 793 705 c 2,16,-1
 502 807 l 2,17,18
 400 843 400 843 331 887.5 c 128,-1,19
 262 932 262 932 220.5 984 c 128,-1,20
 179 1036 179 1036 161.5 1094.5 c 128,-1,21
 144 1153 144 1153 144 1217 c 0,22,23
 144 1297 144 1297 169 1357 c 128,-1,24
 194 1417 194 1417 235 1461 c 128,-1,25
 276 1505 276 1505 329 1533.5 c 128,-1,26
 382 1562 382 1562 437.5 1579 c 128,-1,27
 493 1596 493 1596 546.5 1603 c 128,-1,28
 600 1610 600 1610 643 1610 c 0,29,30
 912 1610 912 1610 1136 1484 c 1,31,-1
 1106 1337 l 1,32,33
 1073 1358 1073 1358 1027.5 1379.5 c 128,-1,34
 982 1401 982 1401 929 1418.5 c 128,-1,35
 876 1436 876 1436 818.5 1447 c 128,-1,36
 761 1458 761 1458 705 1458 c 0,37,38
 593 1458 593 1458 520 1440 c 128,-1,39
 447 1422 447 1422 404 1389 c 128,-1,40
 361 1356 361 1356 344 1310 c 128,-1,41
 327 1264 327 1264 327 1208 c 0,42,43
 327 1163 327 1163 340 1128.5 c 128,-1,44
 353 1094 353 1094 381.5 1066.5 c 128,-1,45
 410 1039 410 1039 456 1017 c 128,-1,46
 502 995 502 995 567 974 c 2,47,-1
 850 882 l 1,48,-1
 919 858 l 1,49,50
 973 838 973 838 1029.5 806 c 128,-1,51
 1086 774 1086 774 1132.5 723 c 128,-1,52
 1179 672 1179 672 1208.5 599.5 c 128,-1,53
 1238 527 1238 527 1238 426 c 0,54,55
 1238 379 1238 379 1229 326.5 c 128,-1,56
 1220 274 1220 274 1196.5 222 c 128,-1,57
 1173 170 1173 170 1132.5 122.5 c 128,-1,58
 1092 75 1092 75 1029.5 38.5 c 128,-1,59
 967 2 967 2 879.5 -19.5 c 128,-1,60
 792 -41 792 -41 675 -41 c 0,61,62
 610 -41 610 -41 544 -32 c 128,-1,63
 478 -23 478 -23 417 -7.5 c 128,-1,64
 356 8 356 8 303 28.5 c 128,-1,65
 250 49 250 49 213 72 c 1,0,-1
EndSplineSet
Validated: 1
EndChar

StartChar: T
Encoding: 84 84 55
Width: 1396
Flags: HW
LayerCount: 2
Fore
SplineSet
1252 1436 m 1,0,-1
 796 1436 l 1,1,-1
 796 0 l 1,2,-1
 602 0 l 1,3,-1
 602 1436 l 1,4,-1
 144 1436 l 1,5,-1
 144 1579 l 1,6,-1
 1252 1579 l 1,7,-1
 1252 1436 l 1,0,-1
EndSplineSet
Validated: 1
EndChar

StartChar: U
Encoding: 85 85 56
Width: 1540
Flags: HW
LayerCount: 2
Fore
SplineSet
770 -41 m 256,0,1
 602 -41 602 -41 483 8.5 c 128,-1,2
 364 58 364 58 288.5 154 c 128,-1,3
 213 250 213 250 178.5 391 c 128,-1,4
 144 532 144 532 144 715 c 2,5,-1
 144 1579 l 1,6,-1
 338 1579 l 1,7,-1
 338 711 l 2,8,9
 338 579 338 579 353.5 482 c 128,-1,10
 369 385 369 385 396.5 317.5 c 128,-1,11
 424 250 424 250 463.5 207.5 c 128,-1,12
 503 165 503 165 551 141 c 128,-1,13
 599 117 599 117 654.5 108.5 c 128,-1,14
 710 100 710 100 770 100 c 256,15,16
 830 100 830 100 885.5 108.5 c 128,-1,17
 941 117 941 117 989 141 c 128,-1,18
 1037 165 1037 165 1076.5 207.5 c 128,-1,19
 1116 250 1116 250 1143.5 317.5 c 128,-1,20
 1171 385 1171 385 1186.5 482 c 128,-1,21
 1202 579 1202 579 1202 711 c 2,22,-1
 1202 1579 l 1,23,-1
 1396 1579 l 1,24,-1
 1396 715 l 2,25,26
 1396 532 1396 532 1361.5 391 c 128,-1,27
 1327 250 1327 250 1251.5 154 c 128,-1,28
 1176 58 1176 58 1057 8.5 c 128,-1,29
 938 -41 938 -41 770 -41 c 256,0,1
EndSplineSet
Validated: 1
EndChar

StartChar: V
Encoding: 86 86 57
Width: 1522
Flags: HW
LayerCount: 2
Fore
SplineSet
640 0 m 1,0,-1
 144 1579 l 1,1,-1
 328 1579 l 1,2,-1
 762 180 l 1,3,-1
 1196 1579 l 1,4,-1
 1378 1579 l 1,5,-1
 884 0 l 1,6,-1
 640 0 l 1,0,-1
EndSplineSet
Validated: 1
EndChar

StartChar: W
Encoding: 87 87 58
Width: 2131
Flags: HW
LayerCount: 2
Fore
SplineSet
1202 1489 m 1,0,-1
 1496 135 l 1,1,-1
 1806 1579 l 1,2,-1
 1987 1579 l 1,3,-1
 1651 0 l 1,4,-1
 1364 0 l 1,5,-1
 1128 1067 l 1,6,-1
 1065 1373 l 1,7,-1
 1001 1067 l 1,8,-1
 766 0 l 1,9,-1
 480 0 l 1,10,-1
 144 1579 l 1,11,-1
 324 1579 l 1,12,-1
 634 135 l 1,13,-1
 928 1489 l 1,14,-1
 1202 1489 l 1,0,-1
EndSplineSet
Validated: 1
EndChar

StartChar: X
Encoding: 88 88 59
Width: 1500
Flags: HW
LayerCount: 2
Fore
SplineSet
730 594 m 1,0,-1
 362 0 l 1,1,-1
 144 0 l 1,2,-1
 641 800 l 1,3,-1
 146 1579 l 1,4,-1
 342 1579 l 1,5,-1
 750 923 l 1,6,-1
 1158 1579 l 1,7,-1
 1354 1579 l 1,8,-1
 859 800 l 1,9,-1
 1356 0 l 1,10,-1
 1138 0 l 1,11,-1
 750 626 l 1,12,-1
 730 594 l 1,0,-1
EndSplineSet
Validated: 1
EndChar

StartChar: Y
Encoding: 89 89 60
Width: 1506
Flags: HW
LayerCount: 2
Fore
SplineSet
758 677 m 1,0,-1
 1171 1579 l 1,1,-1
 1362 1579 l 1,2,-1
 848 485 l 1,3,-1
 848 0 l 1,4,-1
 658 0 l 1,5,-1
 658 485 l 1,6,-1
 144 1579 l 1,7,-1
 341 1579 l 1,8,-1
 695 806 l 1,9,-1
 758 677 l 1,0,-1
EndSplineSet
Validated: 1
EndChar

StartChar: Z
Encoding: 90 90 61
Width: 1320
Flags: HW
LayerCount: 2
Fore
SplineSet
1174 1579 m 1,0,-1
 1174 1419 l 1,1,-1
 341 143 l 1,2,-1
 1176 143 l 1,3,-1
 1176 0 l 1,4,-1
 144 0 l 1,5,-1
 144 180 l 1,6,-1
 973 1447 l 1,7,-1
 144 1447 l 1,8,-1
 144 1579 l 1,9,-1
 1174 1579 l 1,0,-1
EndSplineSet
Validated: 1
EndChar

StartChar: bracketleft
Encoding: 91 91 62
Width: 952
Flags: HW
LayerCount: 2
Fore
SplineSet
144 1579 m 1,0,-1
 808 1579 l 1,1,-1
 808 1436 l 1,2,-1
 337 1436 l 1,3,-1
 337 143 l 1,4,-1
 808 143 l 1,5,-1
 808 0 l 1,6,-1
 144 0 l 1,7,-1
 144 1579 l 1,0,-1
EndSplineSet
Validated: 1
EndChar

StartChar: backslash
Encoding: 92 92 63
Width: 1069
Flags: HW
LayerCount: 2
Fore
SplineSet
302 1731 m 1,0,-1
 925 -114 l 1,1,-1
 765 -172 l 1,2,-1
 144 1679 l 1,3,-1
 302 1731 l 1,0,-1
EndSplineSet
Validated: 1
EndChar

StartChar: bracketright
Encoding: 93 93 64
Width: 952
Flags: HW
LayerCount: 2
Fore
SplineSet
144 1579 m 1,0,-1
 808 1579 l 1,1,-1
 808 0 l 1,2,-1
 144 0 l 1,3,-1
 144 143 l 1,4,-1
 615 143 l 1,5,-1
 615 1436 l 1,6,-1
 144 1436 l 1,7,-1
 144 1579 l 1,0,-1
EndSplineSet
Validated: 1
EndChar

StartChar: asciicircum
Encoding: 94 94 65
Width: 968
Flags: HW
LayerCount: 2
Fore
SplineSet
272 432 m 1,0,-1
 144 510 l 1,1,-1
 436 1011 l 1,2,-1
 532 1011 l 1,3,-1
 824 510 l 1,4,-1
 696 432 l 1,5,-1
 484 809 l 1,6,-1
 272 432 l 1,0,-1
EndSplineSet
Validated: 1
EndChar

StartChar: underscore
Encoding: 95 95 66
Width: 1228
Flags: HW
LayerCount: 2
Fore
SplineSet
1084 -111 m 1,0,-1
 144 -111 l 1,1,-1
 144 33 l 1,2,-1
 1084 33 l 1,3,-1
 1084 -111 l 1,0,-1
EndSplineSet
Validated: 1
EndChar

StartChar: grave
Encoding: 96 96 67
Width: 683
Flags: HW
LayerCount: 2
Fore
SplineSet
539 1498 m 1,0,-1
 472 1472 l 1,1,-1
 144 2027 l 1,2,-1
 386 2116 l 1,3,-1
 539 1498 l 1,0,-1
EndSplineSet
Validated: 1
EndChar

StartChar: a
Encoding: 97 97 68
Width: 1253
Flags: HW
LayerCount: 2
Fore
SplineSet
583 119 m 0,0,1
 756 119 756 119 919 271 c 1,2,-1
 919 569 l 1,3,4
 788 590 788 590 657 590 c 0,5,6
 560 590 560 590 497.5 573 c 128,-1,7
 435 556 435 556 399 525.5 c 128,-1,8
 363 495 363 495 349 451.5 c 128,-1,9
 335 408 335 408 335 356 c 0,10,11
 335 292 335 292 349.5 247 c 128,-1,12
 364 202 364 202 394.5 173.5 c 128,-1,13
 425 145 425 145 471.5 132 c 128,-1,14
 518 119 518 119 583 119 c 0,0,1
919 665 m 1,15,-1
 919 713 l 2,16,17
 919 764 919 764 917.5 802.5 c 128,-1,18
 916 841 916 841 910 871.5 c 128,-1,19
 904 902 904 902 893 926.5 c 128,-1,20
 882 951 882 951 863 973 c 0,21,22
 844 994 844 994 823 1008 c 128,-1,23
 802 1022 802 1022 776.5 1031 c 128,-1,24
 751 1040 751 1040 719 1043.5 c 128,-1,25
 687 1047 687 1047 647 1047 c 0,26,27
 577 1047 577 1047 511.5 1030 c 128,-1,28
 446 1013 446 1013 395 992 c 128,-1,29
 344 971 344 971 314 953.5 c 128,-1,30
 284 936 284 936 284 935 c 2,31,-1
 217 1057 l 1,32,-1
 229 1064 l 2,33,34
 245 1074 245 1074 282.5 1095 c 128,-1,35
 320 1116 320 1116 373.5 1137 c 128,-1,36
 427 1158 427 1158 494.5 1174 c 128,-1,37
 562 1190 562 1190 637 1190 c 0,38,39
 774 1190 774 1190 865 1162.5 c 128,-1,40
 956 1135 956 1135 1010 1075 c 128,-1,41
 1064 1015 1064 1015 1086.5 919 c 128,-1,42
 1109 823 1109 823 1109 686 c 2,43,-1
 1109 0 l 1,44,-1
 969 0 l 1,45,-1
 941 178 l 1,46,47
 795 -23 795 -23 536 -23 c 0,48,49
 443 -23 443 -23 370 0.5 c 128,-1,50
 297 24 297 24 247 70 c 128,-1,51
 197 116 197 116 170.5 183.5 c 128,-1,52
 144 251 144 251 144 339 c 2,53,-1
 144 343 l 2,54,55
 144 432 144 432 176 501.5 c 128,-1,56
 208 571 208 571 266 618.5 c 128,-1,57
 324 666 324 666 406 690.5 c 128,-1,58
 488 715 488 715 588 715 c 0,59,60
 621 715 621 715 667.5 710.5 c 128,-1,61
 714 706 714 706 762 699 c 128,-1,62
 810 692 810 692 852.5 683 c 128,-1,63
 895 674 895 674 919 665 c 1,15,-1
EndSplineSet
Validated: 1
EndChar

StartChar: b
Encoding: 98 98 69
Width: 1302
Flags: HW
LayerCount: 2
Fore
SplineSet
682 -20 m 0,0,1
 627 -20 627 -20 575.5 -4.5 c 128,-1,2
 524 11 524 11 477 38 c 128,-1,3
 430 65 430 65 388.5 101 c 128,-1,4
 347 137 347 137 312 178 c 1,5,-1
 284 0 l 1,6,-1
 144 0 l 1,7,-1
 144 1579 l 1,8,-1
 334 1614 l 1,9,-1
 334 1030 l 1,10,11
 341 1037 341 1037 357.5 1051.5 c 128,-1,12
 374 1066 374 1066 399 1084 c 128,-1,13
 424 1102 424 1102 455.5 1120.5 c 128,-1,14
 487 1139 487 1139 523.5 1154.5 c 128,-1,15
 560 1170 560 1170 600 1180 c 128,-1,16
 640 1190 640 1190 682 1190 c 0,17,18
 777 1190 777 1190 849.5 1162 c 128,-1,19
 922 1134 922 1134 975 1086.5 c 128,-1,20
 1028 1039 1028 1039 1063 977 c 128,-1,21
 1098 915 1098 915 1119.5 847 c 128,-1,22
 1141 779 1141 779 1149.5 710 c 128,-1,23
 1158 641 1158 641 1158 580 c 0,24,25
 1158 463 1158 463 1131.5 354.5 c 128,-1,26
 1105 246 1105 246 1048 163 c 128,-1,27
 991 80 991 80 900.5 30 c 128,-1,28
 810 -20 810 -20 682 -20 c 0,0,1
976 584 m 0,29,30
 976 1047 976 1047 689 1047 c 0,31,32
 638 1047 638 1047 585.5 1033 c 128,-1,33
 533 1019 533 1019 485 997.5 c 128,-1,34
 437 976 437 976 397.5 950.5 c 128,-1,35
 358 925 358 925 334 902 c 1,36,-1
 334 273 l 1,37,38
 491 123 491 123 689 123 c 0,39,40
 777 123 777 123 833 164.5 c 128,-1,41
 889 206 889 206 921 272.5 c 128,-1,42
 953 339 953 339 964.5 421 c 128,-1,43
 976 503 976 503 976 584 c 0,29,30
EndSplineSet
Validated: 1
EndChar

StartChar: c
Encoding: 99 99 70
Width: 1187
Flags: HW
LayerCount: 2
Fore
SplineSet
334 580 m 0,0,1
 334 452 334 452 360.5 365.5 c 128,-1,2
 387 279 387 279 431 226 c 128,-1,3
 475 173 475 173 533.5 150 c 128,-1,4
 592 127 592 127 657 127 c 0,5,6
 859 127 859 127 986 245 c 1,7,-1
 1043 111 l 1,8,9
 855 -23 855 -23 652 -23 c 0,10,11
 601 -23 601 -23 544 -12 c 128,-1,12
 487 -1 487 -1 430.5 25.5 c 128,-1,13
 374 52 374 52 322 97 c 128,-1,14
 270 142 270 142 230.5 209 c 128,-1,15
 191 276 191 276 167.5 367.5 c 128,-1,16
 144 459 144 459 144 580 c 256,17,18
 144 701 144 701 167.5 793 c 128,-1,19
 191 885 191 885 230.5 953 c 128,-1,20
 270 1021 270 1021 322 1066.5 c 128,-1,21
 374 1112 374 1112 430.5 1139.5 c 128,-1,22
 487 1167 487 1167 545 1178.5 c 128,-1,23
 603 1190 603 1190 655 1190 c 0,24,25
 856 1190 856 1190 1043 1057 c 1,26,-1
 986 924 l 1,27,28
 852 1040 852 1040 672 1040 c 0,29,30
 509 1040 509 1040 421.5 927.5 c 128,-1,31
 334 815 334 815 334 580 c 0,0,1
EndSplineSet
Validated: 1
EndChar

StartChar: d
Encoding: 100 100 71
Width: 1305
Flags: HW
LayerCount: 2
Fore
SplineSet
144 584 m 0,0,1
 144 708 144 708 173.5 818 c 128,-1,2
 203 928 203 928 261 1010.5 c 128,-1,3
 319 1093 319 1093 405.5 1141.5 c 128,-1,4
 492 1190 492 1190 606 1190 c 0,5,6
 665 1190 665 1190 720.5 1175.5 c 128,-1,7
 776 1161 776 1161 824 1138 c 128,-1,8
 872 1115 872 1115 910 1086 c 128,-1,9
 948 1057 948 1057 971 1028 c 1,10,-1
 971 1614 l 1,11,-1
 1161 1579 l 1,12,-1
 1161 0 l 1,13,-1
 1020 0 l 1,14,-1
 992 179 l 1,15,16
 963 141 963 141 923 105.5 c 128,-1,17
 883 70 883 70 835.5 42 c 128,-1,18
 788 14 788 14 735 -3 c 128,-1,19
 682 -20 682 -20 628 -20 c 0,20,21
 499 -20 499 -20 407.5 29 c 128,-1,22
 316 78 316 78 257.5 161 c 128,-1,23
 199 244 199 244 171.5 353.5 c 128,-1,24
 144 463 144 463 144 584 c 0,0,1
333 587 m 0,25,26
 333 354 333 354 408.5 238.5 c 128,-1,27
 484 123 484 123 639 123 c 0,28,29
 692 123 692 123 741.5 137 c 128,-1,30
 791 151 791 151 834 173 c 128,-1,31
 877 195 877 195 912 222 c 128,-1,32
 947 249 947 249 971 275 c 1,33,-1
 971 903 l 1,34,35
 794 1047 794 1047 637 1047 c 0,36,37
 606 1047 606 1047 571.5 1041.5 c 128,-1,38
 537 1036 537 1036 503.5 1019 c 128,-1,39
 470 1002 470 1002 439 970.5 c 128,-1,40
 408 939 408 939 384.5 888 c 128,-1,41
 361 837 361 837 347 763 c 128,-1,42
 333 689 333 689 333 587 c 0,25,26
EndSplineSet
Validated: 1
EndChar

StartChar: e
Encoding: 101 101 72
Width: 1255
Flags: HW
LayerCount: 2
Fore
SplineSet
932 717 m 2,0,1
 932 827 932 827 905 894 c 128,-1,2
 878 961 878 961 837.5 997 c 128,-1,3
 797 1033 797 1033 749 1045 c 128,-1,4
 701 1057 701 1057 660 1057 c 0,5,6
 609 1057 609 1057 555.5 1041.5 c 128,-1,7
 502 1026 502 1026 456.5 984.5 c 128,-1,8
 411 943 411 943 378 870 c 128,-1,9
 345 797 345 797 335 682 c 1,10,-1
 932 682 l 1,11,-1
 932 717 l 2,0,1
335 567 m 1,12,13
 335 467 335 467 351 386 c 128,-1,14
 367 305 367 305 406.5 247.5 c 128,-1,15
 446 190 446 190 512.5 158.5 c 128,-1,16
 579 127 579 127 680 127 c 0,17,18
 849 127 849 127 986 244 c 1,19,-1
 1048 99 l 1,20,21
 1010 71 1010 71 959.5 48.5 c 128,-1,22
 909 26 909 26 856.5 10 c 128,-1,23
 804 -6 804 -6 754.5 -14.5 c 128,-1,24
 705 -23 705 -23 668 -23 c 0,25,26
 542 -23 542 -23 444.5 18.5 c 128,-1,27
 347 60 347 60 280 138 c 128,-1,28
 213 216 213 216 178.5 327.5 c 128,-1,29
 144 439 144 439 144 578 c 0,30,31
 144 725 144 725 183 839 c 128,-1,32
 222 953 222 953 290.5 1031 c 128,-1,33
 359 1109 359 1109 453.5 1149.5 c 128,-1,34
 548 1190 548 1190 659 1190 c 0,35,36
 769 1190 769 1190 853.5 1153 c 128,-1,37
 938 1116 938 1116 995 1048.5 c 128,-1,38
 1052 981 1052 981 1081.5 886.5 c 128,-1,39
 1111 792 1111 792 1111 676 c 0,40,41
 1111 652 1111 652 1109 625 c 128,-1,42
 1107 598 1107 598 1103 567 c 1,43,-1
 335 567 l 1,12,13
EndSplineSet
Validated: 1
EndChar

StartChar: f
Encoding: 102 102 73
Width: 1056
Flags: HW
LayerCount: 2
Fore
SplineSet
694 1516 m 0,0,1
 646 1516 646 1516 614.5 1508.5 c 128,-1,2
 583 1501 583 1501 564 1479 c 128,-1,3
 545 1457 545 1457 537 1418 c 128,-1,4
 529 1379 529 1379 529 1316 c 2,5,-1
 529 1243 l 1,6,-1
 529 1169 l 1,7,-1
 877 1169 l 1,8,-1
 877 1064 l 1,9,-1
 529 1064 l 1,10,-1
 529 0 l 1,11,-1
 339 0 l 1,12,-1
 339 1064 l 1,13,-1
 144 1064 l 1,14,-1
 144 1169 l 1,15,-1
 339 1169 l 1,16,-1
 339 1198 l 2,17,18
 339 1338 339 1338 362.5 1427.5 c 128,-1,19
 386 1517 386 1517 429.5 1568.5 c 128,-1,20
 473 1620 473 1620 534 1639.5 c 128,-1,21
 595 1659 595 1659 670 1659 c 0,22,23
 714 1659 714 1659 757.5 1645.5 c 128,-1,24
 801 1632 801 1632 835.5 1615.5 c 128,-1,25
 870 1599 870 1599 891 1584 c 128,-1,26
 912 1569 912 1569 912 1567 c 2,27,-1
 849 1442 l 1,28,29
 766 1516 766 1516 694 1516 c 0,0,1
EndSplineSet
Validated: 1
EndChar

StartChar: g
Encoding: 103 103 74
Width: 1294
Flags: HW
LayerCount: 2
Fore
SplineSet
950 1020 m 1,0,1
 967 990 967 990 980 957 c 0,2,3
 991 928 991 928 1000.5 893 c 128,-1,4
 1010 858 1010 858 1010 820 c 0,5,6
 1010 745 1010 745 982 681 c 128,-1,7
 954 617 954 617 901 570 c 128,-1,8
 848 523 848 523 772 496.5 c 128,-1,9
 696 470 696 470 600 470 c 0,10,11
 544 470 544 470 498 468.5 c 128,-1,12
 452 467 452 467 419 457.5 c 128,-1,13
 386 448 386 448 368 427.5 c 128,-1,14
 350 407 350 407 350 370 c 256,15,16
 350 333 350 333 372 312.5 c 128,-1,17
 394 292 394 292 427 282.5 c 128,-1,18
 460 273 460 273 498.5 271.5 c 128,-1,19
 537 270 537 270 570 270 c 0,20,21
 709 270 709 270 809.5 258.5 c 128,-1,22
 910 247 910 247 974.5 214 c 128,-1,23
 1039 181 1039 181 1069.5 122.5 c 128,-1,24
 1100 64 1100 64 1100 -30 c 0,25,26
 1100 -118 1100 -118 1062.5 -184 c 128,-1,27
 1025 -250 1025 -250 957 -293.5 c 128,-1,28
 889 -337 889 -337 793 -358.5 c 128,-1,29
 697 -380 697 -380 580 -380 c 0,30,31
 487 -380 487 -380 408 -366.5 c 128,-1,32
 329 -353 329 -353 271.5 -318.5 c 128,-1,33
 214 -284 214 -284 182 -226.5 c 128,-1,34
 150 -169 150 -169 150 -80 c 0,35,36
 150 -23 150 -23 175 20.5 c 128,-1,37
 200 64 200 64 230 95 c 0,38,39
 265 131 265 131 311 158 c 1,40,41
 282 167 282 167 259 183.5 c 128,-1,42
 236 200 236 200 220 222.5 c 128,-1,43
 204 245 204 245 195.5 271 c 128,-1,44
 187 297 187 297 187 325 c 0,45,46
 187 354 187 354 196.5 383 c 128,-1,47
 206 412 206 412 226 438 c 128,-1,48
 246 464 246 464 277 485 c 128,-1,49
 308 506 308 506 350 520 c 1,50,51
 292 552 292 552 247 596 c 0,52,53
 227 615 227 615 208.5 638.5 c 128,-1,54
 190 662 190 662 176 690 c 128,-1,55
 162 718 162 718 153 750.5 c 128,-1,56
 144 783 144 783 144 820 c 0,57,58
 144 895 144 895 172 962 c 128,-1,59
 200 1029 200 1029 257 1080 c 128,-1,60
 314 1131 314 1131 399.5 1160.5 c 128,-1,61
 485 1190 485 1190 600 1190 c 0,62,63
 657 1190 657 1190 702.5 1176.5 c 128,-1,64
 748 1163 748 1163 781 1147 c 0,65,66
 820 1128 820 1128 850 1104 c 1,67,68
 904 1128 904 1128 958 1147 c 0,69,70
 1004 1163 1004 1163 1056 1176.5 c 128,-1,71
 1108 1190 1108 1190 1150 1190 c 1,72,-1
 1150 1020 l 1,73,-1
 950 1020 l 1,0,1
600 -236 m 0,74,75
 680 -236 680 -236 740 -220 c 128,-1,76
 800 -204 800 -204 840 -177 c 128,-1,77
 880 -150 880 -150 900 -113.5 c 128,-1,78
 920 -77 920 -77 920 -36 c 0,79,80
 920 20 920 20 900 51.5 c 128,-1,81
 880 83 880 83 840 98 c 128,-1,82
 800 113 800 113 740 116.5 c 128,-1,83
 680 120 680 120 600 120 c 2,84,-1
 450 120 l 1,85,86
 412 102 412 102 382 79 c 0,87,88
 356 59 356 59 335.5 30.5 c 128,-1,89
 315 2 315 2 315 -36 c 0,90,91
 315 -92 315 -92 331.5 -130.5 c 128,-1,92
 348 -169 348 -169 382.5 -192.5 c 128,-1,93
 417 -216 417 -216 471 -226 c 128,-1,94
 525 -236 525 -236 600 -236 c 0,74,75
485 590 m 1,95,96
 572 590 572 590 638.5 601.5 c 128,-1,97
 705 613 705 613 749.5 640 c 128,-1,98
 794 667 794 667 817 711 c 128,-1,99
 840 755 840 755 840 820 c 0,100,101
 840 875 840 875 827.5 918.5 c 128,-1,102
 815 962 815 962 786.5 993 c 128,-1,103
 758 1024 758 1024 712.5 1040.5 c 128,-1,104
 667 1057 667 1057 600 1057 c 0,105,106
 529 1057 529 1057 474 1045 c 128,-1,107
 419 1033 419 1033 381 1007 c 128,-1,108
 343 981 343 981 323.5 940 c 128,-1,109
 304 899 304 899 304 840 c 0,110,111
 304 806 304 806 311.5 777.5 c 128,-1,112
 319 749 319 749 332 725 c 128,-1,113
 345 701 345 701 361 682 c 128,-1,114
 377 663 377 663 394 648 c 0,115,116
 434 613 434 613 485 590 c 1,95,96
EndSplineSet
Validated: 1
EndChar

StartChar: h
Encoding: 104 104 75
Width: 1275
Flags: HW
LayerCount: 2
Fore
SplineSet
941 727 m 2,0,1
 941 815 941 815 925.5 876 c 128,-1,2
 910 937 910 937 880.5 975 c 128,-1,3
 851 1013 851 1013 807.5 1030 c 128,-1,4
 764 1047 764 1047 709 1047 c 0,5,6
 642 1047 642 1047 580.5 1028 c 128,-1,7
 519 1009 519 1009 469 983.5 c 128,-1,8
 419 958 419 958 384 931 c 128,-1,9
 349 904 349 904 334 888 c 1,10,-1
 334 0 l 1,11,-1
 144 0 l 1,12,-1
 144 1579 l 1,13,-1
 334 1616 l 1,14,-1
 334 989 l 1,15,16
 370 1027 370 1027 409.5 1063.5 c 128,-1,17
 449 1100 449 1100 495 1128 c 128,-1,18
 541 1156 541 1156 594 1173 c 128,-1,19
 647 1190 647 1190 709 1190 c 0,20,21
 804 1190 804 1190 881.5 1166.5 c 128,-1,22
 959 1143 959 1143 1014.5 1088.5 c 128,-1,23
 1070 1034 1070 1034 1100.5 945.5 c 128,-1,24
 1131 857 1131 857 1131 727 c 2,25,-1
 1131 0 l 1,26,-1
 941 0 l 1,27,-1
 941 727 l 2,0,1
EndSplineSet
Validated: 1
EndChar

StartChar: i
Encoding: 105 105 76
Width: 508
Flags: HW
LayerCount: 2
Fore
SplineSet
346 0 m 1,0,-1
 156 0 l 1,1,-1
 156 1169 l 1,2,-1
 346 1169 l 1,3,-1
 346 0 l 1,0,-1
256 1577 m 0,4,5
 304 1577 304 1577 334 1543.5 c 128,-1,6
 364 1510 364 1510 364 1462 c 256,7,8
 364 1414 364 1414 334 1380.5 c 128,-1,9
 304 1347 304 1347 256 1347 c 0,10,11
 231 1347 231 1347 210.5 1356 c 128,-1,12
 190 1365 190 1365 175 1381 c 128,-1,13
 160 1397 160 1397 152 1418 c 128,-1,14
 144 1439 144 1439 144 1462 c 256,15,16
 144 1485 144 1485 152 1506 c 128,-1,17
 160 1527 160 1527 175 1542.5 c 128,-1,18
 190 1558 190 1558 210.5 1567.5 c 128,-1,19
 231 1577 231 1577 256 1577 c 0,4,5
EndSplineSet
Validated: 1
EndChar

StartChar: j
Encoding: 106 106 77
Width: 678
Flags: HW
LayerCount: 2
Fore
SplineSet
144 -258 m 1,0,1
 211 -215 211 -215 249 -168 c 128,-1,2
 287 -121 287 -121 305.5 -67.5 c 128,-1,3
 324 -14 324 -14 328 46.5 c 128,-1,4
 332 107 332 107 332 176 c 2,5,-1
 332 1169 l 1,6,-1
 522 1169 l 1,7,-1
 522 154 l 2,8,9
 522 38 522 38 495 -52.5 c 128,-1,10
 468 -143 468 -143 422.5 -209 c 128,-1,11
 377 -275 377 -275 317 -316 c 128,-1,12
 257 -357 257 -357 191 -373 c 1,13,-1
 144 -258 l 1,0,1
426 1577 m 0,14,15
 474 1577 474 1577 504 1543.5 c 128,-1,16
 534 1510 534 1510 534 1462 c 256,17,18
 534 1414 534 1414 504 1380.5 c 128,-1,19
 474 1347 474 1347 426 1347 c 0,20,21
 401 1347 401 1347 380.5 1356 c 128,-1,22
 360 1365 360 1365 345 1381 c 128,-1,23
 330 1397 330 1397 322 1418 c 128,-1,24
 314 1439 314 1439 314 1462 c 256,25,26
 314 1485 314 1485 322 1506 c 128,-1,27
 330 1527 330 1527 345 1542.5 c 128,-1,28
 360 1558 360 1558 380.5 1567.5 c 128,-1,29
 401 1577 401 1577 426 1577 c 0,14,15
EndSplineSet
Validated: 1
EndChar

StartChar: k
Encoding: 107 107 78
Width: 1295
Flags: HW
LayerCount: 2
Fore
SplineSet
1118 1169 m 1,0,-1
 565 648 l 1,1,-1
 1151 0 l 1,2,-1
 930 0 l 1,3,-1
 450 555 l 1,4,-1
 334 459 l 1,5,-1
 334 0 l 1,6,-1
 144 0 l 1,7,-1
 144 1579 l 1,8,-1
 334 1614 l 1,9,-1
 334 627 l 1,10,-1
 893 1169 l 1,11,-1
 1118 1169 l 1,0,-1
EndSplineSet
Validated: 1
EndChar

StartChar: l
Encoding: 108 108 79
Width: 478
Flags: HW
LayerCount: 2
Fore
SplineSet
144 0 m 1,0,-1
 144 1579 l 1,1,-1
 334 1614 l 1,2,-1
 334 0 l 1,3,-1
 144 0 l 1,0,-1
EndSplineSet
Validated: 1
EndChar

StartChar: m
Encoding: 109 109 80
Width: 1946
Flags: HW
LayerCount: 2
Fore
SplineSet
1026 967 m 1,0,1
 1061 1018 1061 1018 1109 1059 c 128,-1,2
 1157 1100 1157 1100 1212.5 1129.5 c 128,-1,3
 1268 1159 1268 1159 1327.5 1174.5 c 128,-1,4
 1387 1190 1387 1190 1446 1190 c 0,5,6
 1531 1190 1531 1190 1597.5 1159.5 c 128,-1,7
 1664 1129 1664 1129 1709.5 1073.5 c 128,-1,8
 1755 1018 1755 1018 1778.5 940 c 128,-1,9
 1802 862 1802 862 1802 766 c 2,10,-1
 1802 0 l 1,11,-1
 1612 0 l 1,12,-1
 1612 768 l 2,13,14
 1612 853 1612 853 1598 907.5 c 128,-1,15
 1584 962 1584 962 1558.5 993 c 128,-1,16
 1533 1024 1533 1024 1497.5 1035.5 c 128,-1,17
 1462 1047 1462 1047 1418 1047 c 0,18,19
 1237 1047 1237 1047 1056 858 c 1,20,-1
 1056 0 l 1,21,-1
 866 0 l 1,22,-1
 866 768 l 2,23,24
 866 852 866 852 853 906 c 128,-1,25
 840 960 840 960 815.5 991.5 c 128,-1,26
 791 1023 791 1023 755 1035 c 128,-1,27
 719 1047 719 1047 674 1047 c 0,28,29
 521 1047 521 1047 334 860 c 1,30,-1
 334 0 l 1,31,-1
 144 0 l 1,32,-1
 144 1169 l 1,33,-1
 285 1169 l 1,34,-1
 312 963 l 1,35,36
 342 1011 342 1011 383.5 1052.5 c 128,-1,37
 425 1094 425 1094 475 1124.5 c 128,-1,38
 525 1155 525 1155 583.5 1172.5 c 128,-1,39
 642 1190 642 1190 705 1190 c 0,40,41
 771 1190 771 1190 823.5 1172.5 c 128,-1,42
 876 1155 876 1155 916 1124.5 c 128,-1,43
 956 1094 956 1094 983.5 1053.5 c 128,-1,44
 1011 1013 1011 1013 1026 967 c 1,0,1
EndSplineSet
Validated: 1
EndChar

StartChar: n
Encoding: 110 110 81
Width: 1272
Flags: HW
LayerCount: 2
Fore
SplineSet
334 880 m 1,0,-1
 334 0 l 1,1,-1
 144 0 l 1,2,-1
 144 1169 l 1,3,-1
 284 1169 l 1,4,-1
 308 982 l 1,5,6
 338 1020 338 1020 388.5 1057 c 128,-1,7
 439 1094 439 1094 499.5 1123 c 128,-1,8
 560 1152 560 1152 627 1170 c 128,-1,9
 694 1188 694 1188 757 1188 c 0,10,11
 794 1188 794 1188 836.5 1181 c 128,-1,12
 879 1174 879 1174 920 1155.5 c 128,-1,13
 961 1137 961 1137 998.5 1104.5 c 128,-1,14
 1036 1072 1036 1072 1065 1021 c 128,-1,15
 1094 970 1094 970 1111 897.5 c 128,-1,16
 1128 825 1128 825 1128 727 c 2,17,-1
 1128 0 l 1,18,-1
 938 0 l 1,19,-1
 938 727 l 2,20,21
 938 797 938 797 927.5 856 c 128,-1,22
 917 915 917 915 891.5 957.5 c 128,-1,23
 866 1000 866 1000 822.5 1023.5 c 128,-1,24
 779 1047 779 1047 714 1047 c 0,25,26
 665 1047 665 1047 607 1028.5 c 128,-1,27
 549 1010 549 1010 495.5 983.5 c 128,-1,28
 442 957 442 957 398.5 928.5 c 128,-1,29
 355 900 355 900 334 880 c 1,0,-1
EndSplineSet
Validated: 1
EndChar

StartChar: o
Encoding: 111 111 82
Width: 1349
Flags: HW
LayerCount: 2
Fore
SplineSet
334 582 m 0,0,1
 334 484 334 484 352.5 399 c 128,-1,2
 371 314 371 314 411.5 251.5 c 128,-1,3
 452 189 452 189 517 153 c 128,-1,4
 582 117 582 117 674 117 c 0,5,6
 768 117 768 117 833 153.5 c 128,-1,7
 898 190 898 190 938.5 253 c 128,-1,8
 979 316 979 316 997 400.5 c 128,-1,9
 1015 485 1015 485 1015 582 c 0,10,11
 1015 681 1015 681 996 766.5 c 128,-1,12
 977 852 977 852 935.5 915.5 c 128,-1,13
 894 979 894 979 829.5 1015 c 128,-1,14
 765 1051 765 1051 674 1051 c 0,15,16
 608 1051 608 1051 557 1031 c 128,-1,17
 506 1011 506 1011 468.5 976.5 c 128,-1,18
 431 942 431 942 405 896 c 128,-1,19
 379 850 379 850 363.5 798 c 128,-1,20
 348 746 348 746 341 690.5 c 128,-1,21
 334 635 334 635 334 582 c 0,0,1
144 582 m 0,22,23
 144 708 144 708 176.5 818.5 c 128,-1,24
 209 929 209 929 275 1011.5 c 128,-1,25
 341 1094 341 1094 440.5 1142 c 128,-1,26
 540 1190 540 1190 674 1190 c 0,27,28
 810 1190 810 1190 910 1141.5 c 128,-1,29
 1010 1093 1010 1093 1075.5 1010 c 128,-1,30
 1141 927 1141 927 1173 816.5 c 128,-1,31
 1205 706 1205 706 1205 582 c 0,32,33
 1205 456 1205 456 1172.5 346.5 c 128,-1,34
 1140 237 1140 237 1074 155.5 c 128,-1,35
 1008 74 1008 74 908.5 27 c 128,-1,36
 809 -20 809 -20 674 -20 c 0,37,38
 538 -20 538 -20 438.5 27.5 c 128,-1,39
 339 75 339 75 273.5 157 c 128,-1,40
 208 239 208 239 176 348.5 c 128,-1,41
 144 458 144 458 144 582 c 0,22,23
EndSplineSet
Validated: 1
EndChar

StartChar: p
Encoding: 112 112 83
Width: 1306
Flags: HW
LayerCount: 2
Fore
SplineSet
693 -20 m 0,0,1
 640 -20 640 -20 588.5 -5.5 c 128,-1,2
 537 9 537 9 491 34 c 128,-1,3
 445 59 445 59 405 92.5 c 128,-1,4
 365 126 365 126 334 164 c 1,5,-1
 334 -465 l 1,6,-1
 144 -487 l 1,7,-1
 144 1169 l 1,8,-1
 285 1169 l 1,9,-1
 318 971 l 1,10,11
 351 1015 351 1015 392.5 1054.5 c 128,-1,12
 434 1094 434 1094 482 1124 c 128,-1,13
 530 1154 530 1154 583 1172 c 128,-1,14
 636 1190 636 1190 692 1190 c 0,15,16
 786 1190 786 1190 857.5 1162.5 c 128,-1,17
 929 1135 929 1135 981 1088 c 128,-1,18
 1033 1041 1033 1041 1068 979.5 c 128,-1,19
 1103 918 1103 918 1124 851 c 128,-1,20
 1145 784 1145 784 1153.5 715 c 128,-1,21
 1162 646 1162 646 1162 584 c 0,22,23
 1162 470 1162 470 1135.5 361.5 c 128,-1,24
 1109 253 1109 253 1052 168 c 128,-1,25
 995 83 995 83 906 31.5 c 128,-1,26
 817 -20 817 -20 693 -20 c 0,0,1
972 543 m 0,27,28
 972 595 972 595 968 653 c 128,-1,29
 964 711 964 711 953 767 c 128,-1,30
 942 823 942 823 922.5 873.5 c 128,-1,31
 903 924 903 924 872 963 c 128,-1,32
 841 1002 841 1002 797 1024.5 c 128,-1,33
 753 1047 753 1047 693 1047 c 0,34,35
 632 1047 632 1047 573 1027 c 128,-1,36
 514 1007 514 1007 464.5 981 c 128,-1,37
 415 955 415 955 380.5 929 c 128,-1,38
 346 903 346 903 334 890 c 1,39,-1
 334 285 l 1,40,41
 338 280 338 280 354 266 c 128,-1,42
 370 252 370 252 394.5 234 c 128,-1,43
 419 216 419 216 450.5 196.5 c 128,-1,44
 482 177 482 177 518.5 160.5 c 128,-1,45
 555 144 555 144 594.5 133.5 c 128,-1,46
 634 123 634 123 674 123 c 0,47,48
 738 123 738 123 793 155 c 128,-1,49
 848 187 848 187 887.5 243.5 c 128,-1,50
 927 300 927 300 949.5 376.5 c 128,-1,51
 972 453 972 453 972 543 c 0,27,28
EndSplineSet
Validated: 1
EndChar

StartChar: q
Encoding: 113 113 84
Width: 1305
Flags: HW
LayerCount: 2
Fore
SplineSet
605 1190 m 0,0,1
 662 1190 662 1190 718 1172 c 128,-1,2
 774 1154 774 1154 824 1124 c 128,-1,3
 874 1094 874 1094 916.5 1054.5 c 128,-1,4
 959 1015 959 1015 988 971 c 1,5,-1
 1022 1169 l 1,6,-1
 1161 1169 l 1,7,-1
 1161 -479 l 1,8,-1
 971 -502 l 1,9,-1
 971 164 l 1,10,11
 941 126 941 126 901.5 92.5 c 128,-1,12
 862 59 862 59 816 34 c 128,-1,13
 770 9 770 9 719.5 -5.5 c 128,-1,14
 669 -20 669 -20 615 -20 c 0,15,16
 488 -20 488 -20 398.5 32 c 128,-1,17
 309 84 309 84 252.5 169 c 128,-1,18
 196 254 196 254 170 362.5 c 128,-1,19
 144 471 144 471 144 584 c 0,20,21
 144 701 144 701 169 810 c 128,-1,22
 194 919 194 919 249.5 1003.5 c 128,-1,23
 305 1088 305 1088 392.5 1139 c 128,-1,24
 480 1190 480 1190 605 1190 c 0,0,1
334 584 m 0,25,26
 334 483 334 483 347 410 c 128,-1,27
 360 337 360 337 382 286 c 128,-1,28
 404 235 404 235 432.5 203 c 128,-1,29
 461 171 461 171 492 153 c 128,-1,30
 523 135 523 135 555 129 c 128,-1,31
 587 123 587 123 615 123 c 0,32,33
 668 123 668 123 722.5 137.5 c 128,-1,34
 777 152 777 152 825 174 c 128,-1,35
 873 196 873 196 911.5 221.5 c 128,-1,36
 950 247 950 247 971 268 c 1,37,-1
 971 891 l 1,38,39
 937 925 937 925 890.5 953.5 c 128,-1,40
 844 982 844 982 793.5 1003 c 128,-1,41
 743 1024 743 1024 694 1035.5 c 128,-1,42
 645 1047 645 1047 605 1047 c 0,43,44
 334 1047 334 1047 334 584 c 0,25,26
EndSplineSet
Validated: 1
EndChar

StartChar: r
Encoding: 114 114 85
Width: 883
Flags: HW
LayerCount: 2
Fore
SplineSet
639 1190 m 0,0,1
 698 1190 698 1190 739 1178 c 1,2,-1
 739 1026 l 1,3,4
 735 1030 735 1030 677 1030 c 0,5,6
 635 1030 635 1030 595 1021 c 128,-1,7
 555 1012 555 1012 518 998 c 128,-1,8
 481 984 481 984 449 967.5 c 128,-1,9
 417 951 417 951 393 936 c 128,-1,10
 369 921 369 921 353.5 909.5 c 128,-1,11
 338 898 338 898 334 894 c 1,12,-1
 334 0 l 1,13,-1
 144 0 l 1,14,-1
 144 1169 l 1,15,-1
 287 1169 l 1,16,-1
 317 977 l 1,17,18
 480 1190 480 1190 639 1190 c 0,0,1
EndSplineSet
Validated: 1
EndChar

StartChar: s
Encoding: 115 115 86
Width: 1120
Flags: HW
LayerCount: 2
Fore
SplineSet
154 100 m 1,0,-1
 218 245 l 1,1,2
 249 219 249 219 288.5 197 c 128,-1,3
 328 175 328 175 369.5 159.5 c 128,-1,4
 411 144 411 144 451.5 135.5 c 128,-1,5
 492 127 492 127 525 127 c 0,6,7
 585 127 585 127 636.5 138 c 128,-1,8
 688 149 688 149 725 172 c 128,-1,9
 762 195 762 195 783 230.5 c 128,-1,10
 804 266 804 266 804 314 c 0,11,12
 804 354 804 354 792 383 c 128,-1,13
 780 412 780 412 756 434 c 128,-1,14
 732 456 732 456 696 472.5 c 128,-1,15
 660 489 660 489 613 505 c 2,16,-1
 441 566 l 1,17,18
 351 596 351 596 293 628 c 128,-1,19
 235 660 235 660 202 698.5 c 128,-1,20
 169 737 169 737 156.5 784 c 128,-1,21
 144 831 144 831 144 891 c 0,22,23
 144 936 144 936 163 988 c 128,-1,24
 182 1040 182 1040 228 1084.5 c 128,-1,25
 274 1129 274 1129 350.5 1158.5 c 128,-1,26
 427 1188 427 1188 541 1190 c 0,27,28
 594 1190 594 1190 652.5 1177.5 c 128,-1,29
 711 1165 711 1165 764 1146 c 128,-1,30
 817 1127 817 1127 859.5 1106 c 128,-1,31
 902 1085 902 1085 923 1067 c 1,32,-1
 861 924 l 1,33,34
 712 1042 712 1042 552 1042 c 0,35,36
 484 1042 484 1042 438.5 1030 c 128,-1,37
 393 1018 393 1018 364.5 996.5 c 128,-1,38
 336 975 336 975 324 945.5 c 128,-1,39
 312 916 312 916 312 880 c 0,40,41
 312 857 312 857 317.5 838 c 128,-1,42
 323 819 323 819 339.5 802.5 c 128,-1,43
 356 786 356 786 387 770.5 c 128,-1,44
 418 755 418 755 468 737 c 2,45,-1
 636 678 l 2,46,47
 743 640 743 640 809.5 600.5 c 128,-1,48
 876 561 876 561 913 516 c 128,-1,49
 950 471 950 471 963 420 c 128,-1,50
 976 369 976 369 976 309 c 0,51,52
 976 213 976 213 935.5 149 c 128,-1,53
 895 85 895 85 832 47 c 128,-1,54
 769 9 769 9 691 -7 c 128,-1,55
 613 -23 613 -23 538 -23 c 0,56,57
 489 -23 489 -23 432 -11.5 c 128,-1,58
 375 0 375 0 322 17.5 c 128,-1,59
 269 35 269 35 224 57 c 128,-1,60
 179 79 179 79 154 100 c 1,0,-1
EndSplineSet
Validated: 1
EndChar

StartChar: t
Encoding: 116 116 87
Width: 1052
Flags: HW
LayerCount: 2
Fore
SplineSet
611 -16 m 0,0,1
 533 -16 533 -16 479 4 c 128,-1,2
 425 24 425 24 391.5 67.5 c 128,-1,3
 358 111 358 111 342.5 180.5 c 128,-1,4
 327 250 327 250 327 350 c 2,5,-1
 327 1065 l 1,6,-1
 144 1065 l 1,7,-1
 144 1169 l 1,8,-1
 327 1169 l 1,9,-1
 355 1530 l 1,10,-1
 517 1576 l 1,11,-1
 517 1169 l 1,12,-1
 850 1169 l 1,13,-1
 850 1065 l 1,14,-1
 517 1065 l 1,15,-1
 517 298 l 2,16,17
 517 247 517 247 523 214.5 c 128,-1,18
 529 182 529 182 541 163.5 c 128,-1,19
 553 145 553 145 571.5 138 c 128,-1,20
 590 131 590 131 615 131 c 0,21,22
 654 131 654 131 706 150 c 128,-1,23
 758 169 758 169 841 217 c 1,24,-1
 908 94 l 1,25,26
 886 80 886 80 852.5 61 c 128,-1,27
 819 42 819 42 779 25 c 128,-1,28
 739 8 739 8 695.5 -4 c 128,-1,29
 652 -16 652 -16 611 -16 c 0,0,1
EndSplineSet
Validated: 1
EndChar

StartChar: u
Encoding: 117 117 88
Width: 1254
Flags: HW
LayerCount: 2
Fore
SplineSet
334 442 m 2,0,1
 334 365 334 365 346.5 305.5 c 128,-1,2
 359 246 359 246 386.5 205.5 c 128,-1,3
 414 165 414 165 458.5 144 c 128,-1,4
 503 123 503 123 566 123 c 0,5,6
 760 123 760 123 920 274 c 1,7,-1
 920 1169 l 1,8,-1
 1110 1169 l 1,9,-1
 1110 0 l 1,10,-1
 969 0 l 1,11,-1
 942 176 l 1,12,13
 852 75 852 75 759 27.5 c 128,-1,14
 666 -20 666 -20 556 -20 c 0,15,16
 460 -20 460 -20 383.5 6.5 c 128,-1,17
 307 33 307 33 253.5 89.5 c 128,-1,18
 200 146 200 146 172 233 c 128,-1,19
 144 320 144 320 144 442 c 2,20,-1
 144 1169 l 1,21,-1
 334 1169 l 1,22,-1
 334 442 l 2,0,1
EndSplineSet
Validated: 1
EndChar

StartChar: v
Encoding: 118 118 89
Width: 1332
Flags: HW
LayerCount: 2
Fore
SplineSet
758 0 m 1,0,-1
 572 0 l 1,1,-1
 144 1169 l 1,2,-1
 332 1169 l 1,3,-1
 668 199 l 1,4,-1
 998 1169 l 1,5,-1
 1188 1169 l 1,6,-1
 758 0 l 1,0,-1
EndSplineSet
Validated: 1
EndChar

StartChar: w
Encoding: 119 119 90
Width: 1842
Flags: HW
LayerCount: 2
Fore
SplineSet
918 1015 m 1,0,-1
 670 0 l 1,1,-1
 464 0 l 1,2,-1
 144 1169 l 1,3,-1
 328 1169 l 1,4,-1
 572 164 l 1,5,-1
 820 1169 l 1,6,-1
 1022 1169 l 1,7,-1
 1282 162 l 1,8,-1
 1512 1169 l 1,9,-1
 1698 1169 l 1,10,-1
 1378 0 l 1,11,-1
 1172 0 l 1,12,-1
 918 1015 l 1,0,-1
EndSplineSet
Validated: 1
EndChar

StartChar: x
Encoding: 120 120 91
Width: 1286
Flags: HW
LayerCount: 2
Fore
SplineSet
144 1169 m 1,0,-1
 360 1169 l 1,1,-1
 642 702 l 1,2,-1
 932 1169 l 1,3,-1
 1142 1169 l 1,4,-1
 736 584 l 1,5,-1
 1134 0 l 1,6,-1
 930 0 l 1,7,-1
 648 477 l 1,8,-1
 360 0 l 1,9,-1
 148 0 l 1,10,-1
 556 584 l 1,11,-1
 144 1169 l 1,0,-1
EndSplineSet
Validated: 1
EndChar

StartChar: y
Encoding: 121 121 92
Width: 1321
Flags: HW
LayerCount: 2
Fore
SplineSet
681 249 m 1,0,-1
 982 1169 l 1,1,-1
 1177 1169 l 1,2,-1
 740 -37 l 2,3,4
 716 -103 716 -103 700.5 -144.5 c 128,-1,5
 685 -186 685 -186 677 -203 c 0,6,7
 616 -336 616 -336 523.5 -397.5 c 128,-1,8
 431 -459 431 -459 306 -459 c 1,9,-1
 255 -334 l 1,10,11
 405 -309 405 -309 472 -239 c 0,12,13
 538 -170 538 -170 595 23 c 1,14,-1
 144 1169 l 1,15,-1
 326 1169 l 1,16,-1
 681 249 l 1,0,-1
EndSplineSet
Validated: 1
EndChar

StartChar: z
Encoding: 122 122 93
Width: 1090
Flags: HW
LayerCount: 2
Fore
SplineSet
946 1169 m 1,0,-1
 946 1004 l 1,1,-1
 320 145 l 1,2,-1
 946 145 l 1,3,-1
 946 0 l 1,4,-1
 144 0 l 1,5,-1
 144 166 l 1,6,-1
 782 1029 l 1,7,-1
 174 1029 l 1,8,-1
 174 1169 l 1,9,-1
 946 1169 l 1,0,-1
EndSplineSet
Validated: 1
EndChar

StartChar: braceleft
Encoding: 123 123 94
Width: 936
Flags: HW
LayerCount: 2
Fore
SplineSet
144 759 m 1,0,1
 382 759 382 759 382 1067 c 0,2,3
 382 1184 382 1184 405.5 1272.5 c 128,-1,4
 429 1361 429 1361 479 1420.5 c 128,-1,5
 529 1480 529 1480 606.5 1509.5 c 128,-1,6
 684 1539 684 1539 791 1539 c 1,7,-1
 792 1370 l 1,8,9
 761 1370 761 1370 736 1368.5 c 128,-1,10
 711 1367 711 1367 690 1362 c 128,-1,11
 669 1357 669 1357 651 1347 c 128,-1,12
 633 1337 633 1337 615 1321 c 0,13,14
 598 1305 598 1305 587.5 1280.5 c 128,-1,15
 577 1256 577 1256 566 1211 c 0,16,17
 560 1189 560 1189 556 1147 c 128,-1,18
 552 1105 552 1105 552 1042 c 0,19,20
 552 728 552 728 311 665 c 1,21,22
 552 602 552 602 552 288 c 1,23,24
 553 225 553 225 556 185.5 c 128,-1,25
 559 146 559 146 564 120.5 c 128,-1,26
 569 95 569 95 575.5 79.5 c 128,-1,27
 582 64 582 64 588 49 c 0,28,29
 601 18 601 18 621.5 0.5 c 128,-1,30
 642 -17 642 -17 668 -26 c 128,-1,31
 694 -35 694 -35 725.5 -37.5 c 128,-1,32
 757 -40 757 -40 792 -40 c 1,33,-1
 791 -209 l 1,34,35
 684 -209 684 -209 606.5 -179.5 c 128,-1,36
 529 -150 529 -150 479 -90.5 c 128,-1,37
 429 -31 429 -31 405.5 57.5 c 128,-1,38
 382 146 382 146 382 263 c 0,39,40
 382 571 382 571 144 571 c 1,41,-1
 144 759 l 1,0,1
EndSplineSet
Validated: 1
EndChar

StartChar: bar
Encoding: 124 124 95
Width: 466
Flags: HW
LayerCount: 2
Fore
SplineSet
144 -111 m 1,0,-1
 144 1696 l 1,1,-1
 322 1696 l 1,2,-1
 322 -111 l 1,3,-1
 144 -111 l 1,0,-1
EndSplineSet
Validated: 1
EndChar

StartChar: braceright
Encoding: 125 125 96
Width: 936
Flags: HW
LayerCount: 2
Fore
SplineSet
792 571 m 1,0,1
 554 571 554 571 554 263 c 0,2,3
 554 146 554 146 530.5 58 c 128,-1,4
 507 -30 507 -30 457 -89.5 c 128,-1,5
 407 -149 407 -149 329.5 -179 c 128,-1,6
 252 -209 252 -209 145 -209 c 1,7,-1
 144 -40 l 1,8,9
 179 -40 179 -40 210 -37.5 c 128,-1,10
 241 -35 241 -35 267.5 -26 c 128,-1,11
 294 -17 294 -17 314.5 0.5 c 128,-1,12
 335 18 335 18 348 49 c 0,13,14
 354 64 354 64 360 79.5 c 128,-1,15
 366 95 366 95 371 120.5 c 128,-1,16
 376 146 376 146 379.5 185.5 c 128,-1,17
 383 225 383 225 384 288 c 1,18,19
 384 602 384 602 625 665 c 1,20,21
 384 728 384 728 384 1042 c 0,22,23
 384 1105 384 1105 379.5 1147 c 128,-1,24
 375 1189 375 1189 370 1211 c 0,25,26
 358 1256 358 1256 348 1280.5 c 128,-1,27
 338 1305 338 1305 321 1321 c 0,28,29
 303 1337 303 1337 285 1347 c 128,-1,30
 267 1357 267 1357 246 1362 c 128,-1,31
 225 1367 225 1367 200 1368.5 c 128,-1,32
 175 1370 175 1370 144 1370 c 1,33,-1
 145 1539 l 1,34,35
 252 1539 252 1539 329.5 1509 c 128,-1,36
 407 1479 407 1479 457 1419.5 c 128,-1,37
 507 1360 507 1360 530.5 1272 c 128,-1,38
 554 1184 554 1184 554 1067 c 0,39,40
 554 759 554 759 792 759 c 1,41,-1
 792 571 l 1,0,1
EndSplineSet
Validated: 1
EndChar

StartChar: asciitilde
Encoding: 126 126 97
Width: 1048
Flags: HW
LayerCount: 2
Fore
SplineSet
712 390 m 0,0,1
 656 390 656 390 604 408.5 c 128,-1,2
 552 427 552 427 507 449.5 c 128,-1,3
 462 472 462 472 424 490.5 c 128,-1,4
 386 509 386 509 359 509 c 0,5,6
 330 509 330 509 315 484.5 c 128,-1,7
 300 460 300 460 300 394 c 1,8,-1
 144 394 l 1,9,10
 144 654 144 654 345 654 c 0,11,12
 401 654 401 654 447.5 634.5 c 128,-1,13
 494 615 494 615 535.5 591.5 c 128,-1,14
 577 568 577 568 614 548.5 c 128,-1,15
 651 529 651 529 689 529 c 0,16,17
 748 529 748 529 748 640 c 1,18,-1
 904 640 l 1,19,20
 904 583 904 583 890.5 537 c 128,-1,21
 877 491 877 491 852 458.5 c 128,-1,22
 827 426 827 426 791.5 408 c 128,-1,23
 756 390 756 390 712 390 c 0,0,1
EndSplineSet
Validated: 1
EndChar

StartChar: exclamdown
Encoding: 161 161 98
Width: 512
Flags: HW
LayerCount: 2
Fore
SplineSet
144 1393 m 1,0,-1
 144 1595 l 1,1,-1
 353 1595 l 1,2,-1
 353 1393 l 1,3,-1
 144 1393 l 1,0,-1
368 0 m 1,4,-1
 194 0 l 1,5,-1
 194 1180 l 1,6,-1
 368 1180 l 1,7,-1
 368 0 l 1,4,-1
EndSplineSet
Validated: 1
EndChar

StartChar: cent
Encoding: 162 162 99
Width: 1187
Flags: HW
LayerCount: 2
Fore
SplineSet
618 -22 m 1,0,1
 568 -19 568 -19 513.5 -5 c 128,-1,2
 459 9 459 9 406.5 37.5 c 128,-1,3
 354 66 354 66 306.5 111 c 128,-1,4
 259 156 259 156 223 222 c 128,-1,5
 187 288 187 288 165.5 376.5 c 128,-1,6
 144 465 144 465 144 580 c 0,7,8
 144 694 144 694 165 782.5 c 128,-1,9
 186 871 186 871 222 937.5 c 128,-1,10
 258 1004 258 1004 305.5 1049.5 c 128,-1,11
 353 1095 353 1095 405.5 1124.5 c 128,-1,12
 458 1154 458 1154 512.5 1169 c 128,-1,13
 567 1184 567 1184 618 1189 c 1,14,-1
 618 1329 l 1,15,-1
 721 1329 l 1,16,-1
 721 1186 l 1,17,18
 775 1186 775 1186 831.5 1169 c 128,-1,19
 888 1152 888 1152 934.5 1131.5 c 128,-1,20
 981 1111 981 1111 1011.5 1094 c 128,-1,21
 1042 1077 1042 1077 1043 1077 c 2,22,-1
 986 944 l 2,23,24
 985 944 985 944 963 958.5 c 128,-1,25
 941 973 941 973 904 990.5 c 128,-1,26
 867 1008 867 1008 819.5 1023 c 128,-1,27
 772 1038 772 1038 721 1038 c 1,28,-1
 721 130 l 1,29,30
 774 130 774 130 822.5 141.5 c 128,-1,31
 871 153 871 153 907.5 167.5 c 128,-1,32
 944 182 944 182 965 193.5 c 128,-1,33
 986 205 986 205 986 205 c 1,34,-1
 1032 68 l 2,35,36
 1032 66 1032 66 1002.5 52 c 128,-1,37
 973 38 973 38 927.5 22.5 c 128,-1,38
 882 7 882 7 827 -6 c 128,-1,39
 772 -19 772 -19 721 -19 c 1,40,-1
 721 -159 l 1,41,-1
 618 -159 l 1,42,-1
 618 -22 l 1,0,1
618 1037 m 1,43,44
 334 999 334 999 334 580 c 0,45,46
 334 460 334 460 357 377 c 128,-1,47
 380 294 380 294 419 241 c 128,-1,48
 458 188 458 188 509.5 161.5 c 128,-1,49
 561 135 561 135 618 129 c 1,50,-1
 618 1037 l 1,43,44
EndSplineSet
Validated: 1
EndChar

StartChar: sterling
Encoding: 163 163 100
Width: 1175
Flags: HW
LayerCount: 2
Fore
SplineSet
204 132 m 1,0,1
 213 145 213 145 236 181 c 128,-1,2
 259 217 259 217 282 276 c 128,-1,3
 305 335 305 335 323 416.5 c 128,-1,4
 341 498 341 498 341 603 c 1,5,-1
 144 603 l 1,6,-1
 144 706 l 1,7,-1
 317 706 l 2,8,9
 315 706 315 706 296.5 725 c 128,-1,10
 278 744 278 744 257 778 c 128,-1,11
 236 812 236 812 218.5 857.5 c 128,-1,12
 201 903 201 903 201 956 c 0,13,14
 201 1038 201 1038 234.5 1105.5 c 128,-1,15
 268 1173 268 1173 322.5 1221 c 128,-1,16
 377 1269 377 1269 447.5 1295.5 c 128,-1,17
 518 1322 518 1322 592 1322 c 0,18,19
 658 1322 658 1322 714 1315.5 c 128,-1,20
 770 1309 770 1309 816.5 1299 c 128,-1,21
 863 1289 863 1289 899 1277 c 128,-1,22
 935 1265 935 1265 961 1254 c 0,23,24
 979 1246 979 1246 992.5 1240 c 128,-1,25
 1006 1234 1006 1234 1014 1229 c 0,26,27
 1024 1224 1024 1224 1031 1219 c 1,28,-1
 981 1088 l 1,29,-1
 963 1097 l 2,30,31
 945 1107 945 1107 912.5 1121.5 c 128,-1,32
 880 1136 880 1136 838 1149 c 128,-1,33
 796 1162 796 1162 748 1171 c 128,-1,34
 700 1180 700 1180 651 1180 c 0,35,36
 383 1180 383 1180 383 959 c 0,37,38
 383 850 383 850 468 741 c 1,39,-1
 499 706 l 1,40,-1
 927 706 l 1,41,-1
 927 603 l 1,42,-1
 499 603 l 1,43,44
 499 512 499 512 487 438 c 128,-1,45
 475 364 475 364 458 307.5 c 128,-1,46
 441 251 441 251 423 212 c 128,-1,47
 405 173 405 173 393 151 c 1,48,-1
 380 132 l 1,49,-1
 996 132 l 1,50,-1
 996 0 l 1,51,-1
 199 0 l 1,52,-1
 199 126 l 1,53,-1
 204 132 l 1,0,1
EndSplineSet
Validated: 1
EndChar

StartChar: currency
Encoding: 164 164 101
Width: 1384
Flags: HW
LayerCount: 2
Fore
SplineSet
493 1177 m 1,0,1
 406 1088 406 1088 406 975 c 0,2,3
 406 919 406 919 428.5 869 c 128,-1,4
 451 819 451 819 488.5 781.5 c 128,-1,5
 526 744 526 744 576 721.5 c 128,-1,6
 626 699 626 699 680 699 c 0,7,8
 737 699 737 699 789.5 723.5 c 128,-1,9
 842 748 842 748 882.5 788.5 c 128,-1,10
 923 829 923 829 947.5 882 c 128,-1,11
 972 935 972 935 972 992 c 0,12,13
 972 1047 972 1047 949.5 1097 c 128,-1,14
 927 1147 927 1147 889.5 1184.5 c 128,-1,15
 852 1222 852 1222 802 1244 c 128,-1,16
 752 1266 752 1266 698 1266 c 0,17,18
 582 1266 582 1266 493 1177 c 1,0,1
331 742 m 1,19,20
 263 845 263 845 263 967 c 0,21,22
 263 1097 263 1097 338 1208 c 1,23,-1
 144 1402 l 1,24,-1
 268 1526 l 1,25,-1
 462 1333 l 1,26,27
 574 1409 574 1409 705 1409 c 0,28,29
 827 1409 827 1409 930 1341 c 1,30,-1
 1116 1526 l 1,31,-1
 1240 1402 l 1,32,-1
 1053 1215 l 1,33,34
 1114 1118 1114 1118 1114 1000 c 0,35,36
 1114 869 1114 869 1038 757 c 1,37,-1
 1240 555 l 1,38,-1
 1116 430 l 1,39,-1
 913 633 l 1,40,41
 803 558 803 558 673 558 c 0,42,43
 555 558 555 558 457 619 c 1,44,-1
 268 430 l 1,45,-1
 144 555 l 1,46,-1
 331 742 l 1,19,20
EndSplineSet
Validated: 1
EndChar

StartChar: yen
Encoding: 165 165 102
Width: 1516
Flags: HW
LayerCount: 2
Fore
SplineSet
627 688 m 1,0,-1
 144 1579 l 1,1,-1
 338 1579 l 1,2,-1
 758 788 l 1,3,-1
 1178 1579 l 1,4,-1
 1372 1579 l 1,5,-1
 891 688 l 1,6,-1
 1154 688 l 1,7,-1
 1154 584 l 1,8,-1
 858 584 l 1,9,-1
 858 488 l 1,10,-1
 1154 488 l 1,11,-1
 1154 389 l 1,12,-1
 858 389 l 1,13,-1
 858 0 l 1,14,-1
 668 0 l 1,15,-1
 668 389 l 1,16,-1
 366 389 l 1,17,-1
 366 488 l 1,18,-1
 668 488 l 1,19,-1
 668 584 l 1,20,-1
 366 584 l 1,21,-1
 366 688 l 1,22,-1
 627 688 l 1,0,-1
EndSplineSet
Validated: 1
EndChar

StartChar: brokenbar
Encoding: 166 166 103
Width: 476
Flags: HW
LayerCount: 2
Fore
SplineSet
144 889 m 1,0,-1
 144 1579 l 1,1,-1
 332 1579 l 1,2,-1
 332 889 l 1,3,-1
 144 889 l 1,0,-1
144 0 m 1,4,-1
 144 690 l 1,5,-1
 332 690 l 1,6,-1
 332 0 l 1,7,-1
 144 0 l 1,4,-1
EndSplineSet
Validated: 1
EndChar

StartChar: section
Encoding: 167 167 104
Width: 1078
Flags: HW
LayerCount: 2
Fore
SplineSet
154 20 m 1,0,-1
 215 158 l 1,1,2
 244 132 244 132 281 112 c 128,-1,3
 318 92 318 92 357.5 78.5 c 128,-1,4
 397 65 397 65 435.5 57.5 c 128,-1,5
 474 50 474 50 506 50 c 0,6,7
 559 50 559 50 606 59 c 128,-1,8
 653 68 653 68 688.5 88.5 c 128,-1,9
 724 109 724 109 744.5 142 c 128,-1,10
 765 175 765 175 765 223 c 0,11,12
 765 262 765 262 752.5 290 c 128,-1,13
 740 318 740 318 717 339 c 128,-1,14
 694 360 694 360 660 375.5 c 128,-1,15
 626 391 626 391 584 405 c 2,16,-1
 424 459 l 2,17,18
 338 488 338 488 283.5 519 c 128,-1,19
 229 550 229 550 198 587.5 c 128,-1,20
 167 625 167 625 155.5 670 c 128,-1,21
 144 715 144 715 144 771 c 0,22,23
 144 801 144 801 155.5 836.5 c 128,-1,24
 167 872 167 872 196 904.5 c 128,-1,25
 225 937 225 937 274 961.5 c 128,-1,26
 323 986 323 986 399 995 c 1,27,28
 318 1026 318 1026 268.5 1058 c 128,-1,29
 219 1090 219 1090 191 1125.5 c 128,-1,30
 163 1161 163 1161 153.5 1200.5 c 128,-1,31
 144 1240 144 1240 144 1285 c 0,32,33
 144 1327 144 1327 162.5 1377 c 128,-1,34
 181 1427 181 1427 224.5 1469.5 c 128,-1,35
 268 1512 268 1512 340.5 1540.5 c 128,-1,36
 413 1569 413 1569 521 1569 c 0,37,38
 571 1569 571 1569 627 1557 c 128,-1,39
 683 1545 683 1545 733.5 1527 c 128,-1,40
 784 1509 784 1509 824.5 1488.5 c 128,-1,41
 865 1468 865 1468 883 1452 c 1,42,-1
 825 1316 l 1,43,44
 759 1367 759 1367 684 1395.5 c 128,-1,45
 609 1424 609 1424 531 1424 c 0,46,47
 300 1424 300 1424 300 1275 c 0,48,49
 300 1252 300 1252 306.5 1234 c 128,-1,50
 313 1216 313 1216 330.5 1200.5 c 128,-1,51
 348 1185 348 1185 378.5 1170.5 c 128,-1,52
 409 1156 409 1156 456 1139 c 2,53,-1
 611 1083 l 2,54,55
 720 1044 720 1044 783.5 1004 c 128,-1,56
 847 964 847 964 880 923 c 128,-1,57
 913 882 913 882 922.5 838 c 128,-1,58
 932 794 932 794 932 746 c 0,59,60
 932 702 932 702 914 663 c 128,-1,61
 896 624 896 624 863.5 594 c 128,-1,62
 831 564 831 564 785 545 c 128,-1,63
 739 526 739 526 683 522 c 1,64,65
 766 493 766 493 815.5 456.5 c 128,-1,66
 865 420 865 420 891.5 380 c 128,-1,67
 918 340 918 340 926 298.5 c 128,-1,68
 934 257 934 257 934 219 c 0,69,70
 934 127 934 127 895.5 66.5 c 128,-1,71
 857 6 857 6 797 -30 c 128,-1,72
 737 -66 737 -66 663 -81 c 128,-1,73
 589 -96 589 -96 518 -96 c 0,74,75
 472 -96 472 -96 418 -85 c 128,-1,76
 364 -74 364 -74 313 -57 c 128,-1,77
 262 -40 262 -40 219.5 -19.5 c 128,-1,78
 177 1 177 1 154 20 c 1,0,-1
533 600 m 0,79,80
 651 600 651 600 711.5 639 c 128,-1,81
 772 678 772 678 772 751 c 0,82,83
 772 806 772 806 747 837 c 128,-1,84
 722 868 722 868 685.5 883.5 c 128,-1,85
 649 899 649 899 607.5 902.5 c 128,-1,86
 566 906 566 906 533 906 c 0,87,88
 408 906 408 906 353 867 c 128,-1,89
 298 828 298 828 298 753 c 0,90,91
 298 600 298 600 533 600 c 0,79,80
EndSplineSet
Validated: 1
EndChar

StartChar: dieresis
Encoding: 168 168 105
Width: 998
Flags: HW
LayerCount: 2
Fore
SplineSet
256 1588 m 0,0,1
 304 1588 304 1588 334 1554.5 c 128,-1,2
 364 1521 364 1521 364 1473 c 256,3,4
 364 1425 364 1425 334 1391.5 c 128,-1,5
 304 1358 304 1358 256 1358 c 0,6,7
 231 1358 231 1358 210.5 1367 c 128,-1,8
 190 1376 190 1376 175 1392 c 128,-1,9
 160 1408 160 1408 152 1429 c 128,-1,10
 144 1450 144 1450 144 1473 c 256,11,12
 144 1496 144 1496 152 1517 c 128,-1,13
 160 1538 160 1538 175 1553.5 c 128,-1,14
 190 1569 190 1569 210.5 1578.5 c 128,-1,15
 231 1588 231 1588 256 1588 c 0,0,1
746 1588 m 0,16,17
 794 1588 794 1588 824 1554.5 c 128,-1,18
 854 1521 854 1521 854 1473 c 256,19,20
 854 1425 854 1425 824 1391.5 c 128,-1,21
 794 1358 794 1358 746 1358 c 0,22,23
 721 1358 721 1358 700.5 1367 c 128,-1,24
 680 1376 680 1376 665 1392 c 128,-1,25
 650 1408 650 1408 642 1429 c 128,-1,26
 634 1450 634 1450 634 1473 c 256,27,28
 634 1496 634 1496 642 1517 c 128,-1,29
 650 1538 650 1538 665 1553.5 c 128,-1,30
 680 1569 680 1569 700.5 1578.5 c 128,-1,31
 721 1588 721 1588 746 1588 c 0,16,17
EndSplineSet
Validated: 1
EndChar

StartChar: copyright
Encoding: 169 169 106
Width: 2038
Flags: HW
LayerCount: 2
Fore
SplineSet
1056 336 m 0,0,1
 900 336 900 336 798.5 378 c 128,-1,2
 697 420 697 420 638.5 489 c 128,-1,3
 580 558 580 558 557 647 c 128,-1,4
 534 736 534 736 534 831 c 256,5,6
 534 926 534 926 557 1015 c 128,-1,7
 580 1104 580 1104 638.5 1173 c 128,-1,8
 697 1242 697 1242 798.5 1284 c 128,-1,9
 900 1326 900 1326 1056 1326 c 0,10,11
 1183 1326 1183 1326 1336 1248 c 1,12,-1
 1336 1122 l 1,13,14
 1185 1198 1185 1198 1042 1198 c 0,15,16
 955 1198 955 1198 890 1181 c 128,-1,17
 825 1164 825 1164 782 1122 c 128,-1,18
 739 1080 739 1080 717.5 1009 c 128,-1,19
 696 938 696 938 696 831 c 256,20,21
 696 724 696 724 717.5 653 c 128,-1,22
 739 582 739 582 782 540 c 128,-1,23
 825 498 825 498 890 481 c 128,-1,24
 955 464 955 464 1042 464 c 0,25,26
 1185 464 1185 464 1336 540 c 1,27,-1
 1336 414 l 1,28,29
 1183 336 1183 336 1056 336 c 0,0,1
144 830 m 256,30,31
 144 961 144 961 179 1075 c 128,-1,32
 214 1189 214 1189 276 1284 c 128,-1,33
 338 1379 338 1379 422 1454 c 128,-1,34
 506 1529 506 1529 603 1581 c 128,-1,35
 700 1633 700 1633 806 1660 c 128,-1,36
 912 1687 912 1687 1019 1687 c 256,37,38
 1126 1687 1126 1687 1232.5 1659.5 c 128,-1,39
 1339 1632 1339 1632 1436.5 1580 c 128,-1,40
 1534 1528 1534 1528 1617.5 1453 c 128,-1,41
 1701 1378 1701 1378 1762.5 1283 c 128,-1,42
 1824 1188 1824 1188 1859 1074 c 128,-1,43
 1894 960 1894 960 1894 830 c 1,44,45
 1893 702 1893 702 1860 589 c 128,-1,46
 1827 476 1827 476 1767.5 381.5 c 128,-1,47
 1708 287 1708 287 1626 211.5 c 128,-1,48
 1544 136 1544 136 1447 84 c 128,-1,49
 1350 32 1350 32 1241 4.5 c 128,-1,50
 1132 -23 1132 -23 1019 -23 c 0,51,52
 908 -23 908 -23 800 4 c 128,-1,53
 692 31 692 31 594.5 82 c 128,-1,54
 497 133 497 133 414.5 207.5 c 128,-1,55
 332 282 332 282 272 377 c 128,-1,56
 212 472 212 472 178 585.5 c 128,-1,57
 144 699 144 699 144 830 c 256,30,31
292 829 m 0,58,59
 292 677 292 677 344.5 544.5 c 128,-1,60
 397 412 397 412 492.5 313.5 c 128,-1,61
 588 215 588 215 722 158 c 128,-1,62
 856 101 856 101 1019 101 c 256,63,64
 1182 101 1182 101 1316 158 c 128,-1,65
 1450 215 1450 215 1545.5 313.5 c 128,-1,66
 1641 412 1641 412 1693.5 544.5 c 128,-1,67
 1746 677 1746 677 1746 829 c 0,68,69
 1746 942 1746 942 1716 1040.5 c 128,-1,70
 1686 1139 1686 1139 1634.5 1220.5 c 128,-1,71
 1583 1302 1583 1302 1512.5 1365.5 c 128,-1,72
 1442 1429 1442 1429 1361.5 1472.5 c 128,-1,73
 1281 1516 1281 1516 1193.5 1539 c 128,-1,74
 1106 1562 1106 1562 1019 1562 c 0,75,76
 931 1562 931 1562 843 1539 c 128,-1,77
 755 1516 755 1516 674 1472 c 128,-1,78
 593 1428 593 1428 523.5 1364.5 c 128,-1,79
 454 1301 454 1301 402.5 1219.5 c 128,-1,80
 351 1138 351 1138 321.5 1040 c 128,-1,81
 292 942 292 942 292 829 c 0,58,59
EndSplineSet
Validated: 1
EndChar

StartChar: ordfeminine
Encoding: 170 170 107
Width: 1042
Flags: HW
LayerCount: 2
Fore
SplineSet
208 575 m 1,0,-1
 892 575 l 1,1,-1
 892 446 l 1,2,-1
 208 446 l 1,3,-1
 208 575 l 1,0,-1
499 781 m 0,4,5
 555 781 555 781 600 800 c 128,-1,6
 645 819 645 819 676 842 c 128,-1,7
 707 865 707 865 722.5 884 c 128,-1,8
 738 903 738 903 737 903 c 1,9,-1
 737 1141 l 1,10,11
 686 1149 686 1149 642 1153.5 c 128,-1,12
 598 1158 598 1158 561 1158 c 0,13,14
 305 1158 305 1158 305 971 c 0,15,16
 305 918 305 918 315 882 c 128,-1,17
 325 846 325 846 347.5 823.5 c 128,-1,18
 370 801 370 801 407 791 c 128,-1,19
 444 781 444 781 499 781 c 0,4,5
144 960 m 0,20,21
 144 1032 144 1032 170 1087.5 c 128,-1,22
 196 1143 196 1143 243.5 1181 c 128,-1,23
 291 1219 291 1219 357 1238.5 c 128,-1,24
 423 1258 423 1258 503 1258 c 0,25,26
 547 1258 547 1258 589 1252.5 c 128,-1,27
 631 1247 631 1247 664 1240.5 c 128,-1,28
 697 1234 697 1234 717 1227.5 c 128,-1,29
 737 1221 737 1221 737 1218 c 2,30,-1
 737 1276 l 2,31,32
 737 1334 737 1334 730.5 1378.5 c 128,-1,33
 724 1423 724 1423 703.5 1453 c 128,-1,34
 683 1483 683 1483 645.5 1498 c 128,-1,35
 608 1513 608 1513 545 1513 c 0,36,37
 485 1513 485 1513 431.5 1501.5 c 128,-1,38
 378 1490 378 1490 338 1476.5 c 128,-1,39
 298 1463 298 1463 275.5 1452.5 c 128,-1,40
 253 1442 253 1442 254 1443 c 1,41,-1
 201 1552 l 2,42,43
 202 1552 202 1552 228 1565 c 128,-1,44
 254 1578 254 1578 299 1594.5 c 128,-1,45
 344 1611 344 1611 405 1624.5 c 128,-1,46
 466 1638 466 1638 537 1638 c 0,47,48
 639 1638 639 1638 708 1616 c 128,-1,49
 777 1594 777 1594 819.5 1545.5 c 128,-1,50
 862 1497 862 1497 880 1420.5 c 128,-1,51
 898 1344 898 1344 898 1235 c 2,52,-1
 898 686 l 1,53,-1
 782 686 l 1,54,-1
 755 828 l 2,55,56
 754 828 754 828 739 803 c 128,-1,57
 724 778 724 778 690 748 c 128,-1,58
 656 718 656 718 600 693 c 128,-1,59
 544 668 544 668 461 668 c 0,60,61
 387 668 387 668 328.5 687.5 c 128,-1,62
 270 707 270 707 229 744 c 128,-1,63
 188 781 188 781 166 835.5 c 128,-1,64
 144 890 144 890 144 960 c 0,20,21
EndSplineSet
Validated: 1
EndChar

StartChar: guillemotleft
Encoding: 171 171 108
Width: 1504
Flags: HW
LayerCount: 2
Fore
SplineSet
1360 842 m 1,0,-1
 923 577 l 1,1,-1
 1360 306 l 1,2,-1
 1360 99 l 1,3,-1
 752 481 l 1,4,-1
 752 666 l 1,5,-1
 1360 1049 l 1,6,-1
 1360 842 l 1,0,-1
752 842 m 1,7,-1
 316 577 l 1,8,-1
 752 306 l 1,9,-1
 752 99 l 1,10,-1
 144 481 l 1,11,-1
 144 666 l 1,12,-1
 752 1049 l 1,13,-1
 752 842 l 1,7,-1
EndSplineSet
Validated: 1
EndChar

StartChar: logicalnot
Encoding: 172 172 109
Width: 1642
Flags: HW
LayerCount: 2
Fore
SplineSet
1322 338 m 1,0,-1
 1322 1023 l 1,1,-1
 144 1023 l 1,2,-1
 144 1174 l 1,3,-1
 1498 1174 l 1,4,-1
 1498 338 l 1,5,-1
 1322 338 l 1,0,-1
EndSplineSet
Validated: 1
EndChar

StartChar: uni00AD
Encoding: 173 173 110
Width: 756
Flags: HW
LayerCount: 2
Fore
SplineSet
612 508 m 1,0,-1
 144 508 l 1,1,-1
 144 639 l 1,2,-1
 612 639 l 1,3,-1
 612 508 l 1,0,-1
EndSplineSet
Validated: 1
EndChar

StartChar: registered
Encoding: 174 174 111
Width: 1467
Flags: HW
LayerCount: 2
Fore
SplineSet
710 1150 m 2,0,1
 783 1150 783 1150 820.5 1173 c 128,-1,2
 858 1196 858 1196 858 1256 c 0,3,4
 858 1273 858 1273 850.5 1286 c 128,-1,5
 843 1299 843 1299 821.5 1308 c 128,-1,6
 800 1317 800 1317 761.5 1321.5 c 128,-1,7
 723 1326 723 1326 662 1326 c 1,8,-1
 662 1150 l 1,9,-1
 710 1150 l 2,0,1
962 1261 m 0,10,11
 962 1225 962 1225 954.5 1197.5 c 128,-1,12
 947 1170 947 1170 928 1149.5 c 128,-1,13
 909 1129 909 1129 877 1113.5 c 128,-1,14
 845 1098 845 1098 796 1086 c 1,15,-1
 976 836 l 1,16,17
 966 833 966 833 948 823 c 2,18,-1
 876 785 l 1,19,20
 704 1066 704 1066 702 1068 c 1,21,-1
 659 1068 l 1,22,-1
 659 807 l 1,23,-1
 553 807 l 1,24,-1
 553 1408 l 1,25,-1
 673 1408 l 2,26,27
 720 1408 720 1408 757 1405 c 128,-1,28
 794 1402 794 1402 823.5 1395 c 128,-1,29
 853 1388 853 1388 876.5 1375.5 c 128,-1,30
 900 1363 900 1363 921 1344 c 0,31,32
 962 1306 962 1306 962 1261 c 0,10,11
733 542 m 0,33,34
 607 542 607 542 499 586.5 c 128,-1,35
 391 631 391 631 312 708 c 128,-1,36
 233 785 233 785 188.5 888 c 128,-1,37
 144 991 144 991 144 1108 c 0,38,39
 144 1224 144 1224 189 1327 c 128,-1,40
 234 1430 234 1430 313 1507 c 128,-1,41
 392 1584 392 1584 499.5 1629 c 128,-1,42
 607 1674 607 1674 733 1674 c 0,43,44
 857 1674 857 1674 964.5 1630 c 128,-1,45
 1072 1586 1072 1586 1151.5 1509.5 c 128,-1,46
 1231 1433 1231 1433 1277 1329.5 c 128,-1,47
 1323 1226 1323 1226 1323 1108 c 256,48,49
 1323 990 1323 990 1277.5 886.5 c 128,-1,50
 1232 783 1232 783 1152.5 706.5 c 128,-1,51
 1073 630 1073 630 965 586 c 128,-1,52
 857 542 857 542 733 542 c 0,33,34
732 641 m 256,53,54
 836 641 836 641 924.5 677.5 c 128,-1,55
 1013 714 1013 714 1077.5 777 c 128,-1,56
 1142 840 1142 840 1178.5 924.5 c 128,-1,57
 1215 1009 1215 1009 1215 1106 c 0,58,59
 1215 1205 1215 1205 1178 1290 c 128,-1,60
 1141 1375 1141 1375 1076 1438 c 128,-1,61
 1011 1501 1011 1501 922.5 1536.5 c 128,-1,62
 834 1572 834 1572 732 1572 c 0,63,64
 629 1572 629 1572 541.5 1536 c 128,-1,65
 454 1500 454 1500 389.5 1437.5 c 128,-1,66
 325 1375 325 1375 288.5 1289.5 c 128,-1,67
 252 1204 252 1204 252 1105 c 0,68,69
 252 1007 252 1007 288 922 c 128,-1,70
 324 837 324 837 388.5 774.5 c 128,-1,71
 453 712 453 712 540.5 676.5 c 128,-1,72
 628 641 628 641 732 641 c 256,53,54
EndSplineSet
Validated: 1
EndChar

StartChar: macron
Encoding: 175 175 112
Width: 970
Flags: HW
LayerCount: 2
Fore
SplineSet
826 98 m 1,0,-1
 144 98 l 1,1,-1
 144 215 l 1,2,-1
 826 215 l 1,3,-1
 826 98 l 1,0,-1
EndSplineSet
Validated: 1
EndChar

StartChar: degree
Encoding: 176 176 113
Width: 768
Flags: HW
LayerCount: 2
Fore
SplineSet
386 1048 m 0,0,1
 354 1048 354 1048 327.5 1036 c 128,-1,2
 301 1024 301 1024 282 1004 c 128,-1,3
 263 984 263 984 252 956.5 c 128,-1,4
 241 929 241 929 241 899 c 0,5,6
 241 868 241 868 252.5 841 c 128,-1,7
 264 814 264 814 283.5 793.5 c 128,-1,8
 303 773 303 773 329.5 761.5 c 128,-1,9
 356 750 356 750 386 750 c 0,10,11
 417 750 417 750 443 761.5 c 128,-1,12
 469 773 469 773 488 793.5 c 128,-1,13
 507 814 507 814 517 841 c 128,-1,14
 527 868 527 868 527 899 c 256,15,16
 527 930 527 930 517 957.5 c 128,-1,17
 507 985 507 985 488 1005 c 128,-1,18
 469 1025 469 1025 443 1036.5 c 128,-1,19
 417 1048 417 1048 386 1048 c 0,0,1
388 1139 m 0,20,21
 440 1139 440 1139 483.5 1121 c 128,-1,22
 527 1103 527 1103 558 1070.5 c 128,-1,23
 589 1038 589 1038 606.5 994 c 128,-1,24
 624 950 624 950 624 899 c 256,25,26
 624 848 624 848 607 804 c 128,-1,27
 590 760 590 760 559 728 c 128,-1,28
 528 696 528 696 484.5 678 c 128,-1,29
 441 660 441 660 388 660 c 0,30,31
 334 660 334 660 289 678.5 c 128,-1,32
 244 697 244 697 211.5 729 c 128,-1,33
 179 761 179 761 161.5 804.5 c 128,-1,34
 144 848 144 848 144 899 c 0,35,36
 144 951 144 951 162 995 c 128,-1,37
 180 1039 180 1039 212.5 1071 c 128,-1,38
 245 1103 245 1103 290 1121 c 128,-1,39
 335 1139 335 1139 388 1139 c 0,20,21
EndSplineSet
Validated: 1
EndChar

StartChar: plusminus
Encoding: 177 177 114
Width: 1056
Flags: HW
LayerCount: 2
Fore
SplineSet
912 518 m 1,0,-1
 598 518 l 1,1,-1
 598 174 l 1,2,-1
 457 174 l 1,3,-1
 457 518 l 1,4,-1
 144 518 l 1,5,-1
 144 651 l 1,6,-1
 457 651 l 1,7,-1
 457 995 l 1,8,-1
 598 995 l 1,9,-1
 598 651 l 1,10,-1
 912 651 l 1,11,-1
 912 518 l 1,0,-1
879 -55 m 1,12,-1
 178 -55 l 1,13,-1
 178 88 l 1,14,-1
 879 88 l 1,15,-1
 879 -55 l 1,12,-1
EndSplineSet
Validated: 1
EndChar

StartChar: uni00B2
Encoding: 178 178 115
Width: 954
Flags: HW
LayerCount: 2
Fore
SplineSet
376 820 m 1,0,-1
 782 820 l 1,1,-1
 782 668 l 1,2,-1
 144 668 l 1,3,-1
 144 805 l 1,4,-1
 415 1045 l 2,5,6
 483 1105 483 1105 526.5 1148 c 128,-1,7
 570 1191 570 1191 594.5 1225 c 128,-1,8
 619 1259 619 1259 628.5 1289 c 128,-1,9
 638 1319 638 1319 638 1354 c 0,10,11
 638 1424 638 1424 586 1459.5 c 128,-1,12
 534 1495 534 1495 449 1495 c 0,13,14
 410 1495 410 1495 360.5 1486.5 c 128,-1,15
 311 1478 311 1478 266.5 1468.5 c 128,-1,16
 222 1459 222 1459 191.5 1451 c 128,-1,17
 161 1443 161 1443 161 1443 c 1,18,-1
 161 1588 l 1,19,20
 161 1588 161 1588 183.5 1596 c 128,-1,21
 206 1604 206 1604 246.5 1613 c 128,-1,22
 287 1622 287 1622 343 1630 c 128,-1,23
 399 1638 399 1638 467 1638 c 0,24,25
 567 1638 567 1638 633 1610 c 128,-1,26
 699 1582 699 1582 738.5 1540 c 128,-1,27
 778 1498 778 1498 794 1448.5 c 128,-1,28
 810 1399 810 1399 810 1357 c 0,29,30
 810 1309 810 1309 798 1266.5 c 128,-1,31
 786 1224 786 1224 758 1180.5 c 128,-1,32
 730 1137 730 1137 683.5 1089 c 128,-1,33
 637 1041 637 1041 567 982 c 2,34,-1
 376 820 l 1,0,-1
EndSplineSet
Validated: 1
EndChar

StartChar: uni00B3
Encoding: 179 179 116
Width: 1005
Flags: HW
LayerCount: 2
Fore
SplineSet
676 1383 m 1,0,1
 676 1458 676 1458 621.5 1499.5 c 128,-1,2
 567 1541 567 1541 452 1541 c 0,3,4
 423 1541 423 1541 392.5 1536.5 c 128,-1,5
 362 1532 362 1532 334.5 1525.5 c 128,-1,6
 307 1519 307 1519 283.5 1511.5 c 128,-1,7
 260 1504 260 1504 247 1498 c 2,8,-1
 218 1484 l 1,9,-1
 171 1611 l 1,10,11
 173 1612 173 1612 196.5 1622.5 c 128,-1,12
 220 1633 220 1633 259 1645 c 128,-1,13
 298 1657 298 1657 349 1667 c 128,-1,14
 400 1677 400 1677 457 1677 c 0,15,16
 494 1677 494 1677 536 1671.5 c 128,-1,17
 578 1666 578 1666 619.5 1653.5 c 128,-1,18
 661 1641 661 1641 699 1620 c 128,-1,19
 737 1599 737 1599 766 1567.5 c 128,-1,20
 795 1536 795 1536 812.5 1493 c 128,-1,21
 830 1450 830 1450 830 1394 c 0,22,23
 829 1324 829 1324 801 1276 c 128,-1,24
 773 1228 773 1228 734.5 1198 c 128,-1,25
 696 1168 696 1168 654.5 1155 c 128,-1,26
 613 1142 613 1142 585 1142 c 1,27,28
 610 1137 610 1137 640 1127.5 c 128,-1,29
 670 1118 670 1118 700.5 1102.5 c 128,-1,30
 731 1087 731 1087 759.5 1063.5 c 128,-1,31
 788 1040 788 1040 810.5 1007.5 c 128,-1,32
 833 975 833 975 846.5 932.5 c 128,-1,33
 860 890 860 890 861 835 c 1,34,35
 861 758 861 758 826 702 c 128,-1,36
 791 646 791 646 735 610 c 128,-1,37
 679 574 679 574 609.5 557 c 128,-1,38
 540 540 540 540 472 540 c 0,39,40
 305 540 305 540 158 610 c 0,41,42
 144 616 144 616 144 618 c 2,43,-1
 195 745 l 1,44,45
 195 745 195 745 217.5 734 c 128,-1,46
 240 723 240 723 278 709 c 128,-1,47
 316 695 316 695 367 683.5 c 128,-1,48
 418 672 418 672 475 672 c 1,49,50
 523 673 523 673 563.5 686 c 128,-1,51
 604 699 604 699 633.5 722.5 c 128,-1,52
 663 746 663 746 679 779 c 128,-1,53
 695 812 695 812 695 853 c 0,54,55
 695 945 695 945 630.5 1001 c 128,-1,56
 566 1057 566 1057 433 1072 c 1,57,-1
 433 1207 l 1,58,59
 479 1207 479 1207 522.5 1217.5 c 128,-1,60
 566 1228 566 1228 599.5 1249.5 c 128,-1,61
 633 1271 633 1271 654 1304.5 c 128,-1,62
 675 1338 675 1338 676 1383 c 1,0,1
EndSplineSet
Validated: 1
EndChar

StartChar: acute
Encoding: 180 180 117
Width: 679
Flags: HW
LayerCount: 2
Fore
SplineSet
201 1472 m 1,0,-1
 144 1498 l 1,1,-1
 303 2109 l 1,2,-1
 535 2018 l 1,3,-1
 201 1472 l 1,0,-1
EndSplineSet
Validated: 1
EndChar

StartChar: paragraph
Encoding: 182 182 118
Width: 1288
Flags: HW
LayerCount: 2
Fore
SplineSet
1144 1578 m 1,0,-1
 1144 0 l 1,1,-1
 958 0 l 1,2,-1
 958 1428 l 1,3,-1
 823 1428 l 1,4,-1
 823 0 l 1,5,-1
 633 0 l 1,6,-1
 633 905 l 1,7,8
 539 905 539 905 451 921 c 128,-1,9
 363 937 363 937 294.5 976.5 c 128,-1,10
 226 1016 226 1016 185 1082.5 c 128,-1,11
 144 1149 144 1149 144 1250 c 0,12,13
 144 1321 144 1321 164.5 1373 c 128,-1,14
 185 1425 185 1425 221.5 1461 c 128,-1,15
 258 1497 258 1497 308 1519.5 c 128,-1,16
 358 1542 358 1542 417.5 1555 c 128,-1,17
 477 1568 477 1568 543 1572.5 c 128,-1,18
 609 1577 609 1577 678 1578 c 1,19,-1
 1144 1578 l 1,0,-1
EndSplineSet
Validated: 1
EndChar

StartChar: periodcentered
Encoding: 183 183 119
Width: 508
Flags: HW
LayerCount: 2
Fore
SplineSet
256 765 m 0,0,1
 304 765 304 765 334 731.5 c 128,-1,2
 364 698 364 698 364 650 c 256,3,4
 364 602 364 602 334 568.5 c 128,-1,5
 304 535 304 535 256 535 c 0,6,7
 231 535 231 535 210.5 544 c 128,-1,8
 190 553 190 553 175 569 c 128,-1,9
 160 585 160 585 152 606 c 128,-1,10
 144 627 144 627 144 650 c 256,11,12
 144 673 144 673 152 694 c 128,-1,13
 160 715 160 715 175 730.5 c 128,-1,14
 190 746 190 746 210.5 755.5 c 128,-1,15
 231 765 231 765 256 765 c 0,0,1
EndSplineSet
Validated: 1
EndChar

StartChar: cedilla
Encoding: 184 184 120
Width: 724
Flags: HW
LayerCount: 2
Fore
SplineSet
144.177734375 -540 m 1,0,-1
 144.177734375 -423 l 1,1,2
 142.177734375 -423 142.177734375 -423 162.677734375 -429.5 c 128,-1,3
 183.177734375 -436 183.177734375 -436 211.677734375 -443.5 c 128,-1,4
 240.177734375 -451 240.177734375 -451 268.177734375 -457.5 c 128,-1,5
 296.177734375 -464 296.177734375 -464 308.177734375 -464 c 0,6,7
 342.177734375 -464 342.177734375 -464 367.677734375 -460 c 128,-1,8
 393.177734375 -456 393.177734375 -456 410.177734375 -442 c 128,-1,9
 427.177734375 -428 427.177734375 -428 436.177734375 -401 c 128,-1,10
 445.177734375 -374 445.177734375 -374 447.177734375 -328 c 1,11,12
 447.177734375 -289 447.177734375 -289 432.677734375 -261.5 c 128,-1,13
 418.177734375 -234 418.177734375 -234 387.677734375 -217.5 c 128,-1,14
 357.177734375 -201 357.177734375 -201 309.177734375 -193.5 c 128,-1,15
 261.177734375 -186 261.177734375 -186 194.177734375 -186 c 1,16,-1
 194.177734375 76 l 1,17,-1
 315.177734375 76 l 1,18,-1
 315.177734375 -98 l 1,19,20
 376.177734375 -98 376.177734375 -98 425.177734375 -110.5 c 128,-1,21
 474.177734375 -123 474.177734375 -123 508.677734375 -151.5 c 128,-1,22
 543.177734375 -180 543.177734375 -180 561.677734375 -226.5 c 128,-1,23
 580.177734375 -273 580.177734375 -273 580.177734375 -342 c 0,24,25
 580.177734375 -578 580.177734375 -578 328.177734375 -578 c 0,26,27
 301.177734375 -578 301.177734375 -578 273.177734375 -573.5 c 128,-1,28
 245.177734375 -569 245.177734375 -569 221.177734375 -563 c 128,-1,29
 197.177734375 -557 197.177734375 -557 178.177734375 -551 c 128,-1,30
 159.177734375 -545 159.177734375 -545 150.177734375 -542 c 2,31,-1
 144.177734375 -540 l 1,0,-1
EndSplineSet
Validated: 524293
EndChar

StartChar: uni00B9
Encoding: 185 185 121
Width: 665
Flags: HW
LayerCount: 2
Fore
SplineSet
352 478 m 1,0,-1
 352 1304 l 1,1,-1
 181 1232 l 1,2,-1
 144 1345 l 1,3,-1
 381 1440 l 1,4,-1
 521 1414 l 1,5,-1
 521 478 l 1,6,-1
 352 478 l 1,0,-1
EndSplineSet
Validated: 1
EndChar

StartChar: ordmasculine
Encoding: 186 186 122
Width: 1137
Flags: HW
LayerCount: 2
Fore
SplineSet
230 575 m 1,0,-1
 914 575 l 1,1,-1
 914 446 l 1,2,-1
 230 446 l 1,3,-1
 230 575 l 1,0,-1
301 1154 m 256,4,5
 301 1077 301 1077 316 1011.5 c 128,-1,6
 331 946 331 946 363 898.5 c 128,-1,7
 395 851 395 851 445.5 824 c 128,-1,8
 496 797 496 797 568 797 c 256,9,10
 640 797 640 797 690.5 823.5 c 128,-1,11
 741 850 741 850 773 897.5 c 128,-1,12
 805 945 805 945 820 1010.5 c 128,-1,13
 835 1076 835 1076 835 1154 c 0,14,15
 835 1230 835 1230 820 1295.5 c 128,-1,16
 805 1361 805 1361 773 1409 c 128,-1,17
 741 1457 741 1457 690.5 1484.5 c 128,-1,18
 640 1512 640 1512 568 1512 c 256,19,20
 496 1512 496 1512 445.5 1485 c 128,-1,21
 395 1458 395 1458 363 1410 c 128,-1,22
 331 1362 331 1362 316 1296.5 c 128,-1,23
 301 1231 301 1231 301 1154 c 256,4,5
144 1152 m 0,24,25
 144 1251 144 1251 169.5 1339 c 128,-1,26
 195 1427 195 1427 247.5 1493.5 c 128,-1,27
 300 1560 300 1560 379.5 1599 c 128,-1,28
 459 1638 459 1638 568 1638 c 256,29,30
 677 1638 677 1638 757 1599 c 128,-1,31
 837 1560 837 1560 889.5 1493.5 c 128,-1,32
 942 1427 942 1427 967.5 1339 c 128,-1,33
 993 1251 993 1251 993 1152 c 0,34,35
 993 1052 993 1052 967.5 964.5 c 128,-1,36
 942 877 942 877 889.5 811.5 c 128,-1,37
 837 746 837 746 757 708 c 128,-1,38
 677 670 677 670 568 670 c 0,39,40
 460 670 460 670 380.5 707.5 c 128,-1,41
 301 745 301 745 248.5 810 c 128,-1,42
 196 875 196 875 170 963 c 128,-1,43
 144 1051 144 1051 144 1152 c 0,24,25
EndSplineSet
Validated: 1
EndChar

StartChar: guillemotright
Encoding: 187 187 123
Width: 1504
Flags: HW
LayerCount: 2
Fore
SplineSet
144 1049 m 1,0,-1
 753 666 l 1,1,-1
 753 481 l 1,2,-1
 144 99 l 1,3,-1
 144 306 l 1,4,-1
 591 577 l 1,5,-1
 144 842 l 1,6,-1
 144 1049 l 1,0,-1
751 1049 m 1,7,-1
 1360 666 l 1,8,-1
 1360 481 l 1,9,-1
 751 99 l 1,10,-1
 751 306 l 1,11,-1
 1198 577 l 1,12,-1
 751 842 l 1,13,-1
 751 1049 l 1,7,-1
EndSplineSet
Validated: 1
EndChar

StartChar: onequarter
Encoding: 188 188 124
Width: 1806
Flags: HW
LayerCount: 2
Fore
SplineSet
1383 946 m 1,0,-1
 1511 915 l 1,1,-1
 1511 145 l 1,2,-1
 1662 145 l 1,3,-1
 1662 34 l 1,4,-1
 1511 34 l 1,5,-1
 1511 -227 l 1,6,-1
 1366 -250 l 1,7,-1
 1366 34 l 1,8,-1
 841 34 l 1,9,-1
 819 144 l 1,10,-1
 1383 946 l 1,0,-1
978 144 m 1,11,-1
 1366 144 l 1,12,-1
 1366 703 l 1,13,-1
 1244 514 l 1,14,-1
 978 144 l 1,11,-1
352 568 m 1,15,-1
 352 1413 l 1,16,-1
 182 1341 l 1,17,-1
 144 1434 l 1,18,-1
 382 1529 l 1,19,-1
 512 1503 l 1,20,-1
 512 568 l 1,21,-1
 352 568 l 1,15,-1
214 -30 m 1,22,-1
 1253 1365 l 1,23,-1
 1375 1272 l 1,24,-1
 334 -123 l 1,25,-1
 214 -30 l 1,22,-1
EndSplineSet
Validated: 1
EndChar

StartChar: onehalf
Encoding: 189 189 125
Width: 1964
Flags: HW
LayerCount: 2
Fore
SplineSet
352 568 m 1,0,-1
 352 1413 l 1,1,-1
 182 1341 l 1,2,-1
 144 1434 l 1,3,-1
 382 1529 l 1,4,-1
 512 1503 l 1,5,-1
 512 568 l 1,6,-1
 352 568 l 1,0,-1
214 -30 m 1,7,-1
 1253 1365 l 1,8,-1
 1375 1272 l 1,9,-1
 334 -123 l 1,10,-1
 214 -30 l 1,7,-1
1386 -20 m 1,11,-1
 1792 -20 l 1,12,-1
 1792 -172 l 1,13,-1
 1154 -172 l 1,14,-1
 1154 -35 l 1,15,-1
 1425 205 l 2,16,17
 1493 265 1493 265 1536.5 308 c 128,-1,18
 1580 351 1580 351 1604.5 385 c 128,-1,19
 1629 419 1629 419 1638.5 449 c 128,-1,20
 1648 479 1648 479 1648 514 c 0,21,22
 1648 584 1648 584 1596 619.5 c 128,-1,23
 1544 655 1544 655 1459 655 c 0,24,25
 1420 655 1420 655 1370.5 646.5 c 128,-1,26
 1321 638 1321 638 1276.5 628.5 c 128,-1,27
 1232 619 1232 619 1201.5 611 c 128,-1,28
 1171 603 1171 603 1171 603 c 1,29,-1
 1171 748 l 1,30,31
 1171 748 1171 748 1193.5 756 c 128,-1,32
 1216 764 1216 764 1256.5 773 c 128,-1,33
 1297 782 1297 782 1353 790 c 128,-1,34
 1409 798 1409 798 1477 798 c 0,35,36
 1577 798 1577 798 1643 770 c 128,-1,37
 1709 742 1709 742 1748.5 700 c 128,-1,38
 1788 658 1788 658 1804 608.5 c 128,-1,39
 1820 559 1820 559 1820 517 c 0,40,41
 1820 469 1820 469 1808 426.5 c 128,-1,42
 1796 384 1796 384 1768 340.5 c 128,-1,43
 1740 297 1740 297 1693.5 249 c 128,-1,44
 1647 201 1647 201 1577 142 c 2,45,-1
 1386 -20 l 1,11,-1
EndSplineSet
Validated: 1
EndChar

StartChar: threequarters
Encoding: 190 190 126
Width: 2084
Flags: HW
LayerCount: 2
Fore
SplineSet
1661 946 m 1,0,-1
 1789 915 l 1,1,-1
 1789 145 l 1,2,-1
 1940 145 l 1,3,-1
 1940 34 l 1,4,-1
 1789 34 l 1,5,-1
 1789 -227 l 1,6,-1
 1644 -250 l 1,7,-1
 1644 34 l 1,8,-1
 1119 34 l 1,9,-1
 1097 144 l 1,10,-1
 1661 946 l 1,0,-1
1256 144 m 1,11,-1
 1644 144 l 1,12,-1
 1644 703 l 1,13,-1
 1522 514 l 1,14,-1
 1256 144 l 1,11,-1
492 -30 m 1,15,-1
 1522 1365 l 1,16,-1
 1653 1272 l 1,17,-1
 612 -123 l 1,18,-1
 492 -30 l 1,15,-1
676 1383 m 1,19,20
 676 1458 676 1458 621.5 1499.5 c 128,-1,21
 567 1541 567 1541 452 1541 c 0,22,23
 423 1541 423 1541 392.5 1536.5 c 128,-1,24
 362 1532 362 1532 334.5 1525.5 c 128,-1,25
 307 1519 307 1519 283.5 1511.5 c 128,-1,26
 260 1504 260 1504 247 1498 c 2,27,-1
 218 1484 l 1,28,-1
 171 1611 l 1,29,30
 173 1612 173 1612 196.5 1622.5 c 128,-1,31
 220 1633 220 1633 259 1645 c 128,-1,32
 298 1657 298 1657 349 1667 c 128,-1,33
 400 1677 400 1677 457 1677 c 0,34,35
 494 1677 494 1677 536 1671.5 c 128,-1,36
 578 1666 578 1666 619.5 1653.5 c 128,-1,37
 661 1641 661 1641 699 1620 c 128,-1,38
 737 1599 737 1599 766 1567.5 c 128,-1,39
 795 1536 795 1536 812.5 1493 c 128,-1,40
 830 1450 830 1450 830 1394 c 0,41,42
 829 1324 829 1324 801 1276 c 128,-1,43
 773 1228 773 1228 734.5 1198 c 128,-1,44
 696 1168 696 1168 654.5 1155 c 128,-1,45
 613 1142 613 1142 585 1142 c 1,46,47
 610 1137 610 1137 640 1127.5 c 128,-1,48
 670 1118 670 1118 700.5 1102.5 c 128,-1,49
 731 1087 731 1087 759.5 1063.5 c 128,-1,50
 788 1040 788 1040 810.5 1007.5 c 128,-1,51
 833 975 833 975 846.5 932.5 c 128,-1,52
 860 890 860 890 861 835 c 1,53,54
 861 758 861 758 826 702 c 128,-1,55
 791 646 791 646 735 610 c 128,-1,56
 679 574 679 574 609.5 557 c 128,-1,57
 540 540 540 540 472 540 c 1,58,59
 418 539 418 539 369 547 c 128,-1,60
 320 555 320 555 278.5 566 c 128,-1,61
 237 577 237 577 206.5 589.5 c 128,-1,62
 176 602 176 602 160 610 c 2,63,-1
 144 618 l 1,64,-1
 195 745 l 1,65,66
 195 745 195 745 217.5 734 c 128,-1,67
 240 723 240 723 278 709 c 128,-1,68
 316 695 316 695 367 683.5 c 128,-1,69
 418 672 418 672 475 672 c 1,70,71
 523 673 523 673 563.5 686 c 128,-1,72
 604 699 604 699 633.5 722.5 c 128,-1,73
 663 746 663 746 679 779 c 128,-1,74
 695 812 695 812 695 853 c 0,75,76
 695 945 695 945 630.5 1001 c 128,-1,77
 566 1057 566 1057 433 1072 c 1,78,-1
 433 1207 l 1,79,80
 479 1207 479 1207 522.5 1217.5 c 128,-1,81
 566 1228 566 1228 599.5 1249.5 c 128,-1,82
 633 1271 633 1271 654 1304.5 c 128,-1,83
 675 1338 675 1338 676 1383 c 1,19,20
EndSplineSet
Validated: 33
EndChar

StartChar: questiondown
Encoding: 191 191 127
Width: 1177
Flags: HW
LayerCount: 2
Fore
SplineSet
678 790 m 1,0,-1
 678 1173 l 1,1,-1
 858 1173 l 1,2,-1
 858 688 l 1,3,4
 726 642 726 642 629 599 c 128,-1,5
 532 556 532 556 467.5 507.5 c 128,-1,6
 403 459 403 459 370 401 c 128,-1,7
 337 343 337 343 335 268 c 1,8,9
 335 206 335 206 353 164 c 128,-1,10
 371 122 371 122 408.5 96 c 128,-1,11
 446 70 446 70 505 58.5 c 128,-1,12
 564 47 564 47 646 47 c 0,13,14
 717 47 717 47 777.5 59.5 c 128,-1,15
 838 72 838 72 881.5 88 c 128,-1,16
 925 104 925 104 949.5 117.5 c 128,-1,17
 974 131 974 131 974 133 c 2,18,-1
 1033 -10 l 2,19,20
 1033 -9 1033 -9 1002.5 -25.5 c 128,-1,21
 972 -42 972 -42 918 -61.5 c 128,-1,22
 864 -81 864 -81 789.5 -97.5 c 128,-1,23
 715 -114 715 -114 627 -114 c 0,24,25
 524 -114 524 -114 436 -94.5 c 128,-1,26
 348 -75 348 -75 283 -31.5 c 128,-1,27
 218 12 218 12 181 81 c 128,-1,28
 144 150 144 150 144 249 c 0,29,30
 144 337 144 337 169.5 406 c 128,-1,31
 195 475 195 475 237.5 529.5 c 128,-1,32
 280 584 280 584 335.5 624.5 c 128,-1,33
 391 665 391 665 450.5 696 c 128,-1,34
 510 727 510 727 569 749.5 c 128,-1,35
 628 772 628 772 678 790 c 1,0,-1
777 1505 m 0,36,37
 799 1505 799 1505 818 1496.5 c 128,-1,38
 837 1488 837 1488 851 1473 c 128,-1,39
 865 1458 865 1458 873 1438 c 128,-1,40
 881 1418 881 1418 881 1395 c 0,41,42
 881 1373 881 1373 871.5 1355 c 128,-1,43
 862 1337 862 1337 847 1324 c 128,-1,44
 832 1311 832 1311 812.5 1303.5 c 128,-1,45
 793 1296 793 1296 773 1296 c 0,46,47
 752 1296 752 1296 734 1304.5 c 128,-1,48
 716 1313 716 1313 702 1327.5 c 128,-1,49
 688 1342 688 1342 680 1361 c 128,-1,50
 672 1380 672 1380 672 1401 c 0,51,52
 672 1423 672 1423 680.5 1442 c 128,-1,53
 689 1461 689 1461 703 1475 c 128,-1,54
 717 1489 717 1489 736.5 1497 c 128,-1,55
 756 1505 756 1505 777 1505 c 0,36,37
EndSplineSet
Validated: 5
EndChar

StartChar: AE
Encoding: 198 198 134
Width: 2080
Flags: HW
LayerCount: 2
Fore
SplineSet
1936 0 m 1,0,-1
 1097 0 l 1,1,-1
 1097 371 l 1,2,-1
 545 371 l 1,3,-1
 353 0 l 1,4,-1
 144 0 l 1,5,-1
 970 1579 l 1,6,-1
 1908 1579 l 1,7,-1
 1908 1436 l 1,8,-1
 1260 1436 l 1,9,-1
 1260 891 l 1,10,-1
 1865 891 l 1,11,-1
 1865 764 l 1,12,-1
 1262 764 l 1,13,-1
 1262 143 l 1,14,-1
 1936 143 l 1,15,-1
 1936 0 l 1,0,-1
1095 1459 m 1,16,-1
 605 493 l 1,17,-1
 1095 493 l 1,18,-1
 1095 1459 l 1,16,-1
EndSplineSet
Validated: 1
EndChar

StartChar: Eth
Encoding: 208 208 144
Width: 1662
Flags: HW
LayerCount: 2
Fore
SplineSet
859 1436 m 2,0,-1
 500 1436 l 1,1,-1
 500 143 l 1,2,-1
 859 143 l 2,3,4
 997 143 997 143 1086 192 c 128,-1,5
 1175 241 1175 241 1226 327.5 c 128,-1,6
 1277 414 1277 414 1297 532.5 c 128,-1,7
 1317 651 1317 651 1317 789 c 0,8,9
 1317 932 1317 932 1295.5 1051 c 128,-1,10
 1274 1170 1274 1170 1221.5 1255.5 c 128,-1,11
 1169 1341 1169 1341 1081 1388.5 c 128,-1,12
 993 1436 993 1436 859 1436 c 2,0,-1
859 1579 m 1,13,14
 1196 1572 1196 1572 1357 1372.5 c 128,-1,15
 1518 1173 1518 1173 1518 788 c 0,16,17
 1518 0 1518 0 859 0 c 2,18,-1
 306 0 l 1,19,-1
 306 1579 l 1,20,-1
 859 1579 l 1,13,14
734 764 m 1,21,-1
 144 764 l 1,22,-1
 144 895 l 1,23,-1
 734 895 l 1,24,-1
 734 764 l 1,21,-1
EndSplineSet
Validated: 5
EndChar

StartChar: multiply
Encoding: 215 215 151
Width: 1126
Flags: HW
LayerCount: 2
Fore
SplineSet
144 863 m 1,0,-1
 246 965 l 1,1,-1
 563 648 l 1,2,-1
 880 965 l 1,3,-1
 982 863 l 1,4,-1
 665 546 l 1,5,-1
 982 229 l 1,6,-1
 880 127 l 1,7,-1
 563 444 l 1,8,-1
 246 127 l 1,9,-1
 144 229 l 1,10,-1
 461 546 l 1,11,-1
 144 863 l 1,0,-1
EndSplineSet
Validated: 1
EndChar

StartChar: Oslash
Encoding: 216 216 152
Width: 1599
Flags: HW
LayerCount: 2
Fore
SplineSet
370 -113 m 1,0,-1
 1195 1710 l 1,1,-1
 1296 1668 l 1,2,-1
 471 -159 l 1,3,-1
 370 -113 l 1,0,-1
1455 784 m 0,4,5
 1455 667 1455 667 1440 561 c 128,-1,6
 1425 455 1425 455 1392.5 363 c 128,-1,7
 1360 271 1360 271 1308.5 196.5 c 128,-1,8
 1257 122 1257 122 1184 69 c 128,-1,9
 1111 16 1111 16 1015.5 -12.5 c 128,-1,10
 920 -41 920 -41 799 -41 c 0,11,12
 737 -41 737 -41 664.5 -31 c 128,-1,13
 592 -21 592 -21 519.5 9.5 c 128,-1,14
 447 40 447 40 379 96 c 128,-1,15
 311 152 311 152 259 243.5 c 128,-1,16
 207 335 207 335 175.5 467.5 c 128,-1,17
 144 600 144 600 144 784 c 0,18,19
 144 965 144 965 175.5 1096.5 c 128,-1,20
 207 1228 207 1228 258.5 1320 c 128,-1,21
 310 1412 310 1412 377 1468.5 c 128,-1,22
 444 1525 444 1525 515 1556.5 c 128,-1,23
 586 1588 586 1588 656.5 1599 c 128,-1,24
 727 1610 727 1610 785 1610 c 0,25,26
 909 1610 909 1610 1006.5 1582 c 128,-1,27
 1104 1554 1104 1554 1178.5 1501.5 c 128,-1,28
 1253 1449 1253 1449 1305.5 1375 c 128,-1,29
 1358 1301 1358 1301 1391 1209 c 128,-1,30
 1424 1117 1424 1117 1439.5 1010 c 128,-1,31
 1455 903 1455 903 1455 784 c 0,4,5
1254 784 m 0,32,33
 1254 972 1254 972 1222.5 1101 c 128,-1,34
 1191 1230 1191 1230 1132 1309.5 c 128,-1,35
 1073 1389 1073 1389 989 1423.5 c 128,-1,36
 905 1458 905 1458 800 1458 c 0,37,38
 710 1458 710 1458 641 1434 c 128,-1,39
 572 1410 572 1410 521.5 1366.5 c 128,-1,40
 471 1323 471 1323 437 1262 c 128,-1,41
 403 1201 403 1201 382.5 1126 c 128,-1,42
 362 1051 362 1051 353.5 964.5 c 128,-1,43
 345 878 345 878 345 784 c 0,44,45
 345 600 345 600 376.5 472 c 128,-1,46
 408 344 408 344 467.5 263.5 c 128,-1,47
 527 183 527 183 611 147 c 128,-1,48
 695 111 695 111 800 111 c 0,49,50
 893 111 893 111 963 136.5 c 128,-1,51
 1033 162 1033 162 1083 208 c 128,-1,52
 1133 254 1133 254 1166.5 317 c 128,-1,53
 1200 380 1200 380 1219 454.5 c 128,-1,54
 1238 529 1238 529 1246 613 c 128,-1,55
 1254 697 1254 697 1254 784 c 0,32,33
EndSplineSet
Validated: 5
EndChar

StartChar: Thorn
Encoding: 222 222 158
Width: 1377
Flags: HW
LayerCount: 2
Fore
SplineSet
1233 973 m 0,0,1
 1233 868 1233 868 1199 781.5 c 128,-1,2
 1165 695 1165 695 1081.5 633.5 c 128,-1,3
 998 572 998 572 856.5 538 c 128,-1,4
 715 504 715 504 500 504 c 2,5,-1
 338 504 l 1,6,-1
 338 0 l 1,7,-1
 144 0 l 1,8,-1
 144 1579 l 1,9,-1
 338 1579 l 1,10,-1
 338 1444 l 1,11,-1
 535 1444 l 2,12,13
 678 1444 678 1444 785 1429.5 c 128,-1,14
 892 1415 892 1415 969.5 1387 c 128,-1,15
 1047 1359 1047 1359 1098 1318 c 128,-1,16
 1149 1277 1149 1277 1179 1225 c 128,-1,17
 1209 1173 1209 1173 1221 1109.5 c 128,-1,18
 1233 1046 1233 1046 1233 973 c 0,0,1
500 649 m 2,19,20
 621 649 621 649 708.5 660 c 128,-1,21
 796 671 796 671 857.5 691 c 128,-1,22
 919 711 919 711 957 739 c 128,-1,23
 995 767 995 767 1015.5 801.5 c 128,-1,24
 1036 836 1036 836 1043.5 875.5 c 128,-1,25
 1051 915 1051 915 1051 959 c 0,26,27
 1051 1054 1051 1054 1031 1118.5 c 128,-1,28
 1011 1183 1011 1183 955.5 1222.5 c 128,-1,29
 900 1262 900 1262 802 1280 c 128,-1,30
 704 1298 704 1298 547 1300 c 1,31,-1
 338 1300 l 1,32,-1
 338 649 l 1,33,-1
 500 649 l 2,19,20
EndSplineSet
Validated: 1
EndChar

StartChar: germandbls
Encoding: 223 223 159
Width: 1433
Flags: HW
LayerCount: 2
Fore
SplineSet
507 905 m 1,0,1
 708 917 708 917 776 934 c 0,2,3
 820 946 820 946 850.5 966 c 128,-1,4
 881 986 881 986 899.5 1018 c 128,-1,5
 918 1050 918 1050 926.5 1094.5 c 128,-1,6
 935 1139 935 1139 935 1200 c 0,7,8
 935 1268 935 1268 913 1313.5 c 128,-1,9
 891 1359 891 1359 849.5 1386 c 128,-1,10
 808 1413 808 1413 748.5 1424.5 c 128,-1,11
 689 1436 689 1436 614 1436 c 0,12,13
 527 1436 527 1436 473 1412.5 c 128,-1,14
 419 1389 419 1389 389 1339 c 128,-1,15
 359 1289 359 1289 349 1209.5 c 128,-1,16
 339 1130 339 1130 339 1018 c 2,17,-1
 339 16 l 1,18,-1
 145 -6 l 1,19,-1
 145 991 l 2,20,21
 145 1005 145 1005 144.5 1018.5 c 128,-1,22
 144 1032 144 1032 144 1046 c 0,23,24
 144 1181 144 1181 169.5 1281 c 128,-1,25
 195 1381 195 1381 251 1447.5 c 128,-1,26
 307 1514 307 1514 396.5 1546.5 c 128,-1,27
 486 1579 486 1579 614 1579 c 0,28,29
 1107 1579 1107 1579 1107 1176 c 0,30,31
 1107 1107 1107 1107 1091 1049 c 128,-1,32
 1075 991 1075 991 1044 948 c 128,-1,33
 1013 905 1013 905 967 878 c 128,-1,34
 921 851 921 851 861 844 c 1,35,36
 955 844 955 844 1033.5 814.5 c 128,-1,37
 1112 785 1112 785 1169 728.5 c 128,-1,38
 1226 672 1226 672 1257.5 589 c 128,-1,39
 1289 506 1289 506 1289 399 c 2,40,-1
 1289 395 l 2,41,42
 1289 291 1289 291 1258.5 212 c 128,-1,43
 1228 133 1228 133 1173.5 74.5 c 128,-1,44
 1119 16 1119 16 1045.5 -23 c 128,-1,45
 972 -62 972 -62 886 -85.5 c 128,-1,46
 800 -109 800 -109 705.5 -119 c 128,-1,47
 611 -129 611 -129 515 -129 c 1,48,-1
 515 27 l 1,49,50
 643 27 643 27 737 40.5 c 128,-1,51
 831 54 831 54 896.5 79 c 128,-1,52
 962 104 962 104 1003 140 c 128,-1,53
 1044 176 1044 176 1067.5 220 c 128,-1,54
 1091 264 1091 264 1099 315.5 c 128,-1,55
 1107 367 1107 367 1107 424 c 2,56,-1
 1107 432 l 2,57,58
 1107 509 1107 509 1077 572 c 128,-1,59
 1047 635 1047 635 979.5 680 c 128,-1,60
 912 725 912 725 802.5 749.5 c 128,-1,61
 693 774 693 774 534 774 c 2,62,-1
 483 774 l 1,63,-1
 483 905 l 1,64,-1
 507 905 l 1,0,1
EndSplineSet
Validated: 1
EndChar

StartChar: ae
Encoding: 230 230 166
Width: 1994
Flags: HW
LayerCount: 2
Fore
SplineSet
892 665 m 1,0,-1
 892 713 l 2,1,2
 892 809 892 809 882.5 873 c 128,-1,3
 873 937 873 937 845.5 976 c 128,-1,4
 818 1015 818 1015 768.5 1031 c 128,-1,5
 719 1047 719 1047 640 1047 c 0,6,7
 584 1047 584 1047 527.5 1035 c 128,-1,8
 471 1023 471 1023 422.5 1006 c 128,-1,9
 374 989 374 989 335.5 969.5 c 128,-1,10
 297 950 297 950 277 935 c 1,11,-1
 210 1057 l 1,12,13
 241 1084 241 1084 292.5 1108 c 128,-1,14
 344 1132 344 1132 403 1150 c 128,-1,15
 462 1168 462 1168 522 1179 c 128,-1,16
 582 1190 582 1190 630 1190 c 0,17,18
 711 1190 711 1190 774 1178 c 128,-1,19
 837 1166 837 1166 884 1140 c 128,-1,20
 931 1114 931 1114 962.5 1072 c 128,-1,21
 994 1030 994 1030 1012 970 c 1,22,23
 1039 1025 1039 1025 1080.5 1066.5 c 128,-1,24
 1122 1108 1122 1108 1173.5 1135.5 c 128,-1,25
 1225 1163 1225 1163 1284.5 1176.5 c 128,-1,26
 1344 1190 1344 1190 1407 1190 c 0,27,28
 1515 1190 1515 1190 1597.5 1153 c 128,-1,29
 1680 1116 1680 1116 1736 1048.5 c 128,-1,30
 1792 981 1792 981 1821 886.5 c 128,-1,31
 1850 792 1850 792 1850 676 c 0,32,33
 1850 652 1850 652 1848 625 c 128,-1,34
 1846 598 1846 598 1842 567 c 1,35,-1
 1082 567 l 1,36,37
 1082 468 1082 468 1098 386.5 c 128,-1,38
 1114 305 1114 305 1154 247.5 c 128,-1,39
 1194 190 1194 190 1260.5 158.5 c 128,-1,40
 1327 127 1327 127 1428 127 c 0,41,42
 1597 127 1597 127 1734 244 c 1,43,-1
 1796 99 l 1,44,45
 1758 71 1758 71 1707.5 48.5 c 128,-1,46
 1657 26 1657 26 1604.5 10 c 128,-1,47
 1552 -6 1552 -6 1502.5 -14.5 c 128,-1,48
 1453 -23 1453 -23 1416 -23 c 0,49,50
 1265 -23 1265 -23 1156 36 c 128,-1,51
 1047 95 1047 95 983 207 c 1,52,53
 950 163 950 163 903.5 121.5 c 128,-1,54
 857 80 857 80 800 48 c 128,-1,55
 743 16 743 16 676.5 -3.5 c 128,-1,56
 610 -23 610 -23 536 -23 c 0,57,58
 443 -23 443 -23 370 0.5 c 128,-1,59
 297 24 297 24 247 70 c 128,-1,60
 197 116 197 116 170.5 183.5 c 128,-1,61
 144 251 144 251 144 339 c 2,62,-1
 144 343 l 2,63,64
 144 432 144 432 176 501.5 c 128,-1,65
 208 571 208 571 266 618.5 c 128,-1,66
 324 666 324 666 406 690.5 c 128,-1,67
 488 715 488 715 588 715 c 0,68,69
 622 715 622 715 664.5 711 c 128,-1,70
 707 707 707 707 749.5 700 c 128,-1,71
 792 693 792 693 830 684 c 128,-1,72
 868 675 868 675 892 665 c 1,0,-1
583 119 m 0,73,74
 729 119 729 119 892 271 c 1,75,-1
 892 569 l 1,76,77
 761 590 761 590 657 590 c 0,78,79
 560 590 560 590 497.5 573 c 128,-1,80
 435 556 435 556 399 525.5 c 128,-1,81
 363 495 363 495 349 451.5 c 128,-1,82
 335 408 335 408 335 356 c 0,83,84
 335 292 335 292 349.5 247 c 128,-1,85
 364 202 364 202 394.5 173.5 c 128,-1,86
 425 145 425 145 471.5 132 c 128,-1,87
 518 119 518 119 583 119 c 0,73,74
1682 717 m 2,88,89
 1682 827 1682 827 1654.5 894 c 128,-1,90
 1627 961 1627 961 1586 997 c 128,-1,91
 1545 1033 1545 1033 1497 1045 c 128,-1,92
 1449 1057 1449 1057 1408 1057 c 0,93,94
 1376 1057 1376 1057 1340 1051.5 c 128,-1,95
 1304 1046 1304 1046 1267.5 1031 c 128,-1,96
 1231 1016 1231 1016 1197.5 989.5 c 128,-1,97
 1164 963 1164 963 1138.5 921 c 128,-1,98
 1113 879 1113 879 1097.5 820.5 c 128,-1,99
 1082 762 1082 762 1082 682 c 1,100,-1
 1682 682 l 1,101,-1
 1682 717 l 2,88,89
EndSplineSet
Validated: 1
EndChar

StartChar: eth
Encoding: 240 240 176
Width: 1319
Flags: HW
LayerCount: 2
Fore
SplineSet
485 1401 m 1,0,-1
 1133 1593 l 1,1,-1
 1175 1503 l 1,2,-1
 527 1311 l 1,3,-1
 485 1401 l 1,0,-1
1161 690 m 0,4,5
 1161 -20 1161 -20 628 -20 c 0,6,7
 499 -20 499 -20 407.5 29 c 128,-1,8
 316 78 316 78 257.5 161 c 128,-1,9
 199 244 199 244 171.5 353.5 c 128,-1,10
 144 463 144 463 144 584 c 0,11,12
 144 708 144 708 173.5 818 c 128,-1,13
 203 928 203 928 261 1010.5 c 128,-1,14
 319 1093 319 1093 405.5 1141.5 c 128,-1,15
 492 1190 492 1190 606 1190 c 0,16,17
 664 1190 664 1190 719.5 1175.5 c 128,-1,18
 775 1161 775 1161 823 1138 c 128,-1,19
 871 1115 871 1115 909.5 1086 c 128,-1,20
 948 1057 948 1057 971 1028 c 1,21,22
 944 1109 944 1109 894.5 1194.5 c 128,-1,23
 845 1280 845 1280 778.5 1361 c 128,-1,24
 712 1442 712 1442 632.5 1514.5 c 128,-1,25
 553 1587 553 1587 467 1641 c 1,26,-1
 551 1743 l 1,27,28
 617 1706 617 1706 688 1653 c 128,-1,29
 759 1600 759 1600 826.5 1529.5 c 128,-1,30
 894 1459 894 1459 955 1371.5 c 128,-1,31
 1016 1284 1016 1284 1061.5 1179 c 128,-1,32
 1107 1074 1107 1074 1134 952 c 128,-1,33
 1161 830 1161 830 1161 690 c 0,4,5
977 666 m 0,34,35
 977 742 977 742 961.5 799.5 c 128,-1,36
 946 857 946 857 920 899.5 c 128,-1,37
 894 942 894 942 860 970 c 128,-1,38
 826 998 826 998 790 1015.5 c 128,-1,39
 754 1033 754 1033 717.5 1040 c 128,-1,40
 681 1047 681 1047 650 1047 c 0,41,42
 612 1047 612 1047 573 1041 c 128,-1,43
 534 1035 534 1035 498 1017.5 c 128,-1,44
 462 1000 462 1000 430.5 968.5 c 128,-1,45
 399 937 399 937 376 886 c 128,-1,46
 353 835 353 835 339.5 761.5 c 128,-1,47
 326 688 326 688 326 587 c 0,48,49
 326 123 326 123 624 123 c 0,50,51
 709 123 709 123 774.5 150.5 c 128,-1,52
 840 178 840 178 885 241.5 c 128,-1,53
 930 305 930 305 953.5 409 c 128,-1,54
 977 513 977 513 977 666 c 0,34,35
EndSplineSet
Validated: 5
EndChar

StartChar: divide
Encoding: 247 247 183
Width: 970
Flags: HW
LayerCount: 2
Fore
SplineSet
826 508 m 1,0,-1
 144 508 l 1,1,-1
 144 639 l 1,2,-1
 826 639 l 1,3,-1
 826 508 l 1,0,-1
483 930 m 0,4,5
 531 930 531 930 561 896.5 c 128,-1,6
 591 863 591 863 591 815 c 256,7,8
 591 767 591 767 561 733.5 c 128,-1,9
 531 700 531 700 483 700 c 0,10,11
 458 700 458 700 437.5 709 c 128,-1,12
 417 718 417 718 402 734 c 128,-1,13
 387 750 387 750 379 771 c 128,-1,14
 371 792 371 792 371 815 c 256,15,16
 371 838 371 838 379 859 c 128,-1,17
 387 880 387 880 402 895.5 c 128,-1,18
 417 911 417 911 437.5 920.5 c 128,-1,19
 458 930 458 930 483 930 c 0,4,5
481 445 m 0,20,21
 529 445 529 445 559 411.5 c 128,-1,22
 589 378 589 378 589 330 c 256,23,24
 589 282 589 282 559 248.5 c 128,-1,25
 529 215 529 215 481 215 c 0,26,27
 456 215 456 215 435.5 224 c 128,-1,28
 415 233 415 233 400 249 c 128,-1,29
 385 265 385 265 377 286 c 128,-1,30
 369 307 369 307 369 330 c 256,31,32
 369 353 369 353 377 374 c 128,-1,33
 385 395 385 395 400 410.5 c 128,-1,34
 415 426 415 426 435.5 435.5 c 128,-1,35
 456 445 456 445 481 445 c 0,20,21
EndSplineSet
Validated: 1
EndChar

StartChar: oslash
Encoding: 248 248 184
Width: 1349
Flags: HW
LayerCount: 2
Fore
SplineSet
370 -168 m 1,0,-1
 899 1365 l 1,1,-1
 980 1335 l 1,2,-1
 458 -198 l 1,3,-1
 370 -168 l 1,0,-1
346 768 m 0,4,5
 326 683 326 683 326 582 c 0,6,7
 326 484 326 484 345 399 c 128,-1,8
 364 314 364 314 405.5 251.5 c 128,-1,9
 447 189 447 189 513 153 c 128,-1,10
 579 117 579 117 674 117 c 0,11,12
 770 117 770 117 836.5 153.5 c 128,-1,13
 903 190 903 190 944.5 253 c 128,-1,14
 986 316 986 316 1004 400.5 c 128,-1,15
 1022 485 1022 485 1022 582 c 0,16,17
 1022 681 1022 681 1003 766.5 c 128,-1,18
 984 852 984 852 942 915.5 c 128,-1,19
 900 979 900 979 834 1015 c 128,-1,20
 768 1051 768 1051 674 1051 c 0,21,22
 602 1051 602 1051 547 1030 c 128,-1,23
 492 1009 492 1009 452.5 971.5 c 128,-1,24
 413 934 413 934 387 882 c 128,-1,25
 361 830 361 830 346 768 c 0,4,5
674 1190 m 0,26,27
 810 1190 810 1190 910 1141.5 c 128,-1,28
 1010 1093 1010 1093 1075.5 1010 c 128,-1,29
 1141 927 1141 927 1173 816.5 c 128,-1,30
 1205 706 1205 706 1205 582 c 256,31,32
 1205 458 1205 458 1173.5 348.5 c 128,-1,33
 1142 239 1142 239 1076.5 157 c 128,-1,34
 1011 75 1011 75 911 27.5 c 128,-1,35
 811 -20 811 -20 674 -20 c 0,36,37
 543 -20 543 -20 443.5 25.5 c 128,-1,38
 344 71 344 71 277.5 151 c 128,-1,39
 211 231 211 231 177.5 341.5 c 128,-1,40
 144 452 144 452 144 582 c 0,41,42
 144 708 144 708 176.5 819 c 128,-1,43
 209 930 209 930 275 1012.5 c 128,-1,44
 341 1095 341 1095 440.5 1142.5 c 128,-1,45
 540 1190 540 1190 674 1190 c 0,26,27
EndSplineSet
Validated: 5
EndChar

StartChar: thorn
Encoding: 254 254 190
Width: 1302
Flags: HW
LayerCount: 2
Fore
SplineSet
1158 584 m 0,0,1
 1158 468 1158 468 1131 359.5 c 128,-1,2
 1104 251 1104 251 1047 166.5 c 128,-1,3
 990 82 990 82 901 31 c 128,-1,4
 812 -20 812 -20 689 -20 c 0,5,6
 440 -20 440 -20 330 117 c 1,7,-1
 330 -465 l 1,8,-1
 144 -487 l 1,9,-1
 144 1565 l 1,10,-1
 328 1565 l 1,11,-1
 328 1004 l 1,12,13
 360 1044 360 1044 400.5 1078 c 128,-1,14
 441 1112 441 1112 487 1137 c 128,-1,15
 533 1162 533 1162 584 1176 c 128,-1,16
 635 1190 635 1190 689 1190 c 0,17,18
 774 1190 774 1190 841.5 1166 c 128,-1,19
 909 1142 909 1142 961 1100 c 128,-1,20
 1013 1058 1013 1058 1050.5 1000 c 128,-1,21
 1088 942 1088 942 1112 875 c 128,-1,22
 1136 808 1136 808 1147 733.5 c 128,-1,23
 1158 659 1158 659 1158 584 c 0,0,1
976 543 m 0,24,25
 976 597 976 597 972 655 c 128,-1,26
 968 713 968 713 956.5 769 c 128,-1,27
 945 825 945 825 925 875.5 c 128,-1,28
 905 926 905 926 873 964 c 128,-1,29
 841 1002 841 1002 796 1024.5 c 128,-1,30
 751 1047 751 1047 689 1047 c 0,31,32
 629 1047 629 1047 574.5 1028 c 128,-1,33
 520 1009 520 1009 475.5 983 c 128,-1,34
 431 957 431 957 399.5 931 c 128,-1,35
 368 905 368 905 353 890 c 1,36,-1
 337 244 l 1,37,38
 367 218 367 218 408.5 196 c 128,-1,39
 450 174 450 174 498 157.5 c 128,-1,40
 546 141 546 141 597 132 c 128,-1,41
 648 123 648 123 697 123 c 0,42,43
 732 123 732 123 769 133.5 c 128,-1,44
 806 144 806 144 839.5 169 c 128,-1,45
 873 194 873 194 901.5 236.5 c 128,-1,46
 930 279 930 279 947 343 c 0,47,48
 976 451 976 451 976 543 c 0,24,25
EndSplineSet
Validated: 1
EndChar

StartChar: dotlessi
Encoding: 305 305 192
Width: 470
Flags: HW
LayerCount: 2
Fore
SplineSet
326 0 m 1,0,-1
 144 0 l 1,1,-1
 144 1169 l 1,2,-1
 326 1169 l 1,3,-1
 326 0 l 1,0,-1
EndSplineSet
Validated: 1
EndChar

StartChar: mu
Encoding: 956 956 194
Width: 1269
Flags: HW
LayerCount: 2
Fore
SplineSet
558 -20 m 0,0,1
 512 -20 512 -20 474.5 -6.5 c 128,-1,2
 437 7 437 7 407.5 26 c 128,-1,3
 378 45 378 45 358 65.5 c 128,-1,4
 338 86 338 86 328 100 c 2,5,-1
 318 113 l 1,6,-1
 318 -291 l 1,7,-1
 144 -291 l 1,8,-1
 144 1169 l 1,9,-1
 318 1169 l 1,10,-1
 318 442 l 2,11,12
 318 123 318 123 570 123 c 0,13,14
 640 123 640 123 699 142 c 128,-1,15
 758 161 758 161 803.5 186.5 c 128,-1,16
 849 212 849 212 878 237 c 128,-1,17
 907 262 907 262 917 274 c 1,18,-1
 917 1169 l 1,19,-1
 1125 1169 l 1,20,-1
 1125 16 l 1,21,-1
 979 16 l 1,22,-1
 955 170 l 1,23,24
 784 -20 784 -20 558 -20 c 0,0,1
EndSplineSet
Validated: 1
EndChar

StartChar: endash
Encoding: 8211 8211 195
Width: 758
Flags: HW
LayerCount: 2
Fore
SplineSet
614 555 m 1,0,-1
 144 555 l 1,1,-1
 144 699 l 1,2,-1
 614 699 l 1,3,-1
 614 555 l 1,0,-1
EndSplineSet
Validated: 1
EndChar

StartChar: emdash
Encoding: 8212 8212 196
Width: 1228
Flags: HW
LayerCount: 2
Fore
SplineSet
1084 555 m 1,0,-1
 144 555 l 1,1,-1
 144 699 l 1,2,-1
 1084 699 l 1,3,-1
 1084 555 l 1,0,-1
EndSplineSet
Validated: 1
EndChar

StartChar: quoteleft
Encoding: 8216 8216 197
Width: 683
Flags: HW
LayerCount: 2
Fore
SplineSet
539 356 m 1,0,-1
 472 330 l 1,1,-1
 144 885 l 1,2,-1
 386 974 l 1,3,-1
 539 356 l 1,0,-1
EndSplineSet
Validated: 1
EndChar

StartChar: quoteright
Encoding: 8217 8217 198
Width: 569
Flags: HW
LayerCount: 2
Fore
SplineSet
144 1286 m 1,0,-1
 144 1579 l 1,1,-1
 425 1579 l 1,2,-1
 425 1330 l 2,3,4
 425 1215 425 1215 366.5 1140 c 128,-1,5
 308 1065 308 1065 196 1033 c 1,6,-1
 145 1127 l 1,7,8
 183 1140 183 1140 208 1154 c 128,-1,9
 233 1168 233 1168 248 1187 c 128,-1,10
 263 1206 263 1206 269 1230 c 128,-1,11
 275 1254 275 1254 275 1286 c 1,12,-1
 144 1286 l 1,0,-1
EndSplineSet
Validated: 1
EndChar

StartChar: quotesinglbase
Encoding: 8218 8218 199
Width: 569
Flags: HW
LayerCount: 2
Fore
SplineSet
144 0 m 1,0,-1
 144 293 l 1,1,-1
 425 293 l 1,2,-1
 425 44 l 2,3,4
 425 -71 425 -71 366.5 -146 c 128,-1,5
 308 -221 308 -221 196 -253 c 1,6,-1
 145 -159 l 1,7,8
 183 -146 183 -146 208 -132 c 128,-1,9
 233 -118 233 -118 248 -99 c 128,-1,10
 263 -80 263 -80 269 -56 c 128,-1,11
 275 -32 275 -32 275 0 c 1,12,-1
 144 0 l 1,0,-1
EndSplineSet
Validated: 1
EndChar

StartChar: quotedblleft
Encoding: 8220 8220 200
Width: 938
Flags: HW
LayerCount: 2
Fore
SplineSet
425 1356 m 1,0,-1
 425 1063 l 1,1,-1
 144 1063 l 1,2,-1
 144 1312 l 2,3,4
 144 1427 144 1427 202.5 1502 c 128,-1,5
 261 1577 261 1577 373 1609 c 1,6,-1
 424 1515 l 1,7,8
 386 1502 386 1502 361 1488 c 128,-1,9
 336 1474 336 1474 321 1455.5 c 128,-1,10
 306 1437 306 1437 300 1413 c 128,-1,11
 294 1389 294 1389 294 1356 c 1,12,-1
 425 1356 l 1,0,-1
794 1356 m 1,13,-1
 794 1063 l 1,14,-1
 513 1063 l 1,15,-1
 513 1312 l 2,16,17
 513 1427 513 1427 571.5 1502 c 128,-1,18
 630 1577 630 1577 742 1609 c 1,19,-1
 793 1515 l 1,20,21
 755 1502 755 1502 730 1488 c 128,-1,22
 705 1474 705 1474 690 1455.5 c 128,-1,23
 675 1437 675 1437 669 1413 c 128,-1,24
 663 1389 663 1389 663 1356 c 1,25,-1
 794 1356 l 1,13,-1
EndSplineSet
Validated: 1
EndChar

StartChar: quotedblright
Encoding: 8221 8221 201
Width: 938
Flags: HW
LayerCount: 2
Fore
SplineSet
144 1286 m 1,0,-1
 144 1579 l 1,1,-1
 425 1579 l 1,2,-1
 425 1330 l 2,3,4
 425 1215 425 1215 366.5 1140 c 128,-1,5
 308 1065 308 1065 196 1033 c 1,6,-1
 145 1127 l 1,7,8
 183 1140 183 1140 208 1154 c 128,-1,9
 233 1168 233 1168 248 1187 c 128,-1,10
 263 1206 263 1206 269 1230 c 128,-1,11
 275 1254 275 1254 275 1286 c 1,12,-1
 144 1286 l 1,0,-1
513 1286 m 1,13,-1
 513 1579 l 1,14,-1
 794 1579 l 1,15,-1
 794 1330 l 2,16,17
 794 1215 794 1215 735.5 1140 c 128,-1,18
 677 1065 677 1065 565 1033 c 1,19,-1
 514 1127 l 1,20,21
 552 1140 552 1140 577 1154 c 128,-1,22
 602 1168 602 1168 617 1187 c 128,-1,23
 632 1206 632 1206 638 1230 c 128,-1,24
 644 1254 644 1254 644 1286 c 1,25,-1
 513 1286 l 1,13,-1
EndSplineSet
Validated: 1
EndChar

StartChar: quotedblbase
Encoding: 8222 8222 202
Width: 938
Flags: HW
LayerCount: 2
Fore
SplineSet
144 -19 m 1,0,-1
 144 274 l 1,1,-1
 425 274 l 1,2,-1
 425 25 l 2,3,4
 425 -90 425 -90 366.5 -165 c 128,-1,5
 308 -240 308 -240 196 -272 c 1,6,-1
 145 -178 l 1,7,8
 183 -165 183 -165 208 -151 c 128,-1,9
 233 -137 233 -137 248 -118 c 128,-1,10
 263 -99 263 -99 269 -75 c 128,-1,11
 275 -51 275 -51 275 -19 c 1,12,-1
 144 -19 l 1,0,-1
513 -19 m 1,13,-1
 513 274 l 1,14,-1
 794 274 l 1,15,-1
 794 25 l 2,16,17
 794 -90 794 -90 735.5 -165 c 128,-1,18
 677 -240 677 -240 565 -272 c 1,19,-1
 514 -178 l 1,20,21
 552 -165 552 -165 577 -151 c 128,-1,22
 602 -137 602 -137 617 -118 c 128,-1,23
 632 -99 632 -99 638 -75 c 128,-1,24
 644 -51 644 -51 644 -19 c 1,25,-1
 513 -19 l 1,13,-1
EndSplineSet
Validated: 1
EndChar

StartChar: dagger
Encoding: 8224 8224 203
Width: 1142
Flags: HW
LayerCount: 2
Fore
SplineSet
998 1020 m 1,0,-1
 670 1020 l 1,1,-1
 670 0 l 1,2,-1
 480 0 l 1,3,-1
 480 1020 l 1,4,-1
 144 1020 l 1,5,-1
 144 1161 l 1,6,-1
 479 1161 l 1,7,-1
 479 1468 l 1,8,-1
 672 1468 l 1,9,-1
 672 1161 l 1,10,-1
 998 1161 l 1,11,-1
 998 1020 l 1,0,-1
EndSplineSet
Validated: 1
EndChar

StartChar: daggerdbl
Encoding: 8225 8225 204
Width: 1142
Flags: HW
LayerCount: 2
Fore
SplineSet
998 1020 m 1,0,-1
 670 1020 l 1,1,-1
 670 444 l 1,2,-1
 996 444 l 1,3,-1
 996 305 l 1,4,-1
 670 305 l 1,5,-1
 670 0 l 1,6,-1
 479 0 l 1,7,-1
 479 305 l 1,8,-1
 144 305 l 1,9,-1
 144 444 l 1,10,-1
 479 444 l 1,11,-1
 479 1020 l 1,12,-1
 144 1020 l 1,13,-1
 144 1161 l 1,14,-1
 479 1161 l 1,15,-1
 479 1468 l 1,16,-1
 672 1468 l 1,17,-1
 672 1161 l 1,18,-1
 998 1161 l 1,19,-1
 998 1020 l 1,0,-1
EndSplineSet
Validated: 1
EndChar

StartChar: bullet
Encoding: 8226 8226 205
Width: 986
Flags: HW
LayerCount: 2
Fore
SplineSet
741 455 m 0,0,1
 641 358 641 358 492 358 c 0,2,3
 418 358 418 358 354.5 384 c 128,-1,4
 291 410 291 410 244.5 455 c 128,-1,5
 198 500 198 500 171 561 c 128,-1,6
 144 622 144 622 144 692 c 256,7,8
 144 762 144 762 171 823.5 c 128,-1,9
 198 885 198 885 244.5 930.5 c 128,-1,10
 291 976 291 976 354.5 1002 c 128,-1,11
 418 1028 418 1028 492 1028 c 0,12,13
 565 1028 565 1028 629 1001.5 c 128,-1,14
 693 975 693 975 740.5 929.5 c 128,-1,15
 788 884 788 884 815 822.5 c 128,-1,16
 842 761 842 761 842 692 c 0,17,18
 842 553 842 553 741 455 c 0,0,1
EndSplineSet
Validated: 1
EndChar

StartChar: ellipsis
Encoding: 8230 8230 206
Width: 1544
Flags: HW
LayerCount: 2
Fore
SplineSet
256 213 m 0,0,1
 304 213 304 213 334 179.5 c 128,-1,2
 364 146 364 146 364 98 c 256,3,4
 364 50 364 50 334 16.5 c 128,-1,5
 304 -17 304 -17 256 -17 c 0,6,7
 231 -17 231 -17 210.5 -8 c 128,-1,8
 190 1 190 1 175 17 c 128,-1,9
 160 33 160 33 152 54 c 128,-1,10
 144 75 144 75 144 98 c 256,11,12
 144 121 144 121 152 142 c 128,-1,13
 160 163 160 163 175 178.5 c 128,-1,14
 190 194 190 194 210.5 203.5 c 128,-1,15
 231 213 231 213 256 213 c 0,0,1
774 213 m 0,16,17
 822 213 822 213 852 179.5 c 128,-1,18
 882 146 882 146 882 98 c 256,19,20
 882 50 882 50 852 16.5 c 128,-1,21
 822 -17 822 -17 774 -17 c 0,22,23
 749 -17 749 -17 728.5 -8 c 128,-1,24
 708 1 708 1 693 17 c 128,-1,25
 678 33 678 33 670 54 c 128,-1,26
 662 75 662 75 662 98 c 256,27,28
 662 121 662 121 670 142 c 128,-1,29
 678 163 678 163 693 178.5 c 128,-1,30
 708 194 708 194 728.5 203.5 c 128,-1,31
 749 213 749 213 774 213 c 0,16,17
1292 213 m 0,32,33
 1340 213 1340 213 1370 179.5 c 128,-1,34
 1400 146 1400 146 1400 98 c 256,35,36
 1400 50 1400 50 1370 16.5 c 128,-1,37
 1340 -17 1340 -17 1292 -17 c 0,38,39
 1267 -17 1267 -17 1246.5 -8 c 128,-1,40
 1226 1 1226 1 1211 17 c 128,-1,41
 1196 33 1196 33 1188 54 c 128,-1,42
 1180 75 1180 75 1180 98 c 256,43,44
 1180 121 1180 121 1188 142 c 128,-1,45
 1196 163 1196 163 1211 178.5 c 128,-1,46
 1226 194 1226 194 1246.5 203.5 c 128,-1,47
 1267 213 1267 213 1292 213 c 0,32,33
EndSplineSet
Validated: 1
EndChar

StartChar: guilsinglleft
Encoding: 8249 8249 207
Width: 896
Flags: HW
LayerCount: 2
Fore
SplineSet
752 842 m 1,0,-1
 305 577 l 1,1,-1
 752 306 l 1,2,-1
 752 99 l 1,3,-1
 144 481 l 1,4,-1
 144 666 l 1,5,-1
 752 1049 l 1,6,-1
 752 842 l 1,0,-1
EndSplineSet
Validated: 1
EndChar

StartChar: guilsinglright
Encoding: 8250 8250 208
Width: 896
Flags: HW
LayerCount: 2
Fore
SplineSet
144 1049 m 1,0,-1
 752 666 l 1,1,-1
 752 481 l 1,2,-1
 144 99 l 1,3,-1
 144 306 l 1,4,-1
 590 577 l 1,5,-1
 144 842 l 1,6,-1
 144 1049 l 1,0,-1
EndSplineSet
Validated: 1
EndChar

StartChar: uni203E
Encoding: 8254 8254 209
Width: 970
Flags: HW
LayerCount: 2
Fore
SplineSet
826 122 m 1,0,-1
 144 122 l 1,1,-1
 144 239 l 1,2,-1
 826 239 l 1,3,-1
 826 122 l 1,0,-1
EndSplineSet
Validated: 1
EndChar

StartChar: NameMe.209
Encoding: 8364 8364 210
Width: 1298
Flags: HW
LayerCount: 2
Fore
SplineSet
849 1439 m 0,0,1
 903 1439 903 1439 950 1432.5 c 128,-1,2
 997 1426 997 1426 1034.5 1417.5 c 128,-1,3
 1072 1409 1072 1409 1099 1399.5 c 128,-1,4
 1126 1390 1126 1390 1140 1383 c 2,5,-1
 1154 1376 l 1,6,-1
 1111 1254 l 1,7,-1
 1073 1269 l 2,8,9
 1063 1273 1063 1273 1038 1279.5 c 128,-1,10
 1013 1286 1013 1286 980.5 1292.5 c 128,-1,11
 948 1299 948 1299 912 1303.5 c 128,-1,12
 876 1308 876 1308 846 1308 c 0,13,14
 683 1308 683 1308 596.5 1211.5 c 128,-1,15
 510 1115 510 1115 510 931 c 1,16,-1
 904 931 l 1,17,-1
 904 809 l 1,18,-1
 499 809 l 1,19,20
 497 795 497 795 496 767 c 128,-1,21
 495 739 495 739 494 696 c 1,22,-1
 847 696 l 1,23,-1
 847 574 l 1,24,-1
 493 574 l 1,25,26
 493 435 493 435 522.5 344 c 128,-1,27
 552 253 552 253 598 200 c 128,-1,28
 644 147 644 147 700.5 125 c 128,-1,29
 757 103 757 103 812 102 c 1,30,31
 871 102 871 102 923.5 114 c 128,-1,32
 976 126 976 126 1014.5 140 c 128,-1,33
 1053 154 1053 154 1075.5 166 c 128,-1,34
 1098 178 1098 178 1097 178 c 2,35,-1
 1149 55 l 1,36,37
 1148 54 1148 54 1124.5 39.5 c 128,-1,38
 1101 25 1101 25 1055 7.5 c 128,-1,39
 1009 -10 1009 -10 940 -24 c 128,-1,40
 871 -38 871 -38 779 -38 c 0,41,42
 699 -38 699 -38 620 -0.5 c 128,-1,43
 541 37 541 37 477 113.5 c 128,-1,44
 413 190 413 190 371.5 304.5 c 128,-1,45
 330 419 330 419 324 574 c 1,46,-1
 160 574 l 1,47,-1
 160 696 l 1,48,-1
 320 696 l 1,49,50
 321 739 321 739 322 767 c 128,-1,51
 323 795 323 795 324 809 c 1,52,-1
 144 809 l 1,53,-1
 144 931 l 1,54,-1
 348 931 l 1,55,56
 355 1045 355 1045 388.5 1139 c 128,-1,57
 422 1233 422 1233 484 1299.5 c 128,-1,58
 546 1366 546 1366 637 1402.5 c 128,-1,59
 728 1439 728 1439 849 1439 c 0,0,1
EndSplineSet
Validated: 5
EndChar

StartChar: trademark
Encoding: 8482 8482 211
Width: 1778
Flags: HW
LayerCount: 2
Fore
SplineSet
698 1310 m 1,0,-1
 489 1310 l 1,1,-1
 489 624 l 1,2,-1
 354 624 l 1,3,-1
 354 1310 l 1,4,-1
 144 1310 l 1,5,-1
 144 1413 l 1,6,-1
 698 1413 l 1,7,-1
 698 1310 l 1,0,-1
1221 758 m 1,8,-1
 1405 1413 l 1,9,-1
 1634 1413 l 1,10,-1
 1634 624 l 1,11,-1
 1507 624 l 1,12,-1
 1507 1288 l 1,13,-1
 1310 624 l 1,14,-1
 1132 624 l 1,15,-1
 936 1288 l 1,16,-1
 936 624 l 1,17,-1
 808 624 l 1,18,-1
 808 1413 l 1,19,-1
 1037 1413 l 1,20,-1
 1221 758 l 1,8,-1
EndSplineSet
Validated: 1
EndChar

StartChar: OE
Encoding: 338 338 215
Width: 2381
Flags: HW
LayerCount: 2
Fore
SplineSet
2237 0 m 1,0,-1
 1254 0 l 1,1,-1
 1254 128 l 1,2,3
 1176 47 1176 47 1064.5 3 c 128,-1,4
 953 -41 953 -41 798 -41 c 0,5,6
 734 -41 734 -41 661 -30.5 c 128,-1,7
 588 -20 588 -20 515 11 c 128,-1,8
 442 42 442 42 375 98.5 c 128,-1,9
 308 155 308 155 256.5 246.5 c 128,-1,10
 205 338 205 338 174.5 470 c 128,-1,11
 144 602 144 602 144 784 c 0,12,13
 144 963 144 963 174.5 1094 c 128,-1,14
 205 1225 205 1225 256 1316.5 c 128,-1,15
 307 1408 307 1408 373 1465.5 c 128,-1,16
 439 1523 439 1523 510 1555 c 128,-1,17
 581 1587 581 1587 652 1598.5 c 128,-1,18
 723 1610 723 1610 784 1610 c 0,19,20
 945 1610 945 1610 1060 1570.5 c 128,-1,21
 1175 1531 1175 1531 1254 1459 c 1,22,-1
 1254 1579 l 1,23,-1
 2224 1579 l 1,24,-1
 2224 1436 l 1,25,-1
 1448 1436 l 1,26,-1
 1448 891 l 1,27,-1
 2126 891 l 1,28,-1
 2126 776 l 1,29,-1
 1448 776 l 1,30,-1
 1448 143 l 1,31,-1
 2237 143 l 1,32,-1
 2237 0 l 1,0,-1
800 1458 m 0,33,34
 664 1458 664 1458 575.5 1405 c 128,-1,35
 487 1352 487 1352 435.5 1260.5 c 128,-1,36
 384 1169 384 1169 364 1046 c 128,-1,37
 344 923 344 923 344 784 c 0,38,39
 344 597 344 597 376.5 468.5 c 128,-1,40
 409 340 409 340 469.5 260.5 c 128,-1,41
 530 181 530 181 616 146 c 128,-1,42
 702 111 702 111 809 111 c 0,43,44
 924 111 924 111 1008 136.5 c 128,-1,45
 1092 162 1092 162 1147 194 c 0,46,47
 1211 230 1211 230 1254 277 c 1,48,-1
 1254 1301 l 1,49,50
 1214 1345 1214 1345 1151 1379 c 0,51,52
 1124 1394 1124 1394 1089 1408 c 128,-1,53
 1054 1422 1054 1422 1010.5 1433 c 128,-1,54
 967 1444 967 1444 914.5 1451 c 128,-1,55
 862 1458 862 1458 800 1458 c 0,33,34
EndSplineSet
Validated: 1
EndChar

StartChar: ring
Encoding: 730 730 216
Width: 768
Flags: HW
LayerCount: 2
Fore
SplineSet
386 1644 m 0,0,1
 354 1644 354 1644 327.5 1632 c 128,-1,2
 301 1620 301 1620 282 1600 c 128,-1,3
 263 1580 263 1580 252 1552.5 c 128,-1,4
 241 1525 241 1525 241 1495 c 0,5,6
 241 1464 241 1464 252.5 1437 c 128,-1,7
 264 1410 264 1410 283.5 1389.5 c 128,-1,8
 303 1369 303 1369 329.5 1357.5 c 128,-1,9
 356 1346 356 1346 386 1346 c 0,10,11
 417 1346 417 1346 443 1357.5 c 128,-1,12
 469 1369 469 1369 488 1389.5 c 128,-1,13
 507 1410 507 1410 517 1437 c 128,-1,14
 527 1464 527 1464 527 1495 c 256,15,16
 527 1526 527 1526 517 1553.5 c 128,-1,17
 507 1581 507 1581 488 1601 c 128,-1,18
 469 1621 469 1621 443 1632.5 c 128,-1,19
 417 1644 417 1644 386 1644 c 0,0,1
388 1735 m 0,20,21
 440 1735 440 1735 483.5 1717 c 128,-1,22
 527 1699 527 1699 558 1666.5 c 128,-1,23
 589 1634 589 1634 606.5 1590 c 128,-1,24
 624 1546 624 1546 624 1495 c 256,25,26
 624 1444 624 1444 607 1400 c 128,-1,27
 590 1356 590 1356 559 1324 c 128,-1,28
 528 1292 528 1292 484.5 1274 c 128,-1,29
 441 1256 441 1256 388 1256 c 0,30,31
 334 1256 334 1256 289 1274.5 c 128,-1,32
 244 1293 244 1293 211.5 1325 c 128,-1,33
 179 1357 179 1357 161.5 1400.5 c 128,-1,34
 144 1444 144 1444 144 1495 c 0,35,36
 144 1547 144 1547 162 1591 c 128,-1,37
 180 1635 180 1635 212.5 1667 c 128,-1,38
 245 1699 245 1699 290 1717 c 128,-1,39
 335 1735 335 1735 388 1735 c 0,20,21
EndSplineSet
Validated: 1
EndChar

StartChar: tilde
Encoding: 732 732 217
Width: 1048
Flags: HW
LayerCount: 2
Fore
SplineSet
712 1312 m 0,0,1
 656 1312 656 1312 604 1330.5 c 128,-1,2
 552 1349 552 1349 507 1371.5 c 128,-1,3
 462 1394 462 1394 424 1412.5 c 128,-1,4
 386 1431 386 1431 359 1431 c 0,5,6
 330 1431 330 1431 315 1406.5 c 128,-1,7
 300 1382 300 1382 300 1316 c 1,8,-1
 144 1316 l 1,9,10
 144 1576 144 1576 345 1576 c 0,11,12
 401 1576 401 1576 447.5 1556.5 c 128,-1,13
 494 1537 494 1537 535.5 1513.5 c 128,-1,14
 577 1490 577 1490 614 1470.5 c 128,-1,15
 651 1451 651 1451 689 1451 c 0,16,17
 748 1451 748 1451 748 1562 c 1,18,-1
 904 1562 l 1,19,20
 904 1505 904 1505 890.5 1459 c 128,-1,21
 877 1413 877 1413 852 1380.5 c 128,-1,22
 827 1348 827 1348 791.5 1330 c 128,-1,23
 756 1312 756 1312 712 1312 c 0,0,1
EndSplineSet
Validated: 1
EndChar

StartChar: circumflex
Encoding: 710 710 218
Width: 968
Flags: HW
LayerCount: 2
Fore
SplineSet
272 1472 m 1,0,-1
 144 1550 l 1,1,-1
 436 2051 l 1,2,-1
 532 2051 l 1,3,-1
 824 1550 l 1,4,-1
 696 1472 l 1,5,-1
 484 1849 l 1,6,-1
 272 1472 l 1,0,-1
EndSplineSet
Validated: 1
EndChar

StartChar: hungarumlaut
Encoding: 733 733 221
Width: 1013
Flags: HW
LayerCount: 2
Fore
SplineSet
535 1472 m 1,0,-1
 478 1498 l 1,1,-1
 637 2109 l 1,2,-1
 869 2018 l 1,3,-1
 535 1472 l 1,0,-1
201 1472 m 1,4,-1
 144 1498 l 1,5,-1
 303 2109 l 1,6,-1
 535 2018 l 1,7,-1
 201 1472 l 1,4,-1
EndSplineSet
Validated: 1
EndChar

StartChar: caron
Encoding: 711 711 222
Width: 968
Flags: HW
LayerCount: 2
Fore
SplineSet
484 1674 m 1,0,-1
 696 2051 l 1,1,-1
 824 1973 l 1,2,-1
 532 1472 l 1,3,-1
 436 1472 l 1,4,-1
 144 1973 l 1,5,-1
 272 2051 l 1,6,-1
 484 1674 l 1,0,-1
EndSplineSet
Validated: 1
EndChar

StartChar: uni030F
Encoding: 783 783 223
Width: 1013
Flags: HW
LayerCount: 2
Fore
SplineSet
478 2018 m 1,0,-1
 710 2109 l 1,1,-1
 869 1498 l 1,2,-1
 812 1472 l 1,3,-1
 478 2018 l 1,0,-1
144 2018 m 1,4,-1
 376 2109 l 1,5,-1
 535 1498 l 1,6,-1
 478 1472 l 1,7,-1
 144 2018 l 1,4,-1
EndSplineSet
Validated: 1
EndChar
